<mxfile host="app.diagrams.net" modified="2024-01-23T21:52:50.213Z" agent="Mozilla/5.0 (Windows NT 10.0; Win64; x64) AppleWebKit/537.36 (KHTML, like Gecko) Chrome/120.0.0.0 Safari/537.36" etag="ppJ43KnF6wpWyrmqQozf" version="22.1.21" type="github">
  <diagram name="Página-1" id="OKHxGiCNLrhVIuOJCAQk">
    <mxGraphModel dx="1707" dy="468" grid="1" gridSize="10" guides="1" tooltips="1" connect="1" arrows="1" fold="1" page="1" pageScale="1" pageWidth="827" pageHeight="1169" math="0" shadow="0">
      <root>
        <mxCell id="0" />
        <mxCell id="1" parent="0" />
        <mxCell id="230bwB02gt-Gy7RUY72W-2" value="Laravel" style="rounded=0;whiteSpace=wrap;html=1;fillColor=#97D077;" parent="1" vertex="1">
          <mxGeometry x="356" y="40" width="116" height="30" as="geometry" />
        </mxCell>
        <mxCell id="230bwB02gt-Gy7RUY72W-3" value="Se tiene en cuenta composer.json" style="rounded=1;whiteSpace=wrap;html=1;" parent="1" vertex="1">
          <mxGeometry x="660" y="170" width="120" height="60" as="geometry" />
        </mxCell>
        <mxCell id="230bwB02gt-Gy7RUY72W-4" value="Este archivo contiene paquetes(dependencias) que deben descargarse.&amp;nbsp;" style="rounded=0;whiteSpace=wrap;html=1;fillColor=#D5E8D4;" parent="1" vertex="1">
          <mxGeometry x="690" y="100" width="150" height="60" as="geometry" />
        </mxCell>
        <mxCell id="230bwB02gt-Gy7RUY72W-5" value="Se instala composer por medio del siguiente enlace:&amp;nbsp;&lt;br&gt;https://getcomposer.org/download/" style="rounded=1;whiteSpace=wrap;html=1;" parent="1" vertex="1">
          <mxGeometry x="298.76" y="150" width="220" height="60" as="geometry" />
        </mxCell>
        <mxCell id="230bwB02gt-Gy7RUY72W-6" value="Abre el terminal de comandos y se verifica la instalación digitando &quot;composer&quot;" style="rounded=1;whiteSpace=wrap;html=1;" parent="1" vertex="1">
          <mxGeometry x="325" y="240" width="150" height="60" as="geometry" />
        </mxCell>
        <mxCell id="230bwB02gt-Gy7RUY72W-8" value="" style="shape=image;verticalLabelPosition=bottom;labelBackgroundColor=default;verticalAlign=top;aspect=fixed;imageAspect=0;image=data:image/png,iVBORw0KGgoAAAANSUhEUgAAAewAAACRCAYAAAAB4YvLAAAAAXNSR0IArs4c6QAAAARnQU1BAACxjwv8YQUAAAAJcEhZcwAADsMAAA7DAcdvqGQAADkxSURBVHhe7Z0NcBzHdaAfCOJ/QQJLUgABiiDFpS1LkAAplqxE/FESl+6UE+M/OvadFUqxK7nEUSp3ThjZiXS2Q57PDl2pciI7PsuWLZ1cF0eU/6iyHJ0ciz+yFMkWAYmSSQOkCIr4WRFcgMTinwCuX/f0Ts9Mz+zs7GAxu3xf1Stg5/W+ed0zs6+7p2deWSqVWjj6zmeglFhYWIC5uTmoqKgwtriDZZGysjL+142wyyHoY3l5ufFJD/nnDvnnhPzTQ/7pIf/ciaJ/y4y/BEEQBEFEmJIfYeNfL3Lp+fjplfm1h8zPz8OyZd59JvLPHfLPCfmnh/zTQ/65E0X/aEo8hwZHwiqH0JSQE/JPD/mnh/xzh/xzUuz+eXcfCIIgCIKIBBSwCYIgCKIICDdgd2yGxO5640MJUar1IgiCIIoG6z1sDEx7ExBfLz7CmTQMPHIYzu43PvsgvnszwL4eSBmfHbB9tD+agKk9T0GvtLvzBrj5gRgM7GL76ja25QHeB8D7D2Hew278ywSv10jWexAxWHdgC7SWnYRjO3pgwthuwWjnla3GPRJbO8cfvAMSW8X/pn9J6O04arRrPd9HizxOjIW+Hr6/yZDupSB0j8kJ+aeH/NND/rlD/jnJVs4cYWPQZIEUHjkCL3Y8JeT+XpjoMfQ+ST2NQbv0RqO+69XRDA0YSNc3Q7xDbLLgt53P9MIxqecig7XJxGOGjV1dTJeA9gfXGhqCIAii1DACNhux3d3MA0Dv/jGxCekehFSuI97uIZhqa4Za42Nw6tlIcyvc3H1HRjAg2e3W7r4B2mWZAzdoguRaSDBdYif7e0Da2grrLOV87MtnvWpvbwZ4rAsGzsSg4XZ7gA+xnVXY9wcOpQHaYoHa3dKGurqj30r7tD+42aKv3c10bJsos1Vpa6WdcWaFfTexE2cQDFvseFmPA+K9L0Ehzw2CIIhoIAI2HxWmYfRpJYi4In7kbu5mP4DGFitjcPbZGLSwH+Z8qN3dCYmtaejdJUeYR+DUQ2nLFDMGivZtaRjgZVgQ7GuGxF7dDzwLEg90Qryvi5cbOGNsNPCzL3/1YoFkG7B2ZAGYBdDabbYAn1M750Y1C9bQp/i8czMLRNlnBHgb3hWD0T3miN9e9/iDW6ClbcgY8R+B0TbNaH5rAqqf7YLewzHe1jiDgJ2W6s2GnsM6FbfdALWsnDxeLbbj5WdfhTw3CIIgooII2JtxZMZ+8EK4f8zZ3wtTd+t/HIMzxvxTAx0GxxikHukxRqdjkHp2CGA9CxJcL8B7AlwOHYV//9MB87MhEuv2izDeddGyjcPqNbkrATXKdotc3wQNMMT9Gf/XQRi/sgkar1f0iTr23TFmW9nmJldugmu7/qMx6rsDNn1AU8aQmg+IADbw0KC5/fFBOL+9A6794Rb23Vhmu0R8jkHj1joY/z9H4c3Hzfpa6n59AtZuGYP+v/kVjPNtF+HNv+mB8S2boJXVTYL30PulDdbWPY+L71dtEPsWsP9/+rKxr4tw/mvMjtpGbF8tWI/72XbNvngZrdiPl6jX+W/9KnNunP8pa5sr66DK8j1DmL8v3jvIPXTobCLR6YKIRKdTRaLTqSLR6YKIRKdTRaLTqSLR6YKIRKdTRaLTqSLR6YKIRKdTRaLTqSLR6YKIRKdTRaLTqSLR6YKIRKdTRaLTqSLR6YKIRKdTRaLTqSLR6VACrBIfhF4+qnHeUzVho9FH8htlT+zrhdQZNip69A5ox6lT+2jRuFccf0BOZTJ5oJkpWOdDM6WZelb8IHPfdlgXt2XdVwbvevHp8ENDYqTXPQSj2mlxn9juYWcW6CnU3rWF17tdu2CPdWDuPQzHdnRB6rZOuPkATlXbfWGdG9aGU294jPh1nbnuNEzhdy2j5wDY7fjcVyHPDYIgiKggAnYPTifqf8wCs5+NdvMaZbOOwQ4WrHZ1wWgfC5IPsOB0wGkvtccMakKsP7i42s5LBINw8nd/DC/d3Q0XztRD6//YCu968m1Q5yjH7D2RhLJ7rDohK2DV9vpMEH3XK1uhta0M6ravNcv2jsNkWT3Udarf8xaJTjf57efgpc5uGGE2ZcfAWS4NI392BF56AP3emmlDZ7lgItHpVJHodKpIdDpThrIeL5SRvT/OnBcvdbLynUeg/xVrGSkSnU4ViU4XRCQ6nSoSnU4ViU4XRCQ6nSoSnU4ViU4XRCQ6nSoSnU4ViU4XRCQ6nSoSnU4ViU4XRCQ6nSoSnU4ViU4XRCQ6nSoSnU4ViU4XRCQ6nSoSnU4ViU6HIgK2MYoJPBrUgguhmp2jUb4vHS5T8t2DcJaNFF/cg9Pdysprw071xhB9dtuXBZd64agObCu7d/XChMPn8Nu5l/lbe1eny2IpY4HWXjbCxJXplkfNmD9nsrShrjPXgbcd2HdzfILAgd1Orvsq5LlBEASxxBhT4vJHf4t1tW0HGzE6gkC2RWcmOHXpHGUPQuowQDyzXaychsNDlin22p2blYDJgs5trMwZcX9YwALnY2kRqJQp0dqdztXC2ci+Lyu6elmmwyWOAJ1LO+fA/qN8sZd1AZcI1O0HOiGOi7x2HLauTOeMicVxrA3V6fJa9Mf4H7p7YMBimx2vvQmoPdwbaOoYj7toa40dn/sq5LlBEAQRFcx72OxH/9ieXphq6zQfhdnbCS2b8xmlsOCMK4Fto9HUvUdggG0X+9kCDX1sZGos+smwEVcQG36wMom2Iei93/oikol9h+EY+2FuwOlyw+er7o4Z2hzwsS8r9nqxoMFXh9sDouicWFaL+23n9QlTbwg+EuVG6t4uSLHvXCWfFd/JRpwsUB/TBmoT3oZ70lCttiGOxhV8HS9fpFkHgQVt3tZ6O5E7NwiCICLC4mfrwudv9wKccnvr1yKAq+nwLTWLmq3LpV5+7SGX1Zt+rmcdkEcTML33x9oFdBJqPz3knx7yzx3yz0mx+xdglXiO4DQnGzGZU5glQqnWiyAIgogkix+wGfh4USk+KlOq9SIIgiCiR0ECNkHgjASuoPeaDicIgiDcWfx72EsA3gfA+w94D1veE4gifu6RLCXkX36Qf/lB/uUH+ZcfUfSPRtgEQRAEUQSU/Ag7G2Gt3pP4LYf46cGRf+6Qf07IPz3knx7yz50o+kcjbIIgCIIoAihgEwRBEEQRQAGbIAiCIIoACtgEQRAEUQRQwCYIgiCIIoACNkEQBEEUARSwCYIgCKIIoDedLSF+nvNbSsi//CD/8oP8yw/yLz+i6B+NsAmCIAiiCCjwCHstJLo7IW58cjIEvR1DEM+zzMLCIJxo74em12/Kaqexq4OX0b9ZxtxXo+sbaLDMUUgZn/y+0Qbx04ML6w05EvJPD/mnh/xzh/xzQv7pCascvZq0wA2uQiesE/JPD/mnh/xzh/xzUuz+0ZQ4QRAEQRQBFLAJgiAIogiggE0QBEEQRUBBAnbt7q2Q2Gl8KCFKtV4EQRBE9ChAwF4LLduGYGC/8bFkKNV6EQRBEFFk0QN27e4EVB8aggnjc6lQqvUiCIIgoskiB2wchaZhYN+Y8blUKNV6EQRBEFFlUZ/Dxnu8V0EXHCtwYMNn2fAZOnwOG/96kcvzcbKMV7382kPm5+dh2TLvPlMQ/7wg//SQf3rIP3fIPyfkn56w/FvEgF0P6w4kYGKH+RawQoGVlgE7G7k0OFJWtsKzXn7tIfTiACfknx7yTw/55w7556TY/fPuPuTDzgQ09A0VPFgvOqVaL4IgCCLSLFLAZqPru2Mw+tCg8blUKNV6EQRBEFFncQI2H4X2wtlu43OpUKr1IgiCICLPIgRsGl0TBEEQRNiEH7A7mktzFFqq9SIIgiCKgtBXiccf3ArxZw9Db+A3gOWfMzvcfNhiNXjjP27h9Tr5hK6c6bN+lZ/eZ+sqRH0Zqz3THzu5r0JsydrO2IZrjv2aZ5me6we5z6tc95tbO3vXw3puOFdxOtvQaa8w7YwI/9Z5tjOeq+jPqlducC2D/oTdzkh+q2CtxyJ4OzvLSIR/5zzLCHtDcLKzS3u8JH6P28JCM69XtnZGf1a6tp9ZxjuPvlkvvX/O9vHbzoh5fN3LmPaSrmWQsNsZz5+NL18Ha1zPP+Fz9vNZ+Bx2OyPW6wPLOH8T/NY3rHLhBuyOzdC+F+DUjp4lfQMYVhobO7THuli9rt2zwOs1GdKBQfL7wbQSdjmE/HNC/ukh//SQf+6Qf06ylVvUF6csFVhpbGwM2LIBooifE2IpIf/yg/zLD/IvP8i//Iiif4v3HDZBEARBEKFR8iPsbIQ1VSHxWw7x04Mj/9wh/5yQf3rIPz3knztR9C/vEXZYOaGjlls60rmuOzZDYne98SE3Il2vDPha2zugPWAdQ6NU25nq5aA4rgsrS+YztfOSkWfADisndNRyS0c813V3D6SgWbua05uI1yvDGJzd0QVT2zqX9kIp1XametkolutCZQl9pnZeMvIK2GHlhI5abuliyHWdehognmMvt7hyeA9C7458Hg8Mh1JtZ6qXSXFdF4Kl9pnaeWnII2BjzyOMnNBh2QmLqPnjQvcQTLU1Q63xMTtFUq+oUartTPUyKMbrIgI+UzsvCYEDtuh59ILXQ/R+CMtOWETNH3fG4OyzMWjxOWVcPPWKGqXazlQvpBivi2j4TO28FAQM2PUQD6XnEZadsIiaP1nY3wtTd2/20cstsnpFjVJtZ6pXEV4XEfKZ2rngBAvYYeWEjlpu6aLLdc16uY/46OUWXb2iRqm2M9Wr6K6LSPlM7VxoAgTssLJWFSb7FT7X5iWShYUYtO6qg5GvDTjKWMs5dapIdLogItHpuDw+CAu7EplerrOMtV4SZ7lgItHpVJHodKpIdLogItHpVJHodFxybGe/ItHpVJHodKpIdDqtGPWq0emYyOs0W70kOp0qEp0uiEgcOlu9JGYZ/fGSqNvyEYlOp4pEpzMllvnN1OtzF4lOp4rEoQvYzn5FotOpItHpVJHodKb491mi06ki0elUkeh0KLkHbN7zCCFrVVh2wiJq/vhmEAYONbv3cou2XlGjVNuZ6lU0RNJnaudCkmPALq7RNYJvjPESQT1ceU89XPj6kLYMikSnU0Wi0wURiU4nZfKLJwGMe0lW3QpHvSTWcsFFotOpItHpVJHodEFEotOpItHppOTSzn5FotOpItHpVJHodG6C9Sq7521Q59CtyFyn1u1Okeh0qkh0uiAi0enUekmEzv14Sezbg4pEp1NFotMJET7L30x9mdxFotOpItHpgrSzX5HodKpIdDpVJDqdkNx8luh0qkh0OlUkOh1KbgE7rJzQUcstXfS5rgch1afp5VIO75Ap1XamekWeSPtM7VwocnqXeP65rgVh2XED5/rxPbB+3yWO/qw6eMTTHyyHYC/HSVj5sPPIt3p9gqc2feN3ezMP+eva2a89ZG7uCnh7KPmwj8J5v/Xw2c6I812/znZ22itMOyP+30W8FjaHkg/bfzsjFv86nKlxsV6NPz3E6xXsuFmPF2It5zxeKsI/zIetz02OZD1uRr1O3vkrXi8s5/X74+88EPUqTD5sUXfpc8/jfvwTWM8/57FAzP1iPuzCtTOS/fpYC5sKlg/b2s7os//r16NdDMIq5z9gay7oQIRlxwOsNDa2r4Ct+QHWEfaBQcI+IfBkq/v6EdE7dGnnpfQPiXL7IX7K+WlnpNjaD+tV+9BhS73UH2AvCuGfDj/2sF41XzvE61XW+TbP35+l8A/xLKecY+NR9M8gl3ZGInd92K7lyPnHoGxdBW5wlSieECrknxPyTw/5p4f8c4f8c5KtXLDnsAmCIAiCKCgUsAmCIAiiCPAM2GHlAY1aDtSo1YvseEN2vCE7btRDfPcN0N59Ryj+LA64GGwrtD+41scrPqNN1M6fUsQjYGOmkjDygIZlJxh4T8AqzbB26yD0Py4+S5zlrCIxt1ntuJfLJno7UiQ6nSqynd3sSJHodEK8/bGLxKlb3Hb2K5JCt3N2Ef7I60JfxhSJUxesnZ2ibx+Juk0nkrDaOZsdKRKnLgatP7wVNm1dgP7f/1FmpbKznFUkOl0Qkeh0Qgag5/d7YBQS0H7gBr7aWV9OiESnCyISnU4ViU4nJLfz2V2Cnc8SnU4ViU4XRCQ6nSoSnU4ViU6H4rroDHs5V0EXHMvz5edh2ckFrBguGMBFZ/i/SpTqhT7Wf/K2SLWzasfPogs3CtHOufhXCH/sePm3FP7YUf2Lgj8qaKdt7hfwy793W2PsTfxBNqpu64VjHquU8yWf62N2dhbS6TRMTk7CzMwMzM/PC59Z27147+K/UCpsonb+lCouAXstJA40Q2qH+3N5/gjLTm6oAduK0x8Z0HNbvedeL7/2EP6c849aPdvHn721sOmHTdzOSE71sGOtl58fJL29xW9nxL9/a2Hzk2sL2s6Iu39mvfJ7Pj14OyOmf+7t7Nde2O2M/pz7nZ/DhSDnHz6e82gzjO4yHlFj5FaPXNvPHZ294eFhGBsbgxUrVkBtbS1UVVXBsmXLtH4XB97XqX/CslO6aKfEw8oDGrV8olGrF9nxhux4Q3b01N7eDLVnhiAVsaB36dIl6O/v50G8ra0NVq1aBTU1NSJYI91DMHomBg2314vPRULUzp9SRhOww8oDGrV8olGrF9nxhux4Q3bcqG6LAfSlF20qPCjJZJKPqNesWWMGaQtjMNHHAhf6XzRE7fwpbZxnDc9UEkIe0LDshEXU6kV2vCE73pAdF+pZwDP+jRA4DV5ZWQmNjY3GFg9YwC6aFeNRO39KHFvALr5sXP6IWr3Ijjdkxxuy444YpUYJXGCG96xxCtwXEZwd0BO186f0sQZs3ssJIVNJWHbCImr1IjvekB1vyI4nUyzgRWmUiqvBcYGZfhpcRcwOTKD/xUDUzp/LAOUMKtXeUtTqRXa8ITvekJ1sTDw9BBPrmyHeYWxYYvDRLbx3nRVM7bg+DaNPF8N93Ogd98sBM2CHlQc0avlEo1YvsuMN2fGG7GSnuwcGDsegZe/mSIyy8TlrfHQrG/E/TEDt4ZDaYLGJ4nG/DMg8h42p0bxyl/rF285abU5WE2vuUj3ZyywsDMKJ9p/DWEVF1nr5fe6y8R+3cDsnn9CVM+ultxd+vlV7vfzWw17Oq31y8W/Vl7cVoJ2tePkn6+U3f3DY7Yyo/rm1s7DnJx/2y/z8Caud0Z+VP3kW3vhesPNP4t3Ozuvdak9/XUjyuT74yO3AFmjBfdx/FM53Ybnw8o6jz379O3XqFGzatMnYoqGD+fqHndDSlobeRXsGOazfXvfjFYSw7FwuiID9sb6suUt9YcsnulTgRYIXU8U7r4F3fHbO059sP0gcVq9r9yxkzZmNeNqztQ++3SjbfS2tPU07YznPOhhY7GU5Xr79Y3au+59lWds5q39GO6OdSR91cfVPqZff/MFa/1zaGfHT1hn/PNrZrz3un48cw77sGf70/qcTMBXk/JPY2tlPm2jtubRP4OsjQz3Edyeg5a5mmPzbH/nqBPpqPwO//vX19XkEbAykCahmI+tT9w66HtdI4XE+50RYdi4jKB+2zws07HJIfiMIK+SfHvLPHfLPyWL4l3WEnQNz6SE4nRw3PgHUNW2A5pi3D3amRk7CaEXu3xNMwcjJUahoa4bYcmOTjktpGOqbhYZNjVBtbCLyx7t7SBAEQUQCEayroJUFf+wAbNrUClXJ0zCUnjNK+KO6cVPAYE0sNTTCLoIeOkL+OSH/nJB/epbSv7BG2Dgy7odW2NRojll5EB+PwYamGKAnvIxxE9xt9G2OsAHSLODPVsaBxQGhjJv2VVtiewUvn+RPndVBEx9l44i737zvLr9vG2FbZwbkd42PKvx7SeAlY02ZejFn4KR0JrN9Tvhf1wTTSfEdrHPD7GnD7zjr3OD+9eUybaPuM/MdRHxP1Nf2HQ9/0qx+4+lx1hSbQDlU4jsXKqCpMglJi3+IdV+Z73Lf2MbYOLMZN0bYHZshsbu43l/rBmZ7yeRSLdV65QHZ8SYsO1HDUi+6LpaUoMeiuiYOkOqHk+xXXY6py2PNsMkIahgU+2dY8MDRd1sTAAsAI1OinBepmQrxnVa0PwrpS2wjCy4ZW5s2wMY/vw6a31vOYlMrCzMy4GKQ6YdpFsj4iJ/ts05+X4XZkjMD1331Htj+R+OQHNM5xoI/C06xNtznJmhlge0czh5g0GLBEYMY+tIESTitVCzFIu0aw/9xVmfsjPBysRSMKrMPqSR2IISfkDxn+In7TAIYdWiNp6DfaN+59DlIVrIOCH6Hz2ZcZKUZ3J9p1gZ6f8YrG/h3LMFakk5Cmvtn7Mv43tQIC9bMkjwOqf4hpR3HoWol7qvRCNjdPayH1OyxOrBYsOXeLtV6BYbseBOWnahhqxddF0tIHseiutEMECdPwkmUTPCeg8nxcairqxEj0uUxaGBGpy+ZAcuNzHeqa1z8WAdv+yDAxe8bHzNgAFem15cvB+3Da9xvHEmKup/7QZ2hsDE1CalYDGqMkXdm6v7SLIyzUewKHgDZPlcyL1OTIngyzDpXsK5EHBq4P+WwvBI3mtQ1rRCjWd4245Cews7AJZjOfIfts551OjDtqb3Twb7ZaIyG56bSzB/pp+HPzKVMJ6rOc2bXti9ejzm4NMM0K43ZhOoVrLNh+MepgwqjTTL3sFNPsy8Uea9bZHsZsqw4LNV6BYHseBOWnaihqxddF0tD/sdCBEkx6hOjUMvojo0weSBngjO247OzhsadquUigFhgQXZDXZp3DAbfXwajP+rXtzNO88rOgzo1bgFH4sJO/zefg9eVRXMqc5emjf+sOLbzwGyi9V+Dthx2Box/OUqnA2cvWqE/Uz/LbAUbKWc6TdjQ6VmQLe3pT6wCnOGcfdfycjt7Z6MK3eKYi866h2Cqrbl4XjrvAHtvmmwvpVqvnCE73oRlJ2q41IuuiyUgn2OBQU+dJhXwaXJldCemjRXRzsv6g0+3b9oCW/9gNVz8zKua6fUpGMlMVaPgdLkTPrUMnfAbf9AENd+9AjY06UfY5cv1L5dxbLcHWZ+Ysw1iRMuxBX8x4jbBUb6sG6jT1HivXm3nzL3oLCiB3awHC+KWBG2KfzaUVeJjcPbZGLQU6f070XPV5VIt1XrlBtnxJiw7UcO9XnRdFJr8jkU51LDIkjxv3r/mQfwCs1a5nGlRXwepC1KPi8FO5ryCXIL3w0+yCG36bE7LujGXHnU9HqadKbjoMsLmwVOZjsZFb+iD2J6Ei7zDYNQ5XuMvQCqMj0+Ktrk0Cel0HcSq2UiYj6jNe91TY8nMdDfu39p+YqRbXh2z3KvnfirrCrxJwaTR8ZmalPUQI+rMsZu6CEnpnw0lYDP298LU3dF4nV9uuOdSxVWaC4/3wOSuBNTg/zaR2LfbRaLTqSLR6XKXWKZeer0pEp0O7TRuHYP+v7tolArqn2lHbpNYyzlFIj477ejLZRN3O1IkOp0pYbVz7iLR6VSR6HSqSMTnLO3jcV1Ikeh0qkh0OlUkOp1/yf18luh0qkh0uiBikiXfs4/fXhzxymlqMU17WiyKMkbRfAoXp8i5rh9SbBSoWyXuh/LYGmiauQgjrd1w+I9fhXTdGmNVN44GxyHZh6PNaljBRsupfuHPOWjg915nbbMA5bErIXHjSfjZH3excpNQg4vblFmBDMtj0NxaxWwLe3zRG9aNb8eFWEadcXFWgJmDeOWsaJu+JFS1ylXq1dBoLNDj+0zFodVYxFfdKB6bE23dD9BqjKLtfirfyUqM1f2CrX6M6kZlbQKftdCvonc+1rXzBkjA0eJ6VRzzuf22ITh2r3iBPF4o+MgFPtaVuWgiWK+sj4XY6hWYgHYc/i2xP3bm3nc9dPz2ucj4Yyfr8V1sstSL+/ehd0b2endtv0U6Xrni9/jyx7ru25ndZ1avSB2LsNp5yY8X3k44DbMrXVZuFwrjsa7Mo2oBsI6wkf1DAEU1yvbO9oLPU3J5Igll97wN6uRnQyTqNp1IdDpVJDpdbrICrrynPlMvfRlTJE6dsHPh60P8s8RZLptY7UiRqNt0InGz4yzn1FnF244UiU4nJKx2DiYSnU4ViU6nisRv+7hdF1IkOp0qEp1OFYlO50+s9ZI4y1lFotOpItHpgojAZ0aqSP32hpVFKyw7BOIM2DAIA4eai+felu9cqqVaryyQHW/CshM1fNfrMr0uCkkxHouSur7EyvolHV0j+HhbHqNrRBOwASb29RbJKDu33lup1ssdsuNNWHYQTOJwB9zc7ZUNqlDkVq/L77ooJMV4LKJ4fRGINmBjTy/VVwS97pxzqZZqvVwgO96EZSdq5Fyvy+y6KCTFeCzo+oos7u8St6Q+CyuXalhlvHOyqovOHNjqtamrg+/LvN+kYvrTaCxec5az+iwXuVnL6etlXbSir5fTnv5YmOWSnu2j90+P9M8rZ+3CQjP3J1v+4PNsv2hn1cEjnotq/Pgn/TnxHd2iH2v7OO35bWc9ubffOs9rB3O347mxKqQ8zX7bGbGcfy7Xu76+zvNZ387WMoi1nL6MRPh3jtcr+/ncUsB2Fj6vtFy/KuJYoM+Y33304Udg4WgO7xJfst9e93Y28eOPHzv5LgTLfyGZ+U71fCapfcDfBx5O5jLP5B/Y4LUPHY5mD8lyUlvBixgvdrfkH2q99D9ITsIuh1h+MCW2egXer0v75OzfjVe7tjPi27/rE9xOtpziWe0p9Rpz/cE0cbUXVjt7oD2+NsLer992Ruz+6a730P0L2n55ns+L7p8O5jPmd3/m2n+FtZtyS/6xZL+9Lu2cM2HZWURKLmAXK3jR4cVE2bqckH96yD895J87fv0LMx92UYKPM+HrOzm2DFpyhKyUicfjIiEJLtCyPQrFs37NNmQyh2W+z4OiJuMW/z5uSUFKyTJWM2VmD8tk4VL9VDOF2dGWM+qjy3xmC9hemcuwEyFNm9m+hG3M5OVyD5sgCIIg8gVfXyozW21iwW3akkFLoL7idANUzBgRyzci41aV8YpUNeMWJ83sscAuMniJTGH8JTNxJVhnycCVIUs5beYzFRbs1ZzmrXEzcxnPtobpU1HX1gTT/SOsZvgV4wU5bHvJB2zs4XqJRKdTRaLTqSLR6YKIRKdTRaLTqSLR6YKIRKdTRaLTqSLR6YKIRKdTRaLTqSLR6YKIRKdTRaLTqSLR6YKIRKdTRaLTqSLR6YKIRKdTRaLTqSLR6YIIYQUDpWMKmmfpsmXjygX8PhtD1/Dvg5FxS3lnd0YnXt+qI1sGLknWTF3ZMp9lMpcJKiqkPyLbWlxWAt+mxstNgXiDqdhOI2zisoFyZhNEocFXf8YgbbzGU/fObbcsXbnBRtX8FaJM+NT4NObxEGgzZGnwyMBlIWimLg5ObxvfZWJOjdszdlmRr38t+YCN96K8RKLTqSLR6VSR6HRBRKLTqSLR6VSR6HRBRKLTqSLR6VSR6HRBRIKriFu3J2HwiWzl9HopIuPSkKudXEWi06ki0elUkeh0QUSi06ki0elUkeh0QUSi06ki0elUkeh0QYRg8NGimALm70K3TTW7ZenSMTvrkjgE7yUb+xCifxe3J34zcAXN1MUQmctMX83MZfaMXSp4n1uUpxE2cVkgsgVRzmyCKCh4z/ekuBcrqbMvBsbpY3s2LpW0zOAlpocdWL6PQXGIjUat+8yG3wxc+WXqsqNmLjMydslUXrzdRIKVGuU+NwVs4jIgrNzJxZiDmSCWEDa6XtM0nZmuPj3OPjseo6qGxkw2rnMsoit3f6sbxcIsPqU+CRXaXNoi49a0MW18OglsRJp91Iv3j8eTp0UKTb8ZuPLJ1MUojzXwzoWYUrdmLuMZu2b6uV01o5i6nR7rMhaGZJu+CrscQo/VOFkM//Ce86aybjjmEWj97BftbFw4yu1cTu2HkH9O/Pp32T/WlSP80SZcLR30jSglDI2wiRInSx5i34RlhyAIC3z6V4xY+ahVyRNNWKGATZQ2PFvQEH9VYl6EZYcgCCvKojQuOUwxX25QwCZKGMo6RBBE6UABmyhdSiqnL0EQlzslH7Bx0YeXSHQ6VSQ6nSoSnS6ISHQ6VSQ6nSoSnS6ISHQ6VSQ6nSoSnS43iUHrrrrMqFhfxhSJUyfsjHxtgH+WOMsFE4lOp4pEp1NFotMFEYlOp4pEp1NFotMFEYlOp4pEp1NFotMFEYIIExphE6UJ5fQlSg7xlizdK67xmd4R/tyu8WnkpHhcKSxwYZjyvDHa1/vhA82z2UQ28NgPlX7AxsczvESi06ki0elUkeh0QUSi06ki0elUkeh0QUSi06ki0elUkeh0uciqP1oL0weHDGt2ey2w+ZXfgXcpcnP3HVzE5xt5PmTVjvyuxLSVn0h0OlUkOp0qEp0uiEh0OlUkOp0qEp0uiEh0OlUkOp0qEp0uiJQK+A5tkO/J5i8wMd/dTRSAS5OQhhg9hy2nrbJdXGGXQ+g5WCeh+Kfk4h3PZ7+anL6XRfspkH/u+PUvvOewRZrF2bommE6KVJIi2xTw7WwAjFtg9WqA4WHxBi3UN8yehtGKJqhi3+FPOci0j4iaKlJJS4kjaDVXNH6erFFSWZ4HWMNXc+PIvt+wG4d4ahoqZLpILOdIeamU99zG0H6fwVNmVkBTZRKSYsfQ2lYBo0ZZS7pMezlpw2hL0WZMk0llKepqNonSVp7+TENdehzGHWk5XfbDbbGNMfadtGFLORaWFKO4AXWTNTQlTpQg3T1wLIzE+WHZIYgQSbGIsQYff2qNw3jyHKQvlUOsqZWFEJFbeeVKW+pIxjiLGBX8fdSsXKrfmM5mgdIl9WV14yYlq5Z1RK2OtqdGWKA13q29oWJaeeyR2eZv6xK2zZSX4q1kdZmAhwGtH9iHjA/93DnxfWB1sH7fIJ2EWdaBECkzmY7nm2afeZtcZN82YOXSrOORsWHM4/OUlfKd3vwta8btBBYY+XPguB1tz8jXkLrVxwBjL7aj7ZE01/1wxqGKp/3EdsBj4Z5idGqS6dgBoIBNEARRRGRN4agj3mAkw6iGFU115jurFbSpLxFMXxmvEaNJFqImWYchVs3DNQvkrJNQLzT8tZv8P0bWlJcGONXLRpiyHPrAR7SXLsE0+36D4Y/4vnynOGKmzMR3cNc1rRD+La9gnQEVm43UJPN6Di7NMM1KI7hWr+B5stNT9nv+2BEyZguy1qcKljuSjWTbTx1UyO94phg1O0wUsAmCIIqI7CkcnTgSbnCyp75EMP2l+X1MA2kEJx5UvWCjUPkGMz6VrKS8lFyaNaaYbdi3sx1acnr5TZmpLWdPZSmCPqe6UWQUM/y2LtzzqE+u++GYQd4zxSi2s2GfAvZlQPxBXFB1A+sfEgRxOTI+a44FLSkqs6S+tI6oGepo2x5E7fhJeekYERvYt2ftHLigjoIznQB7KksxEpbwUT73dwPExk+bq+FzTuHpvR8VrxSj6i0Ia8De8AL8y317Yfc+Q+57GA7eYuiIoiV171PwYsdR5f7S0lB+03eh9n99EmJc/gmq7zxvaALQdgKq/0La+iTU3nNCTDvlSgh2anfeAO3GKvObu7dCYne9oVGpZx2nrZ5lfNnZuVkpcwe0P7gZag1VrtTuXAvrHsR96jtz/urlh+x1R2p3W/e3rsNQ5Ei2eiGh7MvHsQirDX3b6VgLiQOyHPq0VvjEp4IRkaIS74fyhU/ZUl8aq5NrjMAk76UKrKkf59Kj5m+M35SXPOinQM7Q83I40je2y3vqU2NsRBsz/fCPaRt9Z84zr41UlheMGYWpi5BM1/FOCd+/pdNiTFsHSuHpvh8HrilGrR2m8vvuu+8zQ187BXDLk7D77p9B61Mfh//+zf8At/+/bXB7fz1MpuOwZpSXLSpwdWa2FZwqflaFImGWQx+XLfM3yVEK/i1rXQYLhz4MU0+8G2Z6Z6Dy/d+E8ovvhksDRgEFb3ssyH7ym7Dw1F/C1GPvgZmf3ADzFexnaaAWxBpfJ3p7wg78eDdMPLqD21moZP16DzsS1V7FNWUw+Y2j0PuZXuh/vgpaPt0JK4Z74fxrZvvV7n4XXN0xBMe2/Tucfn4W4p++GeKsTOp1rub23OzIMkhZ5Sykv/canOZlxmHFf7sG2trHof9Hlrm3LO1XD+sOvAsaRs/DcPcKaN3OflS+OgSThlbC/fm68GfAxR87uv1a6v6zGV73VXY7LCDd8GcAfbsOs/0lYbI9AevfuwAX/nlEuU/ojtivqFfjxRS81RXT1ouX0+yr7f1lMPJ/U5l9ebefYGH5NEz84Jeex6LiGnY6ffHfIPUP512PqR/EufEyvL775/Dmy2wEuAftHIeB56agvCEGlcvKYG52OdQ/dg1UfqsLfnXvUej67KuQamAB6thbMF1TA1MDA5AcGYNlTRtgTS07L5dVQk3lBXjzzSSMjIzAaFkcWuNiYROulB6eW8lC9SQkF6pgFY+UcyzmzLIRKO6PuwXLa2qhbKAfBtj3Z2NxqB+fMfxZDjUrKuHCm2+yfTLb45XQ1LYGcLewbB5mR96Ct0bKoDZeD/WWcvXQeuVKqATx/XR/P98+Nsl849sZl6ZgZLocGmKV3NdLUyxwljdADJ2an2HBbh6qWWBejuUWaqBmegAGksxGORshr67l31lew2yN90M/2z4yNgnx1vWwkhlfVlkDlRffhKFUGi5cGIP5lc0Qr+bfcK+PxR/2/8lhmFsh2shtPxY/2Uduv7YMBvoH2LGYhVhjPYzPok2AyeQCVK0W5YzHuv4FDt73Feg6/nH48x94TZym4ODHvg9PXi1+Ydcdfzd85Bu3wGr+CWD4PQ/DF1ZfA3fC66wMwE1PbAPY/s/w0uoWuPPLH4Xtp1khNor/0p8+A2ufuB+uu/ZheBhtDXfCnd+5U+gzeO9LkIJfsjLchsG64x+G//L1TdA4Zz7WNfyeJ+HbW7rgLP/QCR9l+3qHsS/xGEcvPP7F7wA88WHDX9QoPjNEOfcLGVMvtt+Vhp7rX2ZemeVw+1XQZUntiL37q+5qhip8LKT/HPTez0a/lhdzsF5ydyfAni5Y2NUB8fVobxwG2A+M+QIPHLV0QmKrmHNB/yYOd8EbfzYkVjXjI0mPJswe/5levuLZ+ZgT+5FjdloMOxOHe+HUvWJltHhspYH9CG6BhkNH4NQbCbjqgWZmMw0p5lvv/rGs7SJxljsPlX+xDyrP/wGkv/V2Y1v2dkbK7/wnqFn9W3DhG4m8HvuRdnD/wethB4PGFmjp64Ln/+Ss4Z88nk+xNhOl+PmybQhevfNXvK2d9kw7L9476LpfvN2RYOcXlkH81gPhx/dD74SbH2BXgMsMjGlvhcUfO+77tdYdy2Hdr9uetKzAl+0ht+Hnd/znC/DGja9o/ZK47pcFZbVeajndvvDaxbLnXevhxP5Yl/1YILhf87Eu6zENjt4Or0dbr8O2/RGtRYM/loQLvuWjU0sM+nNBeTQqB+bFaQCsH7Qk8EfLNClGsX/AguivoIsF1c5u77ucv/zYV+BJFpDv230/7Nv9cehc/Qx84WO9htbg6mcg+dp74aPHB+ClD/wzwMGPw53DrGfXbOg5LQDXPglvsXJo56PDXfDkh16AYUOL+NnX8HswWF8BH/0ylhHlPvKTuCWoJ+98CD63uRF++x8+BZ//xH+Fu5O/gId2PgdJdrHhBafKC+/9NryQ/CAvd0fSqZ+fn3dskzL2+RNwbm4NrHyfur0WVt46B+efGs1sq/rEb8A7bmW92o88CS9cdwhOnFoDGz97FQ/e5veErPzr62DlqV/A8+0H4c03rLqqT1wHG3/jApxgdp5vRzkIvf/7IozJMi8fh26+/UnofuSC5buqrPzSr0PTun6j7EE4v24jvONLV3Cdpb5se9P6E7xc9yPo20ZYKXU+Rdd+s8lGxzZveQsgcQqmX0l4Ho/sYtqR2/KzZ5WxUxdMe+01UDF3AcaPK/pedkxacbu5TSdoR/5v96/qfVdBEzsH3vzqWct2vxKkvqo/dtHa81n3saf6Yax1I7R9opZ9vgKabq2B4c/+gl1TZpl8Rfqn29e5z/xcs68rYOPLt8OvvXy99lxX6+t1LOxM4PO3DrBjg9PY/teaWO1g+tcYpJ7NpyOQK/hIlrEIC4U/IhaRYJ0HGKsxYEspCPz2hNmWbilGRcBuHmajzyvgCssI1wYbGT99NRt1fkeOcuOw/TvvhnVXH4KDG/gGwfC74bdeME45Ntr9vRfEv4NNaj+ZjYhfYyNqXi4O7/gJs7P6dXhN2vG7LwcsWJ9WT/cUHL82CbccuRXa3yxnveE10H7816C8aQRSrGeMvWOL9HwE/p6NthzbDcHpTd12IW/BhZ+Vw5rfXmduu7EVVp19AwaPyTINsOY3V8KFx07BBbZt2bJxuHD4HJRvXAl1GTuK/OxV+MWfv+XcrpUJmHp1XLPdQ268Gq68bRKSn2aBi2+bgMFPvwHTt70d2m601re+/By88fcT/P/pM5Ps70qoZ2UytnyIpf1uOQI1Tb8O809dYSmTXUagoukqKCt/gY0o/hpW/t3fwMq/+gFUX6Ur6yWmnbq/YjaYnRW7vx/Ajk0+9Ha4cuM5SLK2ytT3atZW5ZMwnTkPmJxin73aULEjt0l79Z+8DX792J3Q8ZlWmP3cq8r5lZt4n8820fhjF609v3U/dgr6PncO6u/ezurGrtHnnodT383BPx+S8U+zrze+5yyfTdCen2ORYWcCWtYP5Z9TXWsnBtXr0zAFm8172AdY8O/Ahc/qM9Vhgo895bIIq8BUNwZK1TmnBGkM2AWJ2T5TjIqA7QddUD+9mvUL7aPnANjt+NzX6h9sg5vY6PzhP90LX7rvSTh4i23yjM8cABvpKwvpPtDFFG/BW5rAf9NrCeM/1kH4gjkd7pfUs0MAWxOZBSy1tzfDlNrjxfdSr2fWHzAXhdz8AFYoBrWaRS9mb3kMzu5Qp8NZ73pfL6TONEPi0TugnV2Y63YGWMyyme0X0jChTsd340XPLv7NxmcD/aggILj47P1JmPnq+33dn3TSB5Xb2IW1//OQ/tRumDn/IlTtfC7nCzM8Owa4MOiBGAzsynOBXxY7E/sOw4sdT8GxPUNQ/cAWaLctQMKp0cz5ZYi9TE54+BPavjo2w1W4jz1dMHA4DfG7nPUKDd/7GoRe1s5eCzazHQsEA/v8+zuynBvZ98XxPDdi0HI3+924H+0cgYE+9vuwN/iixMsRHqxtEVoN4EuNCNhDq2GdSxCLNgn4vS/cD/u+/GHoHH4LnvzAV2D3fdapdeSmJ+SUuZTcg7Ev9g+xiygGDbfjRYtTVGlIGfcsVVJ78IJSxRqM/cEu8B3su7u6YLSPXajsx+LmA0VwcbY9x4P1pa/+Ccz0GdtyYjXMswM8f+JqmOXfXwUzP90B86tfgfI2XsAnYdkxwDUD7Id01LLOwKCHdYrsnTJdZwnxsmNjYn8PnHosDbXbcF2BiQwiqqhrKHIiiz9Z9+Wr7vWwbi/rLD/WBWf3D8LZew/DMazXXZ2BV4q7szj7cjsWSOVN18Lmv6rwdUw98TwWrKN9hvlxiP0GcR3r5D/UCxPrm/kom8gOH03rgjPbFpWgLQK2MXrt6vDo2+mC+oZhFjZaoMnMsRAMu51c93U6Adu/8VHY90Qn+x1WptZ5vezT8YvJIKQOs1HHXQl2kWCWJwzgCnz0ClC9McSRQ7f40XmR9fAh14tT92PawUbXePH3GJ9D5QRU//EBmP9u0GCNrIKFPJ4GMwnLDrIWEo8mYGqPyw+yZtaidmMM4Iw4H0yy2Ck4Ifjjq+44nWv8azDxtLF4MnQKuS9kLVz3+HWQ+tS/5nlMsx2LMZgIfE0RGI+97ldjII9C0DamxNlIlQW7s1u+Al/6WK85Qt2QguFM8LsFbj8+oCwOS8HBDz0DZ49vCzRafWn7C/BLbltjx+e+hm+RNpAU/PLaLrbxGrg2UyYBv3WkhdXr+5bp8uFblDqGTAp7tdAMLXtt0+GcQRiQvXllChufG811ZFy7c7MSnNlo/rZm9iMoe9c+6e6BgcNsdJ6ZNhOjj9rDi5NOsuKeb8Ly4R0w+5KxwRUW2Plz0d/VvD0IYPa1m2HZrQehgo+Ez0PFbx6AZcPXw5zjByssO97gav34mV4Y0MymCMRxj99ttHPHWmi5KwapR8QqZUl2O4yOerODZdjBUdViBBxf/mTFT92Nji4bnYpzmp3Pf8jOw1zPZ1/ksq8sC8F8HAtsw/WpITj+8EW+SM0d7335ORZ4S04MFvDTYrZh6eFncRkG7YItQnPBkq0LA+C/bX/GeKwJN7TATQffC78nF5Fh4Mz2WNfV18B9X7gFzn1sLzwMH4Z934hbHxnjj3W9DmuPXMNXlOO+3B7ZyvZYF+7v20x/NuOAeGTr6jes2bosj3Ux1g0zW8xH/Jp43EM+1nV/ZpGcHdfHR2wsLMT4IxetZSddE0dYHusqL4cJdiGqGaHExSsehel5XL9fvHd41TY2OjZGCwt9g4CPh4284vSPP+5hPMaSz2NdmalO/sgM3kc7DG92+W2XYf4YV9Uaa7n553bDxJOrjE+ynU9Azee/BcvhZpj+lP4+d/md34XltzwPFaz95k/sgOlv3SpeTmDhBFR97mFuZ+avP+Bqp+rWF6GM7RftzDyyRWPHxHkeGI/Y2Edtjx2B7s+PKouO2A8oa2fxGF4aUo91QS9rT9Oe8diUxg62e6bcB2+Edv5onQAf5Tt172Dm3PF3ngqfm1qtjyVx2LkozltRZu2VVnvSHzve+zXrvrAwxut+8ov2NRG285D58eanjvPFmV5Y96s/FshCn0jkMinL2fY1cH8PD2xWe+I6jMOQ9rG3ufddzxebuR0L3E/rD2/l/pw/f57bXrNmjUsbeu1LXy+dHfnbgj6p1zLhDgbhXAJxOTs1tKd5ASh8ek3lOWy34JgveGGoAdsL7x8ak7DLISIg5vKD5A75p4f8c4f8c7KY/vX390NtbS00NjbybcTSg0dnzmviw4XyZeyYGv8XEv+rxAmCIIjANDU1wcTEBJw7dy7L9DhRKLA/hS9HkeKGWgbF6IcVnJIP2NjD9RKJTqeKRKdTRaLTBRGJTqeKRKdTRaLTBRGJTqeKRKdTRaLTBRGJTqeKRKdTRaLTBRGJTqeKRKdTRaLTBRGJTqeKRKdTRaLTBRGJTqeKRKdTRaLTBREJ/o+j8ZaWFj7a7uvr49Pkk5OTFLyXEHsgRrGjK4OyFBR+SrwA4MWB01U4Ja5eNFHDz5TaUkL+5Qf5lx+l7N/s7CykMb8zC9gzMzMUtCMAP5b4zLwtZPDgbLzVbqkp+YCdDRnQi+EemBfknx7yzx3yzwn5p+dy8U9dgDY3z/xbVu45oi60f3QPmyAIgiCKAArYBEEQBFEEUMAmCIIgiCKAAjZBEARBFAEUsAmCIAiiCKCATRAEQRBFAAVsgiAIgigC6MUpS4if5xCXEvIvP8i//CD/8oP8yx18fY18Dnt+bh6WlS8Tz2GLTUsOjbAJgiAIogigN52F9AYaid9yiJ8eJvnnDvnnhPzTQ/7pIf+s0JvOCIIgCKIIwDgpA7SULDG2gAD8f7NOW/jUIvT5AAAAAElFTkSuQmCC;" parent="1" vertex="1">
          <mxGeometry x="281.25" y="310" width="237.51" height="70" as="geometry" />
        </mxCell>
        <mxCell id="230bwB02gt-Gy7RUY72W-9" value="Luego, la siguiente linea de comando composer global laravel/installer" style="rounded=0;whiteSpace=wrap;html=1;" parent="1" vertex="1">
          <mxGeometry x="348.76" y="400" width="120" height="60" as="geometry" />
        </mxCell>
        <mxCell id="230bwB02gt-Gy7RUY72W-10" value="" style="shape=image;verticalLabelPosition=bottom;labelBackgroundColor=default;verticalAlign=top;aspect=fixed;imageAspect=0;image=data:image/png,iVBORw0KGgoAAAANSUhEUgAAAnwAAAGHCAYAAAAqUI8RAAAAAXNSR0IArs4c6QAAAARnQU1BAACxjwv8YQUAAAAJcEhZcwAADsMAAA7DAcdvqGQAANQxSURBVHhe7P1/aFxXtviJrqOSbKfjXL7vj8SxFPuieo7w98XddtGEdnqcy4QaOYMrKKQhjN2NDIEEJagV2irG80eDJQfu+yOMlEsU4WiuH+FZpG1oiKdFpCEWRWauNR2HzEVO4maM7FeibUuxkz/mO3Tnxo6kqrfWPnuX9jl16px9qk6VqkrrY451fuzaP8/ZZ5219t7L2r59ex4YhmEYhmGYpqVF/mUYhmEYhmGaFBb4GIZhGIZhmhwW+BiGYRiGYZocFvgYhmEYhmGaHBb4GIZhGIZhmhwW+BiGYRiGYZocFvgYhmEYhmGaHBb4GIZhGIZhmhwW+BiGYRiGYZqcSAQ+KzEEk0MJedQ8NGu5mNpgWcdgcnkZlgvbHAwlLHnVHBXP5LHwv9WJKj/1zLFJKtckHLM2rlzNWs+VlCsxNOd5/9ZDe5lgUvbN8HwxjY0Q+IRgM6fdqHN4o4Z4ueTnT8MM9Pg+tJTGHMatP/TWscm6fihMyqWwrAQMUR3ODUGiRPigerY7P/e23hkW0tCv+6THbCz5/HnobW+Hdtw6UhOQlec3inrLTzU430vl64Xz+Y3zGNms9VxuuUgQGuyehdEL8oRGrdrLfteUL1ialH0zPF9MY9NCD8LSdB/AeErcqOJmHRiHhesyhCEXpgCOnDogj5oH43Id6IHuOP6Nd0OPR3Djes5OQKqjoxDGqzPMTthxdKTSkIE+mD53VF5hGIapLw6c6ofO2SmY30AhnGEYFPhO9SeFANF7fl6ewi+V+fNwfj7kw3l1Cm7u6alY20RarGOTcw4t1tzksaJ4E0OTQmNoa7nwy62Een3yGP4taMWc2kSjtAzLdaCnG2AiDRPZOHS7JD5KJ7J61qDfj87id2RnV1n17qhDj7ILjaJWP3OTTm0imWmW8Zwdhkw2qq7X61nX7BbqGtur2BzinxZRy3vDBGeesfxDVNZK4/Euu0LUOYWjcrnLjR8Vc5oG2C+eSjGtw6C2INbbVN5DWjxelgFRB5pmW4VR5S6l9Y4yz1Fg0l4meQ6Kx75nPO4XPD/nGrISddkp/4PdizD+1lV5xqy9xDOBZaL8ifKJsHR/OPMb1Ceo+lsaSeJREkaWljzTrOWzQ9Sqj2IYnZbueBZmp9YfxlKoG7CUWjyfn4e3ZvbAYIXKpgOnxmAkuQjplK3l6uhIwcDodcfXIXVU0903YRzD0PX0Ij7IY6c8H9DkyAgkF9Mi3IRLx26Slkm5qNMheW926gJMoQAW73YJiEL7Z1bPYdm7Jw6wuFDIs3VsqKhT9ELUYV8nzKbXNY7ush89Nw19nbNC40h1M9vpoU1M9sGemQFIZ+KirkmDSULvnr3yugAr/sg56MJwqr36XO1lklYt7w0TKD/reR6Am919QEresBjVM3HkFPQs2HU4QS8vd5jrMzAwIOsmlYZFbJtKn8cg/OrQpC0ojGrTjtQ43OzH+OQ1U2joxSF5D6cMGrLSPEdGiPbyvVcD4rn61jhksFaPaOfW+6z1PqkaZbe1e6MOK0Wo9tozCINdoyJ8aoLqYdDx/gnqE5SZtSOdwaMMpJX15NBpR79Ry2enln0Uw+i0xGERFqKSQy6MYocdbedIAtf8/LpWzO6o4pAZf0tox+j6hRl8mON7wCFjKDJpaO89Lw/8cadVIKhcJNDBLFDfeXVqFrJus+7ePSgIGNZzHF/26itUfOGVrkv6Kh1JZmFCHxxzYQpmjozh12rx17BC1WF2YgBOaxpHRz3jV3g/xT3wlugYheA7MAHZZL/zKzM7AaMXZMGwro/LrHR26RWAYtDMcZGWaK9RjEerI+O0XLjbq5r3hhuhueiz03LkWV43JVTZZ94q1OFb41iu5BHHy29+/jxu8iV29TrcxMw426EKlKhDk7ZYvw9RIKAwmH9RrmpTQZ6jJFR7+dyrQfGQ0EPFSOoSH/VZi+NwWv6uGmW343Rq98IShxnoPW0/41cXFvH/TvC7pSnfnn14ALV6dkLXcwV9FMO4MZ6luz4gtfQAW7p53xqvTMsnvkaz+MUzvYRCyyQMuYUWOVYuObIuFNnqeu+OIDNjSyCUt9OHDhU6OCIwLUlQuYQ5V41RuToFsx5mXWNcY/h6zxfXdbxvWpR7eqQTJlLPOspEeT3fewiefXZACH40MaRY8NsLtmLQpyP2ElKvLuAZt/auDNzxGKZVy3sjkANdGGsWboYc61pERfXsLBe9TJRpeGlpGlAerTol69CoLQzuwypQWZ6jI0x7+d2rJvEIoUL7iKA+a1HGKahG2Y8OolA5U9GEjGzAA2bahwdRs2enln0Uw7hoyUbdmV2YAahAyycEy0O2Wn12sRP6RlC48RjjkUmvC0X2Fv5hME1LUKJc6otNCWGqs3CYda/fRNEgunqmsYAdHTRho7RgSR0ECX4dA7OYb59yNRC1vDcag3VBke7DU5fx3uuctc2jdWIC8m0LITTXH7W4f6JqL+N4sP9S/YXdZy2CLu8poiq7yFd/J8x6Tc2NkFB9eAk24tnZPH0UU0+0kCahbG2UB/QAjs52F2vDhNbCC29TJ5l3TpPAQmMvdBOpjCdKdXvJtDRKlou+2MCplRNT8ovyHH09H8f8xvvGPM2e1InRYOalsW57ZrBjzIqBycJLSI1Kq+WOJ2Ratbw3SuKlhRPaupCUWc8HulBUyt7ElpQIzYFtGiZT0YZj0hYyTFjEuNVqUMv7J6r2MoyH+gthOewbhKP0G7fmLeqyC+3eusm42pj04SWp5bNTy3uMYVy02ELDtHNmUyIBCZcQETRpQ4fU7G5tmOpwkvK8/QWYxE8dZ8eTODZUmLFEYY4ewTBZe3wcIQQv/PwSgo6mvk8cK56tGURQWm68yuUw5yrEQ70u4K0LZ8H1HIb8+V4xWUKfAKEEvcuXx+DIzAAKeoccM4MJ0v6JySVYh7q5N0H5kfHQwOpxLW7RXmN9EM+U14lTu1Nde8VjmlYt741gbKG5cD8nhuDcEcyOvGpKmHou1GHCHj+Y1e871z13gF641TJLGWDSFkV9AtbhqS5XHbpekDS78UjoWjajpvdPVO0VIh4xdhaS0I8fgQ5zLhJl2cU9XAPtHmHch8sPqyNH7XpyUMNnp7Z9FMM4aSGhIZWegMXOkcJkgaWxMRjc6/FgGCI68sVibdiF4ymYwPOUDpk+uxcnIKVG+Su6urFDkvnAMCOdGUjLAe2K+dOHIDWxCN2kvhdC6DKM9eObIiwGaem4y0UdjHumGyHCiQ/NdbOucT27Jm3Q5jdx48LxNGTwN2NqrcCjPULQO+Qh6OmIOkwvQqdeh2M98qqNUXsZkYXMLMARrOtS8dTdvREACc1vDch1EDHPlwcXYHQGmw9fHWGHpJnVcxYm8HtD1OH0CHRm0nBIDmYn6J6jjwqQQwvGjszAgDx2L71RK0zaQty/Wh2+tUB1uI54QRbKNQeDC6MwelNerAK1u3+iaa9Q8YjxxVS/3osgR1Z2oUGskXbPsA+3P6zw46JQtnXFRa2fnVrdYwzjxtq+fXtVnkr6Wr88BjDwbGkBqhFp1nJVC1Ff032wmO7wnIDSTIjFtUcA0h3HKxqovpmx67B4MhLTOJCF4cjMs03/vDNMoxGJL10vxBfVYsixFA1As5aLCQ+ZVpVJnva9higwzGaCPvD6O701iAzDbCxVE/gImiXajF/pzVouJhwH9h6BsWlpTpoege7FdJkmb4ZpDuiD+JB7UWOGYeqCqpl0GYZhGIZhmPqgqho+hmEYhmEYZuMJFPgsy4LW4RZo+1VjTxm3ftkCW8dboPUfG7sc9Y5fPbe8YV9r4eUHNi0tv8K+5JfN1/6NWK5mbYuoaJT62ah+le+fxkOYdK1/xBf0K9iAj8qz3wGsXcrD6p/zQuCLDVlgfZWHlY8a1/pLgsiW32C53sZy/ZWt2ISqk5Xf5iEX0ZibRqnnapS92tQyz359QrmIj0fsS9ZO2/kXaZzECx9i3yLjbcTn1F0uheo7Y7i/4rqmCKpnepm37RO7DtQ9UEhD/Z7AOEqlp6gkz5Wi2l3XNuSu5WHtffxbRnpV6cdc9VNuPTcrJe+fKvQbTHS0iIeFOl1slAf9ObH9+AE24pIdgGGYzUW1+gTrJQsAPxyb7QVZsly78UOZXny4tey2T+kY1zMJFijMqDC0udPKZezrP6KgnMPjttft86UoN89RkkNBX+UZ9lmBea4lpeonbD03K171w7JE/WP9p//xH/J+2jv1ZUNh1u7iPn5J0ZcZPazqq5xowcaOHca/UrLPXUPJ/v31G8I0HhHuddzkV20ug/8lAfKuL35SJ8fwvPhKpA6RbiztOsVjYTzq63gN46Hw5WgOHGkh+teol5ZCqLp/5vz6E19E7+FDguHgsFWoJz0/JmEIv7Kb1LNKR5WnQBlfrEH1XPQ1XyKNKMqu8G0vw7KLetTvQ9f9TATlWZV9zaV5EPm767zv/Ygyz0GIOOT9E6VGX5TBpRHwenaUtsb9XOj3GOGlEQq6N1Q9Bj2DJmkpvMqlEPmBPOR/Vlyf9DuTehYavh3ezwzhFQ+l6+5/dMrOs9Zea/tlHWE9r2E9F+ovZBi/djd5p5g8F0HxuPGqH9N6FuECnsGg/Ih4sc3XcJ/iob5b3a/uvqVQdleZCT3PUbxzFab140VQ/YQpu989RgSlRVCYWvUt9UALfc3l/10e+bEDK+5xbEyU2lfwhmj5DRYKC1lgCSsJK2H9iw0b7Bl5TScgHvpyiFEHhy/JH3HL4wPlfqDVg0aVSWFW7uGX1iuueKgRKR4KQ/nB8OUg0qKbHxtSfbWszThvhjCI8t6z872GN44XfmFMyi7wqec85p3O//ihOFzXHgwXaw6CCKrn/F8xfVlvlI8gKi17UHuZlp3K5bgPcb/U13zJPN/C3+Fx7CV5jFDH0EJl+EyeMKAaeS6J1PCY9AlUlrZxs/FDJTVKBtBvqUOme4zKLerZ9QwaPxeI3z1mkpZOqXKpdqZ6zH2FaaIA5chLiHoODbY7YPkiz7MCX7ItX67Xc8yrnk3C6HyG+cE/Vod9KAh4pxj3Y6bvJonxvepRz0bPoEl+8JyF9beCQgrdr6Q1o3tV1U+ofjWCd66OZ/0Y3s9G9RNQ9gIB95hJWlSWWvUt9UCLkPhv2Qd+tOBXn5Lc83fFH4fKn6TdgsSL8dGLDh63D3X84qEOh6ToHDYwVTg90Gsf4LF9WaA6JREG06Mw+S/xgpSoCREPNmIhDG5rl+TFEBTSyqCUrn0R6ZJ9aPDr4cGZgN+XCGNSdkVQe0VBVPXsoIKyR9Ve9AVJ5aJO2XEf7sOvOK9JPyXyTL8renE+gx2jz8u4XELnuRTYqZr2Caaodlm7KE9UiKhXrU3DPBcCk2dQ4k5Lx7dc9ALEP1SPQoDCvDievzD1jL9te88SgjVtfgPlSXtELzB6aXlRUZ4V+JKl50vUM70cvcKZhHHhfmdQvRfq3uedEkSYeEzvVa96Nn0GjfKD5wofhXi/rqr9Mspf6TtXp2T9GNzPxn2Uadl97rFy+0MKV2gbRJW3Gn3LRuAnyDvIoVTrB1VMq5wttAU7J8fgVg3feLDDIfJ+Nn/5JUGStOoAyRRAFDoUk3gMobRAPiRRkKObBaEbZxW/RL3UvSXDmJRdEtRekRBhPSsqLXsk7eXVed2y81H0lYn4tWn+InYUlG/VEe3HcyVexhURMs9RQOVVWgbqVEtSoZAr6hBfAm0n8Wt8uAVa3QJPiOeCCGwvv7R0fMpl/Rz/U1oQqekV58oBf1vQXpGWRvuYUbQk7bK3YblJE+HVrwiizrPJPVbmfWj6TgkiVDwB96pvPRs+g1GVy5SK37k6lTzLhvVTFu54DNOqZd9SD7SQJO+V8TDQDUz2e6E+lWrPaqszybavOkC11VvlVgsue+OUnR78tWsAsSPyOcFnxNEJ1RvY8UfRJyhEmQ9jPVQg5ArBEjtPMn/l8eUVo84XO2e3SSWKe8M0Lb9y0TXSCijhQL3UHZreiOuZtNrU71KcpYS0ivNcZfSPNZHXCN4pYeLxqx+FST37EVW5NgLf+on4fq4Vtexb6gESgsv/8lRIKVioTyupBC9pX0rqBWQYE9V2xV8NSFlmBHyYq0KIsteSKOo5EMOyl9Vebrw6r7BfwhrCBLAPO0vTsUHlEFWe1TNYaZ+gkBoBz85RtakHXkIxDRlYPYOdM43ZImFElbUKz0XJtBR+5aL+EP/oWrkf38YyeeQ5snpGhFYB80tCm6fZqtI8e2Fyj5mEwbxRP18IQ/mJ4p0SJh6/+tEoWc8mz2BU5YoKdR/6vXMVBs+y7/1sUj/l4o4nZFq17Fs2khZ147a9sf4lZ+FN3OJj5y7C1dgW3RhYaeVAL+wWmuWCeSE7fOt+u+EU9LDRTFDxsGnq1xbcL0jlmB8RD/6WzolZUdhgejwmUFpiDBbVj54W1Y+WlkDeEDTAk9awqgZGZQ+DfCj8BjD7ElE9m2BSdqP2UviUnQZEC62cHJgrvmxpbSkaT1JOJ/2Z/RVPY2UqGqRfgzxTHZr2CZSG36QNX40AItqUBmar512Gp3EwulBM95VKm8KQWZzMnEoojPK5CEqLCCqX6Afdgr2rjwxTz2HI/zknBrsXDWCPIM8K0V6YRxFniXvMJIyCytz6G6xjGnurwrjS9n2n+PVjhvEE1Y8br3o2egbDlKtGBL1ziaD6Mbmfo+5X/e4x07Rq2bfUAy3ixiWpdgc21HtSnY+VFAuhtVGNDVgp9PvYfqwkeRzGQ4eoXPrywX3KS+sRPP4SM4nHeoeb+8iebWRpdvUYNr6iEI8sk8jPXTuesIi0qCx6Wlg/CpGWXva7eFzF8XNBZQ+Deij08QlhbuIo69kEk7IHtZciqOz59+12pHKRecvC/ZX35cWQUD2RICoGIJfRsSlqleco+gQBaTMCNCZGecaPCGpDkQ8MI2aF032H9aqI7LkwSMuvXPTSINOoW7AXzwq1nWYiNa5nFAjUdbX5TdygOiXNnD47PKo8E3QvUx353WMmYdR9TGUGFPb05TwobdN3it9zYRyPwb3qxqueg+7nMOWqBaKNDd65Rs+ywf0cVR9FBN1jdde31AHC04bcr0vU+kxkanB0ugzTQNB6ajFaasBjwH2z0qxlbsRyRZFnof1xrZ/nxiRMPbIZn89SeL1z66l+GvUeqwdIkK8rdBUw7XuZeBimkaAOigZph1l7r9Fp1jI3Yrk24/0Xhs1eP0HvXL5/moe60/CJcWD4daEkUb9V7hmmniFTmfIE4LtUBsM0APTib1YN32am0d65fI+VT92bdBmGYRiGYZjKqDuTLsMwDMMwDBMtZQt8wr+cz0wxpnyEKXC4xXMByHpC5XMjZpd5QfmhZUL4vqxPaDA4zXDzc23EMAzDVIeyBD56scZ+xoM4q4WYuj+cK3YCzjA1Qgln9fzBwTAMw5hTnsBXTY8BDMMwDMMwTKSEnrQhzHhDFqydLhb4hJeJ5LoU6Z7tIzSDr+O2TxzidcDr2lo/ZCam6d+4T2HIfx0ctqDl0fVZjvoMnbX9FrRRXN/h9Q+csyCD0iIojIVhRBwSrxlKjnJhWmJhRldaNBuT8qTyS4SdmSnKj+kUwLw8OOP8vUmeg8ourmMbWii0r93FfTlDi+o7zKwn03jELLDD+FfWSyVt4QfFodph7XGMi+qS2ivoXvVoU8IvTFR1qHCkhXi1qck9FlSuoLZQ6ah8FPCox6C03G1KK9ZTeJ6xzDAMU3tiW7ZsGZb7RlAn33IPX0b/p7PDpvP0ghUvvAm8PoPXv7Mg91+0F8QbKKyhQLfyP9B1fCGk8OXyn/EF8H/Y163/jC/Og7gziy+EFrz231iQ/5/xJbITXxz4QsndxjD/CV9G/xWGwevWlxjuf8Lz+LvWQxj2fwNQqQWlRYg8Y3rkxHr1D5jO/4K//xbj0/NMYX4GsDqO8Zy302pzpUUvtpYjuP0M87SYhx/fwpNP48v5Kob/v+0wJuSxTqneaMvTekh4Ts8vYZTnoHqm/P7XmFf812Jhe41getswzItYLorPDhaIaTwWSgR5rAuR379g/l7C8P8X5hnbU2FSriBUO4h74/9n3xuA+fNs94A2DQoTVR0SIq2AZ8fkHjMpl0lb5DD93H/B+w/josVXV6cxvv8VyyevE0Z1iPehWLmewvzvePzfYloP43XcD/NcMAzDMJVT9CHvh3jpYCe/dlGekKjzwheipt1wfO3T4o34pS/cuOTx5YHb2gcYZh++JPVB3CjYFcYGXsP41L70VVuAhD1Mi+Ih/366k2/jtFxQOLeGQpTrkn1epEWO8KV2pAgPjVy1KcpziLK34KtZuTPK3xV/nM6mDQmKh/JXyOMtDINtXNSeLtzlCoV2b6xdwmMsuxqLZtKmYdq90jo0eXYclLjHTPNM1wpxG7aFG9M6pPuwEAY30RYMwzDMhhBK4ANy9HwPO3Ds4N0IB9DyhedJh52Ywz+fciQd1kenG3c8hmnlL2JZ8IXXdtKCtuEWh3NkAfkPxHLpPhrJ5Qzh9VLP0UsPoRcgTbpYVS/WCAnMc4h6zt2TOxUSFA+9/FvfkPX3HgoCHoJTYLkqpNBeJm0aot2jqMPAZ0ej5D1mmGeTtgjEsA6J/JL4wzAMw2wwxgKf+GI/jB34jDzRBNBLcwVfmj++nYc8vrhj9ALzWAqFTG0P+nOOrRrCnAmmea4XxH0zhBuZ9jDPP/42D2ukVXJR7XI5BGDEpE3rqd1N8cuzaVuY0oj1wzAMs1kx1/BJ7V6pDj3QNIRf+jn849CQRKUFcMcTMi0yN62eQWHjQzwgzYX6ndSMhTV51YKSea5mPZcDpk3aIGFiNhAGSparTCxqO12oMWnTGrd7OWbVIkzyHLItShKifirW3jMMwzCRIAQ++vKnBWvJNOOlUQnS7pF2JvcVRpbEeDRTHDlkVvHl/5qDtWsAsVfscyLOVzAMjdMr4+XTQjMVMX6veEzTohmLBafRFG4/7uDLV2mDqFw0s5DKpZsYW3C/HM0TpeFXzyYE5jnieq4YKRxYPxd/wKIPBxQ63ASVKwyFewM3mhWa05YQMmnTqNvdD5NnxwSjPBu2hUB+OMSesQ91TNMiQbYF25HOidnBKCBSnAzDMEztMdPwkWbAR7tH5D7KwQppZbRxPSR06OTfxxfFPYC29ywxfsjC/ZX35cWQ0EuS4i8Vj1Fa+AKiOMQYJAwjZhTKyQ4KUS58uVl6uVCg2DAM8hxlPVcKCQerdF+gcCDqbj/mTR47PHQYlMsUmhwg7o2TGD8KumpShcKkTWvZ7ibPjglBeTZuC0R9OOjj9HQB1CQtoUncgXFje4q07pp2OAzDMEzUGK3DR8srxL7EF2cZ64tFjb4OXz3kp1qIJS0gX/NZvwzDMAzDNB+BH9ximY8dwG7UqgyZMQsmTTJF0pIWckYmwzAMwzBMJQQKfGTaodmT5ZjWmBDs1kyayhTZxBpMhmEYhmFqR2jXagzDMAzDMExjwWOoGYZhGIZhmpy61fCJSQv7QPjyZHMy44X1S9vDQ70646dxma3vWY6vqnrNaxgqKRf54I3dLR6u0CjPu0nZm7XdGYZpbKz/9D/+Q97hXuk77HRPs5DF1D+VCHzqt7USMNTs8nyTvfjDlEsIQkMWrG1g/xJlu5uUvVnbnWGYxkN8hJLjdnKLRG6taGHUttfpLMMwTHRYL1kA2iLYDMMwTO0QGj4LO2G1OC2ZXNp+tq7lU1+o+rp3RWHwy518dFI8a3dxH7+gSZIkX5vqN0ZhZFoFU4iHttEkHkKEex23ffZxLoP/Jcv70hZmKPytylfuGqb9Pv6V+SpK6xrg9fV8i/qipW1wXyy3gnmFwxa0kJsrmR+9ntf2W8K8ReWnxWv1/AalRVAYC8OIOCTuPBOOclFd00K5rrTINEV5UvklwmjUjO6fEGXXy0XeHij/en6ER4fD+Ffm1V0/qkyFe0zhca8F1U8YVBm97r+gPBMmbREUj6h3LI9buyXKCdg+2gLVpmX3K5eOyL9Lu6d+W2gLjzag35k+7373vGm7m7SFwqTsQWGC6tmk3RmGYUwo6v8ABRO4593BBbIDO+THsSPut1fhp1X6i9xD+YQRS8BIJ+x0zZeAtEibIJzE48uNnMTnUcAoLmww6iWZxw5XOYhfm7FfIgp60TjSwv0iLSm+iCxavBpfIJRXuIQvI+zgi3yNosDTguEonpV79lItjnIZpEVlpxcfOcgXmlsM586zKBfWCb04VFptrrQUom7xnhDxYJ6rhkHZhQcOyjNugPkvYgnziC9NpbGmetfdg5EHCLpnhK9ehOpRtKtr6aEw9VMxAXnW8W2LoLJfxOca/+rnSKBowXLm/12eQKpRdi/tXtTPu989b9ruYdqiUuryGWQYpmlxyED0dUudJnWU5dCiaQnyd8WfIuf3JmFM8ItHaAVQSMuhUEWdue3mCY/ty8aolyGZvFc1bYLjCxy/4EnbRi8JR1r78MtcLqQswE66sHj1NYxP7bsd0KPAQ2lRPOS7OIdf9IVymablgsK5tQaiXFQ/eF6kRYs8S+1BEZjfmnj88Cs7tSmWvZBn3MiFmhu6VijrLSw7vRzddRxA6PqpkFB59mmLoHjE/UIfHOSnWOFym1iNsqs41y7KE2UQtt+gfBfqIgRBdRgVdfsMMgzTtAiBj5yg04K/bb/BThm/Nss1FeTwCzUIkzAm+MaDLzEivyT+VIRwLi9fMJ502JXocPKvnNS7tXdhccdjmJbQ5OCLqu2kBW3DLQ4H9wJ6yZMw9Zt1P6g0kJ3weokqjx/0UlodztXGlOQul2Gb0ou09Q1ZpvdQSCxHUAlZP5USJs9+bWESjxAqtA8E6+f4n4xTUI2yP2MLlQ5NWkiC+o3Ae96QSO4fExrhGWQYpqkQAh9psMhUQBow8QJgGhp6KZB3FDJJ5fFFGaOXCr4E3aYiGgclzFra1sgvEnpZ03gvYfKWZrJKzF+1qJ+o8mwcz2frzzn9RmjePNwmRlV2ka/DeE+WaTUwxfSe9yPq+8eEZnsGGYapXwomXfHl+CGeSK5//ZcEO8S6xkvDJrVjYQk06Sxhp41/HF/lhtqoQNzxhEyLzJ6rZ+S4JdImqN/J+qmGqcoIk/unRLl8taZSayJM3pW8NGtZP1Hl2TAees6FWRefc4t+49a8RV12qd2rlRBT8p43Iaq2MGGjn0GGYTYdDhko/+ecmFTgGCzv6phooHHM3q1rSFBroVltWA4xU26/LSyFgV6Oua/sl2ObZiJqQYFY1Q8NPKcXqKozoSV4BcPQOL0yXhoizxi/VzymadFYTIqDoDAWjdnC+lCmYPHSp4HvJNzr5cL9QrtHRYj7x6/sFI9oUywL5VHMpsQ4HW0q01JaaouEDXyBeyKFZ68B+RtRP0Z59iNEPGJ8JP6lOnaYc5Eoyy7asQbaPSLoni/g0+6RtYUBNb3HGIZhkCKlV56WIMBOLvaSPKaOib6WsWOicSa0Sv5aROPwqoXIM32l437be9ihHsFjfLFRYYteAAHkPkIhmMqvjbUhgUuH6ozqhNKicT8W7q+8Ly+GhARMir9UPEZpoSBEcYhxQRhGzGyl+sB6UYhy4QvH0suFAlfUhLl//MpeaNMdWB68HtuPx3edNzCFIS11IS0KI4/bfuVqMyk862Oo9BdtLevHNM9+hIpHCc+462nOjarsUoNYE+2ewT1P+LV7VG1hSq3uMYZhGKJuXatFTa09K4RFrdelr1e3WdjMZW9myF1ajJYi4jZlGIbZcIo0fM2CRWZXZeLBv2RaoqUN6lHYY5hmQywhtMNbg8gwDMPUnuYV+DpQyDspTTz4l0xL5ZpZGYYJh1hUedi1qDHDMAyzYWwaky7DMAzDMMxmpWk1fAzDMAzDMIzNhgp8NJGCTK5e6/7RgG+6xksUMBtJvd2HjfhcVJJnWmKldbilKrNkq4ko8xuN2XdFdY8JV50YD8UlNoy3GfrzRnwGGYaw/uG//4e8WMLgdO0nNKiZs5W4c2OYjaTeZ383An51KNbyG7LA+ipf8KXbCJBQ0Aab1/9tYeZ9pnHajZ9lptlhky7DMAxTFfL/LncYhtlwjDR84iv7ddz22ce5awBrtECzFl54PjiMf+XK9F5hxAr4GE+bjIdWmo8l1zV86quwIIV+V5wv/Yt/7S7u4xcZhSeflPp6X0V5xrQA08qXoU0U3iHwtypfuWuY9vv4V+YrqH7o91THa7hPYSivQF4lsK7cZae16Nb2yzrC8tNiw3p+TdrCXc+EO8+Eo1xU17RQrSut1vcskSeVXyKsRtY0Hr/81LJ+TO9DKlMhjMIV1jQ/fvVjkh+FSZua3BulEOWh5+9S8fp6Ip+vYL4xb/ndWKYI6rCQXsDzHoTp/WPSjxFBfYJbw+el8TPtM036saB2D8L0ng9qi5JtSrjbtcLngsoc1K8SQfVcMs96fg2fwaByiesR3M8MUw6xrf/V1uHYdrzh/jfsRORJN9RZtZJQ+D/gTTqDN20KH5D/jDfy/yEDIBbetfmrAKt/wJv7L/ibl/AB+r8w3tsyACI6PYpnHOP53/H4v8UwD+PvcD/3f2OA/xt/O0Np4AtjGz4MGNadL3pgWv5rfGDwX4uFD8mIHbb1RQvy/8t6WOoMWv+fWp7/O4xPT8sQ0algRyoeyAk7b/CdBbn/sp6roPqx/jOmfRB3ZrETasFr/w3m9X/Gsu7EUmDHQXVk/Scsz3+FYfC69SWG+5/wPP6u9RCG1erApC1EnjE9cgAv2oPq5VuMT88zhfkZthe1xXk7rTZXWqKuj+D2M8zTYh5+fAtPPo0dMLZzmDo0iScoPzWtH4P7kKAwuf+C1zHfZAZancbf/K/4G3mdMHp2gurHMD8mbWpybwSC8WIzQO7/tMu35QU7Dfh/4fnvMe3/E+OKqA5Nn/cgTO8fo36M6jCgT7Cw/ciFILVzoc6xXfX8mqYV1I+ZtHsgEfa9ok3/gqGwvnN4n61g+ShevV2jeC5M+lXCpJ6D7kPjZzCgXFHdzwxTDvRx4Qt92dDXinBrhV8ptosrvNn34U2qTbagr8nCF+UtvHHxgdMdg9ONLr7CLtnhyMn52iV5sQxa8NFQY0Pyd8WfgqN0kRZ1yJSWnmf7sjHi4cQOIJfBDkD7+nJoTAzrh74IC4vQXsP41L5WRwJ6GWFaFI/weYpfpYVymablgsI58qzKpdqC4iKfqvILuAjMbyRjkUrEEyo/NaifqAidnwrqOXSbSsopO8Xbgi81Nxbdy/JZjBq/5z0UPvcPQXVRqI8S/VhQn6BD48JIOCSNE90DOiZpBfVj5bZ7JVTaFpE+Fwb9alA9R0WYckV2PzNMCAIFPuiwAzl80Con43hNQR1PK37d0Owl8mUZc3c4u+0bPr8k/lRMroQ/VkGEaQnn6X4vMcP6KQt3PIZp5S9ih4OdWttJ/NIfxi9OzTm7gHyc0otO8+FJg5UJr04nRy8QhDqw1eGcw5QUhpLxhMxPgWrVT1QY5kdRUT0b1mEkZcfninwa0yxFUT77LAAKgdXyrOH7vJeLR1sE9mNIYJ+gwDpqxTYQwqFHW0bSZ5b77FRAxW1Ry+cCMWnTSAhRrqrczwwTAN2fFUMPFI1LIDU3mYp+/C1+2dBXFLMhUMdIXg5+xLbIY8cSo5cBvtzdywiQSepBf86xlSvMRUGt8mNaP41IUB1GUnZ8iakY6VcUDwkXkXQmG0jk/dg9/P01rJckChwuDU/UadXbs1wv8LuJYdYJ7qPpax7/OL4W3V+e8itTqLIDOhmvL7jI8fqqkl9fYQlU/5vUT7m44wmZFpnNV8/gy/1DPCAtgPqdrJ9qmDXKotz8VKt+oiJkfioiZB1WUnYSGtc1FLgv9yzax2sNg7st8NikHwtjEsy/bwsYsVdsjWgBk7RM+rF6e5ZNqOVzYdimkVDLcjFMGQTKQOQTk75SVYclvphewR/SeAn1AKmO6efiD1jP2A+ZAwxDHWXLftwwDjFzCjsp9bKIGpEWzdiiPP9jC7RiumHTEi+2rzAe/EJv00xfLfi1rjpvo/oJgcgzxu8Vj2laVLcUB0FhLCw7jXVRpgYqF82QFpoHvVy4r8pVS8Lkpxb1EwrZyceesQ91or43/DCtw8jKTtrBIYyHBD/cLCwjSNNbaHzqMGr87h+TfsykT9AR7UKzOTGettflScKkz0SC+rF6e5ZNqOVzYVrPggrvw5qWi2HKwBb4qDN6b30MCG26CUJ8pWKnTmFoDISF+yvvy4sIdTqrpCnATod+G9uP4eWxWiFfdEz0lbUDz9E4CgpzV2UgWgpp4T6l1XoEj/FlRGmFfbHlPsrBCpVFGyNDD7ROUP2EgV4mFH+peIzSQkGa4qC8UhgxM5rqA+tFIcqFLwpLLxe+WDYK0/zUqn5MUZ28PoZKf9FGeW8EYVSHEZVdrK9GL058hmnQOS15Ua4WI6gOo8Tv/jHpxwiTPkGnEO++9XhC9Zm479eP1duzbEKtngvTNiWiuA9r+bwzTFis7du3b4pPj3pfRV18vct1wng9pmK4fphKaJb7h71BMAxTLtVQsNUFFplYlOkK/9LCmzRtnztJhmEaBe7HGIaJiuYV+Dqwczxpq+a34F/rHn7Zs2qdYZgGgvsxhmGiYtOYdBmGYRiGYTYrTavhYxiGYRiGYWyqJvDR4GIyQ3i6yokI8ltYzkyqalOLskdNveS5XtuUYRiGYRqZljZ8uerrSdXDi1/lIeilnztjryjPA5ibB25ThmEYhokeNukyDMMwDMM0Odb/4//7D3l9bSrSrtE6T2tv58Xq4Pr6VWv7LWjbh/vf2a5q9NXDxar9r8vrCK3+Hkuux0MI7xqH8a9c6Tx3Da+/v77EAMXR+p5VLIVieiu0Wj2GU/kphNGuKcQK50OYn68wz3dxH8tD4cnfpL4GlwiHeY7JPOcwz4B5zmt5NsGk7ETLr7D8eF7knfJNi6rK66b1TPjGE6LsFefZMC3CEQ+Su4a/eR//Grapwi8/hLtchJ4WwzAMw2xGCu/YQFAIafnSdj69cs9erV43uYqXrHJQjRv8TF7QWcIXL76gyWQnwuBLWXdjQ6uir9A1WgkdocVFhSPw4XUTH62GTmHoPK0u78sOFEIet+OksLSCuiPPL+F1yjOmQ+XKY57NK2Qdk7KToNKG50mgUnXY5qpDQUA9G8cTVPYo8xyQlogHhbQ8CoKiPXFbm1kXwEzb1CQ/1KYk7FG5KD4Kp6fFMAzDMJsRc/kGhZDVP6NQhC/OPL1AH8UfSyfRQtODL9ncJVvbQo7Z1y7Z13ToWkEbcwtf9N/h3yo6/W4BFAo+kkLFXfHHmWcUQkSeqUy4rX2Ax/ZlY0zKTmFaUFAphKH0yO+o1HQ6CKhn03gCyx5hnoPSEvFk7HIpKM4whKpDDQoXNi2GYRiGaTbKUWitO6TuEH8AdtsaliBfmvTSbpWzMMnPYCzgZV0puXtyxwvDPAdiEg+GIYfduo9GMpsTSjDyxKOeTeOpuOxRpYUIZ+VSECwbw/zkL6KAhx8SbSctaBtucTiUZxiGYZjNSnkCXxkIrdIQbsqMSKY20vBtImhsmzJpqi3MWEFFVPGYUMu0TAjKD2n0VobtIQN5FERjJCCi4FdkhmYYhmGYTURJgS93S+54UUJDVNBEeSE1NDSGry5MbG7tGYH75UrAvmWXaYU2X7vrudx4SlCVPHsQiek+ZH7ITL16Ro4HJc2gnyaVYRiGYZqclrVr+N9hS2hAhBauhHNuEeYfZZhX8BjDFDQr+DKml3rLftzwupiNiy9mx3g4+cK2fi7+gPWMLQB6ggIO/Vaf0FENRJ5V2WmmKOY/7Bg+k7KT1olmwbYkLYeJsQX33Zonv3oOE48vEefZDzGG7is7Hn29Rypj2HhM8kNlKTibx/MWlpFm8/p+wDAMwzBMk9OSfx9fpDTb8T1LjKuzcN/LOTe9tGnGqFcY8TImzd0OfKnT2Lz9eHwXI5fXCQqzStoWfGHT+CsRRh63/cr54qdZm0IQ1cZrhRJoDCjkGfcpz61H8PhLO89hhAOTshO5j+wZqJZWphgKd2786pkwjcePqPMchIiH2lqPB8sYFqP8oOBKcdM1qkMxE5nKimVmGIZhmM2KtX37dt83ob4+nHtttWZDrUFIy7TUWkDYTPXMMAzDMExtKXfIWlNgkVlRmf/wbylzNsMwDMMwTCOzuQW+DhTyTkrzH/617uU9zdkMwzAMwzCNTKBJl2EYhmGYxuLC39+Vewxjs6k1fAzDMAzDMJuBmmr4Wt5ogTbIw4Mz0SQplhP5jSa1XqNZrc4xeCJN8q3qmohBS3a0vmc5JF7y0bqRiwo3MqXqmTGnUerQ5Nnh5ys8atIY19PmJqpnhzV8jBvrH/77f8iLpStOV/8lE6XAV5jVmln341ouKq48d7RFbOTM5Y3E/TFBvoC97rOWX2G45Hq4RnhZR9mmJs9OvTxfYl3G1y0hVBOl2nSjqETga7TntN7bol6o5NlhgY9xo39ENCT5f5c7DBMpefHiJddtP76Nh66Fowl6ybahsEfhyFXgyjV7DcCo14xkosF6Sa7LiG1Frve82pSpDdwWDFN7jDR89DUWw6+xmPoawxfbmst0Sri1Hblr+NJ8H//KcG4NXzkaPy91d4Hv7HLkd2MY/CoqhJHnS5Yv4CvKUS6KixbyDfsFHlCHKg+0Dt/afuz8KBymRQsku/MUlB9VRxQXkOcO6dFE1xwIDdZh/CuvFeWnVD1rdanyHFTPgWWn60P4xf8VLQCN+1KzRn5z9TUJKZyuFSDc91g1UPmL3XPeq9QObT9bL7M4xnYJo2UxqcOo6oeuB7UpEXRv6JhoIPzC1KpNVdn1dS7d7WeC/pyWikcP4/csu8tOnmTouY76OVWY9BuN1BaEHlepvo7wK7tIG9+Ba7hPfRQ9VyouPR5Ky68fE/F4PP8ibXzPKQ1mVM9XUHuxho9xU9RPeEE3VUx9jeGWx/221+VFibrZ8/iwKKf2azP2jeeFCI83athlUMhLxIrUupCXDHogVXoPhnMiPfLUQWHoHHlmqASRT+yIKB2hxSGvJGVocUzqUIAviJYv19Nya4zC5Ic8lbSgkELh1rCTc7CE57DTozoSX9jYFroru0I9k4cMhPKt1zFhWs/GZd+B4R6306X4RP61cgmtAN0zss1FuTzuMeoI26Qnjii1bTmsax3SLuew0469ZKcZw3ahl0Wpe96LUPdqhfVj0qaCgHsjSkzbtGI8/H/n7+J/8qVbFQKeZfGypucCyy7qGe+fIiJ4TgmTfqOR28KvrzPqM7HcFrYVaekpLrhkx6P7Gw/qx/IX8dnHv3r7UL/Qgmk7LFERPV81ay+maQgU+OgLg75o6AalG8l2y4U31T78stJ8ltJNTeMwVjWNQyktmG4Kq+ebs1AufPipLFT2/Jd4IWTHZFKHBbDToToUadHDi2kpx/+h84Nfe6W0p/T7Qvvcwg6JOsnH7cMoCVP2Fu0rWLwAEFV2LyiuUvdYpDyDHT3W8dpFeSwRLgDxRUv+fcmNG3yF+dfu/6ipVf3U6t7womptii9u6uwcbhOlz26/OqyIgGdZaJPUs4zb2iX7mk4UbVFuP9ZQbVGirzMuO9br2mdyH+NaVfuyrk36MXGOBEby361A4ZbWd9W1c1G0qRdVay+maQjW8Hk9nLfsm8rx9UMPkHwJ+bIDH5DfYHwkHNb7zUkPK3XS+MWnfLfSwGgiVMdkWIdFuMOEzE+OOjaEOoJV/OLX65s6wtY3ZBworJBAUxVClN2tQXMjvqCxc2w7iV+2wy3QWmLMD5VXac0q/aCgjxO6X70+TsRLgK59KDt6D7/QURJV/QRRs3sDiSrPdY/Hs0zoWi4vImkLw36jkduiZF9X4z5cCJO6MuTn+J/MmyKq52vTPDtMZAQLfFGDXzvq5Vik3apTyEwnzCTatpHCaqX5oQ5HjElT5iQPM0g9IgQ57MzJDJInExl14tjRRWm21SGBjoS9UuNnYq/gjtRqr56RZtYNvK+jqJ9a3xs1a1MvDZLXS7yOiLotgvqNZm6LmvXhn6EQhn9I0KP2I+1iQXOIRNmmte4PmcYnWODzejg9vk7DqKXz79s3ed3PaJRfcBWr2w3rsAh3mKjyI796hXmi2oJruWX3gcxfJGCJcUv09a7HHRHUMauB96VeDFSHOmJMn9zfSCqqn1reGxpVb1MPbYxFz1EUwiy+vAMpcc+7tdwOomqLkP1GQ7eFmxr34SSEKYWGRe13D9sOzxWowvNVi/6QaQ4CBT4xTglvYCWciS+UV/CHNM5B3rB0k+e+sm9yfWp9yz96C3TioaDZWHhzeg7erxNEPpXWRi8X7ocRVE3qUNFCs8Ow3krVcxT5KXS4ZG6gv8/YnZAnsqMrd9B+mLIHQbPbqG4IiseisTL4knBrBehapZM2aIB2C8atf53rFDr2n623l3UEjz3yUytM68e3TcPcGxFQqzYtPDv0fFE6mCbN2hRju/CaMS4BgiYExOzdIvyeZYqHPpJpvBflR8zcxDgdHwwRPaem/UbDtYUBUfWZYfoxMV4T/9J1tzk3yufL+HlnGIkt8JHg9Z4lHmC16WYpoZG7Z4ehMQcW7rtn1+Y+ysEKfWGQWlnGQQ9HKehBXKXw+7DzqOK4p0oR5cIOw9LLhR1VWEzqkCDBmerNt54rzE+h7rETFL/fj3mTx+62UB2dPgYmbCdvWvZA8IVIdUN5oHjEDEc5iDpKqPNsIa2N67koqhtVrpN2uYSZpgr5McawfvzaNMy9EQk1alOCxjyJGZqYzhZsM7Foe8hJNkKA0Ovnrn0PeOH3LIt4qJw7sMx071A931Udsk2Uz6lRv9FgbWFKrfvwgjCPu+4Pxkifrxq2F9Mc1NS1GlMaMV7Mtb4XwzDrCG8Sh/GlFnKttlqzGZ7lRmmLzQyvw8e4CR7DxzAMs8GQ1lXM7q+C2Y8JB7cFwzQmLPAxDFP3kClMLDjN2u8Nh9uCYRoTNukyDMMwjA9sHmWaAdbwMQzDMAzDNDmbWuA7NrkMy5PH5JE/IuzyJBzTZr41MzROh5Ze0JfZ2UjEuKHh4pmyUSH8bW5AWeutnr2gAfo0E7ARFkpvkR4Mws4kZ8JjWQk4NjQJc8vLMHmscevbso7B5PIczOG7IMH3DdPE1J3AJwSruaG6e/DO97ZDe3svnOdByk0HCV0x14r4TO1QAmUUQlrujO1FoR4mE0RZrnqDhL1Tl6dhpBtgPNUBvefX69s6uApn/+XvMC23s6+tQleZddB1MAevvnYf47sPz5cZh2Xl4fnXfpD5+QGGX3TeG/n8eTieGodZ6Ifpy+c2zUc9s/lgky6z6bFewg7+K55xyDCmHD03DX0wAalnj8P5eddzsxyDt0cfgdTvtsMLoz+BO0/dh3deXZMXzSAh7dXf/wC/3gHwb18D7JTny+HJnvvw5mNtcOLEI5ifrQDPfQ/DB51CXX7+PJzuPQTpxSSMnDsqzzJMc9GQAh99XQ5NzsHyMplZl2Fu0lsjmJDmhvVw/ip7t4nXSgw5fu+leRR5mcO4hxKQOKbSm4PJYwkZwsaZZ7w+RHHPwVCidH5KIcyP47b2gLa2N4pXzCdn2uvXi7UMuilRD+tltqP0xHUPP43C1CrNaF5p6aZYkS8VTjNh0rplKi/KJEdplTIhRhUPUdDuXZQnNJqtnk2huAr1hxt5gHATlB+FXx2qulHO7AuLXLvKr8KVqkPV7up8yfozrB9Hnikun/vHC5NyqTy78ynSlnkKcz8H5ZnypLcpbe772RTqF/uTWZgYeAvmPT6S8rcsWJAeJfK3WuCzv4jdUOTzFpz954dg+E8tcEOeKwfLysGvn1uDLzJtsIB5pfz84dMYPJ1c8dQ6XhidgGyyv6x+mWHqnYYU+MTXZecspDo6oKMjBbOdfTDt+ipLDM3BdF8nzKZT0N5O5th2GBi97tlBERR+JJmB9PEL8gx99Z2GQ/K3qYmsPFuCPYMw2DUqwqcmAJIjgw7TwIFTY1qeB+Bmdx/E5bUwiI49iXnTnIGvkSsfvVxL9ir+dI0ca8M+KOkajVbmb7nn48R7P16/K6/jodsVHrkgEx4m8DqFyeO+p7u8HRjucbmcA7k6onTdHS6l9aUdD63CT6vIF4WJKh5JKe1eU9dzAJSWWLWfnLtTuVAgdmOSn6A6VMt7CB+gCMUlwg17m2RL1SF5maB46LdUZl8C6kfkmT4AqOyYjvAG4XP/eGFULumNIfaSfUgIocxraEHA/WySZ7rP2/D+pDalvIg6dN/Phhzo6YZ4dhamrsoTPnQdXIWXn4rBxU9KOaCrMrty8ATE4M6yPEZu3MN6eXQVOuWxg6tTMJuNQ3fPAXmCYZqHhhP43F+X+fw8vDXg/CojbVpPdxyyEwNw+vy8OEfMz6/v61jHJlE4BJhIHS97jF4cZqD3tB3/1YVF/L8TumSfQYOCB/vikBl35dm+bIx6IeQyeVjV1sByO+Gm48K5W/gCopejh5ZGcA1fAGd8yowvGkqLXmJrl/B43/qLhDQQMXyJCBdRolwY5gNMH8O4tRAtgC+ij+x08nfFn2In31pawh/lo8VhooqHKLxgXdq9pq9nH6jslJZYVBfLRo7ZRX40TPJjWoehCKpDA/zqp5BnVXYqG/lCLdPXqR8Ut/A/Tr6YZTsD+VV1O9snfO7ncvMs0i+zLfbuwU/VxYWSH89E14v2mLl3jq7AnQvb4KzU+NWc9lXYCRbcvi2PieVW+Abvg1275LEG9c3Ufcf37JVnGKZ5iEzgIw1ZwfQpNzJzRs7ePShcLcKC/nV5dQHPxGH9Gd0Ldp9k8AnaeQTOjSRt4dA9FiUE2ZvX5Z4HB7pQ/MuCXxBThKNt+aIqBb0ElLmNfCzGfDr/nHTuTS+A1eFckSNwLwoCRId9AzmcdSvn4HhNJ3dP7phS5XgEpV6wSLPWM2mDdLMebY6Zz7vt/fyS+OONYX5M6jAM5dShG9/6wbJTnknrp+pGmWV1oTmwDg0hf7IO4W0/nkOBzhd3PRvmWaSFHyTk95nM4q1lmPoJ+pju8lSNOVn400NiDN+JC23wxNHv4axrokTd09nFM3aZpiMygW/+9KGC6VRth6TGq65ZnIGZDH7R9Y01xbgNEkJiQ7gpkxyZbjTzVxQ4XvQNiqinwwYv2BI0aj2TI3lhXtQ2pfFibHKaCVptunAZVR2S4Lp2DSB2RN5PeC+V2+ZBeaa0VlBIJhN9HoXeGAmI2phCU5QGzJSFK63w9qcx2LlvreyZuhXhpc3z0vq5CdBgMkwjEpnAVzOu34SsZi4VFGnQrsPNLH2kmY3DuHA8BRPZOPSNnarOV12RBhIRmsrw+JoNCfnFL8xtZWhA/LAoXV2oWcIXDf7RNQlGGiITqh2P1O6V0hJtmnougadGVGGYn8A6rDek9qyWeRbm130o7JnOFHfXc8g8k4l+9YwcX6hpF8Nw3e5cG0MDdrsF7sAaPNEuj5End2CdfdeKfXIxSoPpa7FhmAal4QQ+mkgxnlkXzugBPTXWB/HMeMEkS1+hU7NZobXTZ8smEgnPTkqMqXs2DZl48eSPaLAF0GS/zHNiCM7hV33YMXz0lS7G/SQtx+xCmpFX+FJXJp+fiz9gkWCDHXu5tBzGuDF+C7dYEl/02kuJBssLDYUcIC60FK/gb66VFqT8KKRV5XjEeR/tXrPXsy9YLhLUWvbjhunQjFaapUsCnsIkP0Z1qJACZKkJL7VCaNxoIgfmWTd5tuB+UZ5NMCnXZ7ZmmNo8/+/ynAu/+9k0z9SOFAdB8ZD5mD4qytEoXp2ahWy8G0rNa7B256FLCqbWbnuW7DfXYmKWrA7NoB0Wa+OVv8Ye4RdPPu+clavyo2btFnGgB7rjWZg1mZHCMA1GfQp8JHgtLWnjAZ3LlwiN3GK3CLO0NA3dixOQ0mbXEmRiTqUXoXNkuhDP2FiPvFqMWHwzjT1nciTysYf2JA0UKMEu1+XBBRhFYaNoLKIBZE5aoa9zbcwOvXgV9AJYpev4AhDX9uMLQR6XM86IBuxT/FtO4m/xReM2XeXfx/jvgVh6gsaxWbi/8r68GBISEERa1Y6HtHM+2j2imevZDyFAkNZyB5YD0xHlulvcUZjkJ6gOFUqA1MehlSVgRYDIM3YDlp5nFLjKwaRcVN90v1Kbl7ofg+5nozyj0E5x0DWKR8zClpNuwuL+6C6i/QGcHPybmLTx8eB/wBN/+Qm8PRXuVWOvw2cv3Pzx0VU8swpvvmPHOf37cAs535jaBu9+uwLv4O8/HnwA8OnDMHzFu9xHB53KA4ZpJqzt27fznb0B0MzgpRGAdEf5M4ObBZr12XoSdz5EQUeb0RkW03hoPbLYl5WlxTBRUep+jOq5qAbCsnKZFl/OQHrAY/HlBsNKYHkGaemsRUjTYtKuPvnC39+VewzTuDTeGL4GxUocg4RaNgb3T/UnATIz7KqtxoglRXYAu1Fj6oJGvR/tYTApSM8C9E8vNbwv3XPTY9AN47bnEO6TmSaFNXw1grxwjI0kCxM1spk0DBy/wDPBkFpr+Bhmo6FxdK3vWeKLmxZM9jLn8v1cP7CGj2kGWOBjGIaJEBYOGIapR9ikyzAMwzAM0+RsaoHv2OQyLE8ek0f+iLDLkw7/uPWA9Ut7Vp6XQ/V6Qzlvr/UMTOFrVFuyQhFVfnRn/GLDeClOMts5zuPWCO1UDWiQ/7GhSZhbXm748V6Ty3Mwh/1GQ6xDxzAMI6k7gU8IVnNDddeZnu8l7yG9m25ArxIooxDScmdsDwDlLAVRLmLtMvKX6zEoPor8iEH35Moqo3k6wHgpTlpyQzn1//FtTM/+SVWJsr2iQs3oHOkGGE91QO/59fruOngfzoo11Gj7AYbLdMFFy3g8/5rtv7XSeF4txPN3OPtazrEEiFi+KTUOs9AP05fP1d0HIMMwTCnYpMs0NZapB4MKKbVoLgNw9Bwt3zFhz4AsWr5jC/xx9BHhd/WF0TZ44rnvYfhgeCHqyZ778OZjbXDixCMYz1aAMuM5/Or38JKK58TDcOWx/4CTPU5RPT9/Hk73HoL0YhJGqrJQO8MwTPQ0pMBHGoOhybnCgspzk94awYQ0Ia2H8zfDuE285BFD/72X5lHkZQ7jHkqImbh2+DmHhw/CmWe8PkRxOxeUNoE0VsoUSRt5QXAjZgBqYdqkidGNMHXKMHa49dX5lTlSOWKnBXZFOJf/TRWOTKbklF3FpUyXpAFzmDU9/HeK/OJ5WrBYN496mmH1PFNcPiZSildo9y7KE0hU+SnUz0n7IYqdXF/0thwfpSbliqq9gu4NFVepNg0DPUP9ySxMDLzlOSN94UoLfKLcg92OwZXvAJ7+6Zp9bAh5WtC9J+RvOb0rmELxPPMUrMeTt+D/M7kNhccHnp4gLoxOQDbZ3xQ+uBmGaX4aUuATGoPOWUh1dEBHRwpmO4tdoiWG5mC6rxNm0ylobydzbDsMjF4vuQwKhR9JZiCteeygFeUPyd+mJgIcoe0ZhMGuURE+NUEOOwYd5p4Dp2hRT5XnAbjZ3VeWL13rdXwJK4f9uAEKNG4ojHDq/1vbqX8e99telxclQnggd04frpsi12agoAlT5kjhcxOhuES4YW8TKHkTaLlnp0euohTkbUCZNckbgC87MN+P2+lSWBGnVocizyTAUdkxnRXy9PCKM4yOl3YvqvwU6keaailPqh5L1VEpTMoVVXuZ3BuKUm0ahgM93RDPzkIYT1XffOvdniXZlYMnIAZ3luUxcuMexvHoKnTK48pwOd9XXJ2C2Wwcukv5GGMYhqkjGk7gc2sMbLdlzi9t0qb1dMchOzEAp8/Pi3PE/Pz6vg55vZjuA5hIlb/oZhxmoPe0Hf/VBXLL3Qld8j1AA70H++KQGXfl2b5sDGleYvvwJX8JhZi/Yjy4kUsuHTGmDMMI91giLQzzAf5mn7WudcN4WlDAyGXysKqt70Vxls01FDDOVPB7pAVfrMqlWP6u+FNw7l7Isyo7lY0cz5fwX6vC69q9sPjlJypMyhVVe5ncGw4iaNO9e/CzZnHBbL3JXzyAlx5thT+GdMMF7auwEyy4fVseE8ut8E0pQa0kFtwhDaPyu2rl4fDzKxi3N/Qc06Me37NXnmEYhqlfIhP4SENWMH3KLWqftIK9e4p90F5dwDNxWO9394L9njFQK3QegXMjSVs4rMA9UPbmdbnnwYEuFP+y4BfECOmQPL8k/njTYTeqwym6cvSP1xTC0b8UYqIgR0IKQkLE6nDO109tKXL35I4X5P8W86z7JVXmS08h7BnyO2oLNuXim5+oMCxXJO1leG8oKm1T+vDqMlSxWQfvw78ezcPF0YfgkwrarBKECff//TBcVH5X37kPz3y9Fb6Q10vS2cUzdhmGqXsiE/jmTx8qmE7VdkhqvOqaxRmYyeBXet8Yj8VpAHKaSVNtbkGENGKxw/gCn5EnGgCTcjUaSgMWhLV7VQh7V0Z/AmfVeL4weGnzvLR+BpDQd/ZfHxKTSFK/ewhOL5O5OCAeUw0mwzDMBhKZwFczrt+ErGYuFRRp0K7DzSx9eJuNrblwPAUT2Tj0jZ2qzpd6kQYSEZrK8vDSxhRYQuEB/zi0Xh6awTyNyfKY8FG3KEHAJM9Su9cQApNhuSJpL8N7I0qu2w9iyeeKJkoMDd6HOxfKFPaI2y1wB9bgiXZ5jDy5A+P6rhWfu8p4MrECO0vEozSYvtp9hmGYOqHhBD6aSDGeWRfOqNM9NdYH8cx4wSRLmoWp2azQ2umzZROJhOeLR4ypezYNmXjx5I9osAXQZL/Mc2IIzh3BF4W8agy+EOnF37IfN4yHZpDSLF190QialLB2DSAmB/0LbdcrGP7augBEJrrcV3guaTlmntLM0KIJEFJIiD1jH24UYrwZTZzAPLfqecZ9Pc+Npt0zKVdU7WVyb0TN1alZyMa7odS8hsOv/gc8/d02+MPn8kQJSDAcFmvj3S+aMZvPO2flWruds3Z1/OIhunbnCzN7uw6uwsnnAC5OFscjONAD3fEszIaZkcIwDLNB1KfAR4LX0pI2HtC5fInQyC12izBLS9PQvTgBKW12LUEm5lR6ETpHpgvxjI31yKvFiAVV0/jmTY5EPvbQnqSBAiXY5bo8uACjKJAUjUUMQAgHNOB+B77438OX9X48vlvciPn38TzN9MQwW3CzcH/lfXlRkvsoBys0o1MbO0aCgBslJOhjzIqEjBoh8oxNZOl5PuzKC42JaxTtnsSkXFG1l8m9ESXuDzQdmhSx6zHcefS+GDNXWOy4jEWTb0xtg3fV2LvBBwCfPgzDV8LH05m4DydlXt5JrvqamY8OOj80GYZh6hlr+/bt3FttADQzeGkEIN1R/sxgphhaozD2ZR5WtNmszMYitPCXafHlDKQHvBZfbiysBJZnkJZZWoQ0LSbten4v/P1duccwDFM/NN4YvgbFShyDhFo2BvdP9ScBMjMs7EWIWHZkB3i6UWM2DnvIRArSswD900sN70v33PQYdMO47TmEn1+GYRoE1vDVCPLCMTaSLEzUyGbSMHD8As/uY5gmgzV8DMPUIyzwMQzDMJHAwi7D1C9s0mUYhmEYhmlyNrXAd2xyGZYnj8kjf0TY5UmHf9yNhCYnuGdgErTUhu5gnza32yyTMNWgVJ4bBeHPVlsWJQrqub1MaNQ2pYkkx4YmYW55uaHHFNYSGr84uTwHc9hnllpXkWGY+qXuBD4hWM0N1V2Hcr6XvIf01s0g7dwZ2xuD23UYLd1CTvTpmnLs78YkTDUoleeosX4ZvRAi1qwj37wRTwip1/YyrcNatWmUqFnDI90A46kO6D0fPu9dB3Pw6mv34WyJ9fxoyZnnX/tBLjXzAwyXsdSMm+df81k/MCA/JgTlWSxdlRqHWeiH6cvn6ubjl2EYM9ikyzAGWC/hy+2rynzzMvXB0XO0RMyEPcs25BIxJBS9+vsf4Nc7AP7ta4Cd8rybJ3vuw5uPtcGJE4/AC6NbAZ77HoYPli8gka/hlx+LyaN1TPNjgkme8/Pn4XTvIUgvJmGkKovUMwxTLRpS4KMv9KHJucKCynOT3hrBhDTZrIfzN0W4TbzkEUP/vZfmUeRlDuMeSoiZuHb4OYeHD8KZZ7w+RHE7F5QOgpYdcZj2hqtnSlNpOTw7/MqZpjh+owVapVmPwrbhddpXJkeTPJP2rBXPt/3KEt5DVHi3+VRck/GL65iuHpcyfW75jX1MiwuXSlOYZ2U84rqPibSg3bsoT2g44sGt7Y1izx+qfuzrxXmJEpNy+eXZpA5N78Ogsovr+NugdqdwynS8Hpeznk2hZ7o/mYWJgbeKZsh3vUjarWINGZ1Xi0ELX7v//BAM/6kFbogzxZA3D93TR/6W0xNIWIT7uSTAHzPFvzXJjwlh83xhdAKyyX72P84wDURDCnziC71zFlIdHdDRkYLZzmKXaImhOZju64TZdAra28kc2w4Do9dLLoNC4UeSGUhrHjvIS8Ah+dvURIAjtD2DMNg1KsKnJshhx6DD5HHgFC3UqvI8ADe7+0L70iUvCsq0R54Z6oJ9+LKghY6ldwe4lIe17/Cc9PcbKs87ULB63DZfUliKz/FSX7I9jdimTWxHTFt3IaZMnz+SRwpk5bd22AfDTpOjEHhIgMM4fsQwK+R5Qrob86KUdk/Egy/i/IcyHdzWZsARznody7TDzgullcf9ttflxYgxKVdQnk3q0LRNjcse0O5U/23Y1itYLkqT4nLXsykHerohnp0FL29oN6a2whewCs/8Qp5ASIP2T5j2lfkQXeWuHDwBMbizLI+RG/ewPI+uQqc8DsPhVx8AZB6CS/K4KoTN89UpmM3GobuUzzyGYeqOhhP43F/ottsy59cmadN6uuOQnRiA0+fnxTlifn59X4e8Xkz3AUykyl9INQ4z0Hvajv/qArla74Qu2RfSYOfBvjhkxl15ti83NijcFca1kU9WtV+Go/8WwJf+R1KouCv+OBz95/6KQpdymXYLw2DaYdMR2iIUinIomFJcJODkv8QLj9rX3ajwbu1eIZ4Mllnz6lHIHyIWgkZhQbjDE+1OAiuG2WdFPunCpFwmeY6KMGUPanc3FFe5ed67Bz+zFhc8P/zIJ+9nfwF4+qdr8gyyaw0Ofru1pHs1T9pXYSdYcPu2PCaWW+EbLOeuXfLYEGHKha1luYkLRcg8Ux9G3Vx8z155hmGYeicygY80ZAXTp9yi9kkr2Lun2Aft1QU8E4f1vmcv2P26gaPaziNwbiRpC4cVuHzK3rwu9zw40IXiXxb8gjAoDNyTOyUggUWZCMkPbKyEkOYL+drF3+m+ZpX50lPIeMb2zeulTaJ4QAoonnTYD1gOhdMCUnBQGtDIMCxXYJ6jIkTZg9o9fxHrH4X7tpP2kIHWMmdK04dgV4CK7dLXrQBPPYBXsT6JJxMrcOfr4rFztaBgyj27Mekb0dnFM3YZpkGITOCbP32oYDpV2yGp8aprFmdgJoNfqn1jPB6ljiFhLzYkTYTSZEmm43LJaSZNta26tEYizcMocMzIEw2ASbkaDdLorQzbZvw8CocxEmpLjBv0Q2mlfPl8C3wBa3AwkcP2J3OuBZ99Lq+Z4qUZ89KgBfGLH+HpR1fhzXf+JmbOfnx0FU/ax5VMAPGk3DyX0JYyDFN/NJxJF67fhKxmLhUUadCuw80sfXyajS+5cDwFE9k49I2dqs7XapEGEhGaygYDha0NQ2qwhImwEgFGmeZMTMFSu1dKYAo0KS+hAIZ/HJpDqTnK47VIMSxXOWbwsqhC2fPYDqtn5PhC0mb6mH1Lcd3uGEo+58qsu/O5B3BYmHO3wCdhBZrbLXAHhcYn2uUx8uQOjOO7VuwHzMlf2Qap320vbC9caMWzrfDuiUeiN/GGzLPSlvpaNhiGqSsaTuCjiRTjmXXhjDqeU2N9EM+MF0yy9CU/NZsVWjt9tmwikfDs6MWYumfTkIkXT/6IBlsATfbLPCeG4NwR7Czl1brEJUDQYP8NNSwpc+DPxR+wSBgj86QXUtjQJ3QoxFgymhiQtBymwRbcd0wUwH0/7Z4YR/aVHY9jJvM/rsdDkxvWrmE+5MQJEecrGIbGOkasdTMpl0meC/jUoQlRlp1m8KrZxhSPtR93UHB1mIsNuTo1C9l4N/jNNbj0yTb4Blbh5d7yzLkkNOozXK3dzhmwOmS2HRbr3pW/fp4pfmmFybPgQA90x7Mw6zX7hWGYuqQ+BT4SvJaWtPGAzuVLhEZusVuEWVqahu7FCUhps2sJMjGn0ovQOTJdiGdsrEdeLUYsKprGN2ZyJPKxh/YkDRQowS7X5cEFGEVBomgsYh0hBAjSpKBwQOPBYnfxOGCsVTWh/Kzq+dm/nj9a1kNHCRv6eDZdoMl9ZM8GtbTrscOuly1pFH20e4SIh/Kgx4MCjk7+fbveaHkTGndo4f7K+/JixJiUyyTPRFAdmhBZ2fGjg/JIeaB42sisLyeDhMX9wejJ7RhcQYFyJ7TBH1zmXHvdOxKanCZWsVjx71cLS5jcmNoG7367Au/gtY8HHwB8+nBVJl6Y5seEMHk+Ouj8yGYYpv6xtm/fzk/sBkAzg5dGANId5c8MZqoHrfsWo+VmtNmsTHMgrAKXafHlDKQHwi++vJmxElh3g7TE1CKkaeFqV9914e/vyj2GYeqNxhvD16BYiWOQUMvG4P6p/iRAZoaFvTpELCmyQ1tuhmkq7CEcKUjPAvRPL7EvXUNoealz02PQDeO2lxLuuximoWANX40gLxxjI8nCRI1sJg0Dxy/wDDeGYZoG1vAxTP3CAh/DMAxTV7DgyDDRwyZdhmEYhmGYJmdTC3zHJpdhefKYPPJHhF2edPjH3UiUM3n3zElatsLh2B43tysrkzDVoFSeGwXhh1ZbzmQjsX5Zut2iqud6aC91r/rV+0bdzwRNADk2NAlzy8s8FtAQGgs4uTwHc9j3lpwpzTBM5NSdwCcEq7mhuusIzveS95DeuhmonDtje1FwL01By5cox/Y/vo3h5HkdkzDVoFSeo0YJQ1EKKiRUxMinbgNM5AiqZ9P6qVV7VcpG3c9qtu9IN8B4qgN6z4evp66DOXj1tftwtsQ6fLTsyvOv/WAvs/IvP8Dwi5W3xfOvUVze6QXlx4SgPIslsFLjMAv9MH35XN18RDNMs8MmXYYxwHoJX0pflbf2G9OcHD1HS7tM2DNWQy7tYq+f9wP8egfAv31Na/5582TPfXjzsTY4ceIReGF0K8Bz31fkVs06eB9efqx4MWnT/Jhgkuf8/Hk43XsI0otJGKnKYvcMw7hpSIGPvqyHJucKCyrPTXprBBPS1LIezt+E4DbxkkcM/fdemkeRlzmMeyghZuLa4eccHj4IZ57x+hDF7VxQOghaLsRhuirDn6gpKi2HR4ZfOdMUx2+0QKs0/VFYcm5P+8qkZpJn0p614nlaQJm8KqjwbjOeuCbjF9cxXT0uZdrb8hv7mBb8LZWmMM/KeMR1HxNgQbt3UZ7QcMSDW9sbTq8VomyyfuzrxXk2KTuFUyZW2mIu92im9RxUP6b3WFTlCmpTHXG/UbgSeTIhTLv7QX1DfzILEwNvFc2073qRtFvFGjI6f1Zqu/J5C87+80Mw/KcWuCHOFEOeMXRvF/lbTm8YYaH4hpIAf8wU/9YkPyaEzfOF0QnIJvvZjznD1ICGFPjEl3XnLKQ6OqCjIwWzncUu0RJDczDd1wmz6RS0t5M5th0GRq+XXAaFwo8kM5DWPHbQqvyH5G9TEwGO0PYMwmDXqAifmiCHHYMOU8WBU7RYqcrzANzs7gvtS5e8HyjTFXlUqAv2YSdPCxRLrwxwKQ9r3+G5DvtyqDzvQMHqcds8R2EpPseLfQnj/iAvTXfYjpi27vpLmfaEr1Vk5bd22AfDTrOkeOmTAIdx/IhhVsgbhHQB5kUp7Z6IB1+g+Q9lOritzYAjnPU6lok8Q2A6lFYe99telxd1AspO8QgPE5RnKjvmX8eknk3qx7S9oipXUJsW2I+/u2untYaHnmkFELbd/TjQ0w3x7Cx4eRa7MbUVvoBVeOYX8gRCGrR/wrJdmQ/R5e7KwRMQgzvL8hi5cQ/z+ugqdMrjMBx+9QFA5iG4JI+rQtg8X52C2Wwcuv183TEMEwkNJ/C5v6xtt2XOr0TSpvV0xyE7MQCnz8+Lc8T8/Pq+Dnm9mO4DmEiVv5hoHGag97Qd/9UFcjfeCV2yD6NByoN9cciMu/JsX25sULgrjGsjP6lqvwwH/S2AL+GPpOBxV/xxOMjP/RWFLuXq7BaGwbTDpiM0ZfjSz6FgSnGREJT/Ei+U8Murwru1e4V4MlhmzRtHIX8Iacti+JIngYYEKkpr7QMMs88qmlTgV3ZKi+Ip5Bm3taq+tf2JqlyEcZviRwXVs0iLyo5phRHUwrZ7EHv34Ofa4oLnByT5pf3sLwBP/5REU8muNTj47VY4q3xUm9C+CjvBgtu35TGx3ArfYJ3u2iWPDRGmXNhaFfduDkLmmfpC6i7je/bKMwzDVIvIBD7SkBVMn3KL2ietYO+eYh+0VxfwTBzW+4y9YPfHBo5qO4/AuZGkLRxW4GIpe/O63PPgQBeKf1nwC8Lgy/ie3CkBvbSVGZF8qsbKeVmTj1z8ne4jVpk4dUGkwDO2T123do+geEAKMZ502A+Yw8m/fOErDajCt+yYZyK/JP5sPFGVC6mkTT3bqxRh290H+qDsClCxXfq6FeCpB/CqbLsnEytw5+visXO1oGDKPbsx6RvR2cUzdhmmykQm8M2fPlQwnartkNR41TWLMzCTwS/MvjEeR1LHCC3XEG7KrEmmPdIGlUlOM8OqbVVpmiQizcMoaM3IE0ykVNqmDoHTEJN2D0JppXz5fAt8AWtwMJHDcpI514LPPpfXTPHSjHlp0IL4xY/w9KOr8OY7fxMzZz8+uoon7eNKJoB4Um6eS2hLGYaJjoYz6cL1m5DVzKWCIg3adbiZpY9Gs3EhF46nYCIbh76xU9X5yizSQCJCU9lg4It5w5AaGmFGDPmCdqBMaiamYKndKyUQBJqUl1DAwD8ODVIF2jq39mzDiKpcZbapRXUeVtgP0+4GXLc7mJL9hTLr7nzuARwW5twt8ElYgeZ2C9xBofGJdnmMPLkD4/iuFfsTc/JXtkHqd9sL2wsXWvFsK7x74pHoTbwh86y0pb4WEoZhIqHhBD6aSDGeWRfOqMM4NdYH8cx4wSRLX+BTs1mhtdNnyyYSCc8OWoypezYNmXjx5I9osAXQZL/Mc2IIzh3BTk5erUtcL0ga8L6hBiFlMvy5+AMWCWOlzH9SIPEa/C/GgNHkgaQFrfoMZNx3TJLAfT/tHsWT+8qOxzGT+R/X46EJEGvXMB9yYoCI8xUMQ2MdwwitWHYSLlv244Zx0MxWmqVb9npzPvVjQpTlIkzatOUwpoV1a+EWS2L+Qy6RY9ruplydmoVsvBv85hpc+mQbfAOr8HJveeZcEhr1Ga7WbucMWB0y2w6Lde/KXz/PFL+0wuRZcKAHuuNZmPWa/cIwTKTUp8BHgtfSkjYe0Ll8idDILXaLMEtL09C9OAEpbXYtQSbmVHoROkemC/GMjfXIq8WIxUDT+EZIjkQ+9tCepIECJdjlujy4AKMoSBSNRawjxAuSZnPiC5LGO8Xu4nHAeKxqQvlZ1fOzfz1/tPSHjhJI9PFa+ks995E9Y9TSrsdQoHBA2icf7R4h4qE86PGgEKSTf9+uN1oChcaoWbi/8r68aIhoC9KC7cCy0jg3Kvvd8h/eoPoxIapymbYpTdSgut1yEs+jYKkmgoTBqN0NcX94enI7BldQUN8JbfAHlznXXveOhCaniVUsVvz71cISJjemtsG7367AO3jt48EHAJ8+XJWJF6b5MSFMno8OOj/WGYapHtb27dv5SdsAaGbw0ghAuqP8mcFM9aA172K03Iw2A5dhdIR14TItvpyB9ED4xZc3M1YC626QlqpahDQtXO3qAy/8/V25xzBMVDTeGL4GxUocg4RaNgb3T/UnATIzLOzVIWLZkR3QEG7UmI3DHgqSgvQsQP/0EvvSNYSWqTo3PQbdMG57KeE+kGFqAmv4agR54RgbSRYmamQzaRg4foFnpjEMw7hgDR/DRA8LfAzDMJscFrAYpvlhky7DMAzDMEyTs6kFvmOTy7A8eUwe+SPCLk86/ONuJMqRvnt2JS2R4XB+j5vb3ZVJmGpQKs+NgvDFqi3pwdQemihxbGgS5paXecycITRmbnJ5Duawrys5o5hhmKan7gQ+IVjNDdVdx3S+l7yH9NbNAOPcGdtLgHstMlrqQjm///FtDCfP65iEqQal8hw11i+jFyzFWnPkU3cDJ3JUo1yVUOv8qFmxI90A46kO6D0f/j7qOpiDV1+7D2dLrFdHy5M8/9oP9nIk//IDDL9Y+b36/GsUl3d6QfkxISjPYsmp1DjMQj9MXz5XNx+tDMPUFjbpMowB1kv4kgy52C8TLUfP0RIoE/bMzpBLoNjrzP0Av94B8G9f09p43jzZcx/efKwNTpx4BF4Y3Qrw3PcVuR+zDt6Hlx8rXnTZND8mmOQ5P38eTvcegvRiEkaqsrg8wzD1TkMKfPSlPzQ5V1hQeW7SWyOYkKaf9XD+Jg23iZc8Yui/99I8irzMYdxDCTET1w4/5/DwQTjzjNeHKG7ngtJB0HIhDlPscPW0KyothxeJXznTFMdvtBSc31PYNrxO+8pEbJJn0p614nlabJe8SKjwbvOpuCbjF9cxXT0uZapWTvFpUeBSaQrzrIxHXPcxaRe0exflCQ1HPLi1veH03CDKJuvHvl6c56Cym5ZLhdPbgTbdXB9Uhwq/coXJjzLje8UTBnoW+5NZmBh4q2hme9eLpN0q1pDR+bNS25XPW3D2nx+C4T+1wA1xphjyIKF7hcjfcnqNCAvFN5QE+GOm+Lcm+TEhbJ4vjE5ANtnPfsMZZhPSkAKf+NLvnIVURwd0dKRgtrPYJVpiaA6m+zphNp2C9nYyx7bDwOj1ksugUPiRZAbSmscOWk3/kPxtaiLAEdqeQRjsGhXhUxMAyZFBh+nkwClaZFTleQBudveF9qVLHhKUKZY8BtQF+/ClQwsUS88NcCkvHOArv6+h8rwDBavHbXMzhaX4HMLBku1xwjZFYzti2rp7MGWq/pG8NSArv5WO8oedZmQhzJAAJx32r5DHCOkmzItS2j0RD77Q85pD/rUZcISzXscy7bDzQmnlcb/tdXlRx6fspuVSiN/es9OjtnAQUIdEULlM80P11obxr2A6Ij3Kj6t+TDnQ0w3x7Cx4eeC6MbUVvoBVeOYX8gRCGrR/wrSvzIfo4nbl4AmIwZ1leYzcuIdt8OgqdMrjMBx+9QFA5iG4JI+rQtg8X52C2Wwcuv18wjEM05Q0nMDn/tK33ZY5v1pJm9bTHYfsxACcPj8vzhHz8+v7OuT1YroPYCJV/iKgcZiB3tN2/FcXyE14J3TJPpUGTQ/2xSEz7sqzfbmxQYGiMK6NfKmq/TKc1LcAChLSZVb+rvjjcNBPDvYLTvZvYRgSZkKmI7ROKOzlUDCluEh4yX+JF0r4cFXh3dq9QjwZLLPmjaOQP0Qs4IxCh3CLJtqdhC0Ms88qmiQTVPZQYDs8OLOeD52gOjQpV7lQ+cuNZ+8e/DxaXPD8YCP/rZ/9BeDpn67JM8iuNTj47VY4q3xCm9C+CjvBgtu35TGx3ArfYNvs2iWPDRGmXNhaFTdoDkLmmfoe6p7ie/bKMwzDbBYiE/hIQ1Ywfcotap+0gr17in3QXl3AM3FY78P2gv1+MHBU23kEzo0kbeGwAtdI2ZvX5Z4HB7pQ/MuCXxAGhYp7cqcEJIwo8yj5b42VENJ8IR+5+Dvdj6wyTXoKWOTQ/54tsLkRjv6lcOZJh/2A5VCwKiAFEKUBVQSVPQw5EmARErBWh3MOf8AmdRhYLkPyF7HeUKBsO2mbmFtdJnpT6AOuK0DFdunrVoCnHsCr2L7Ek4kVuPN18di5WlAw5Z7dmPSN6OziGbsMs8mITOCbP32oYDpV2yGp8aprFmdgJoNfvH1jPK6ljiFBJTYkzaPSFFtkrgxBTjNXqk0XjAiR5mEUXGbkiQYn6joMQph+UeAk03EeBdoYCdmucX4mKK2UL59vgS9gDQ4mclhOMuda8Nnn8popXpoxLw1aEL/4EZ5+dBXefOdvYubsx0dX8aR9XMkEEE/KzXMJbSnDMM1Lw5l04fpNyGrmUkGRBu063MzSR6zZOJULx1MwkY1D39ip6nz1FmkgEaGpbDBQUNgwpGZOmEcrMS8qE5+JKVhq99yCoCLQpLyEgiX+cWgOpQYqj9dqjmEdlmMq9yOPaa2ekWP+MP1yTNXX7Qe65POpzLo7n3sAh4U5dwt8Elagud0Cd1BofKJdHiNP7sA4vmvF59ec/JVtkPrd9sL2woVWPNsK7554JHoTb8g8K22pr0WCYZimpOEEPppIMZ5ZF86oAzs11gfxzHjBJEsaganZrNDa6bNlE4mE5wtDjKl7Ng2ZePHkj2iwBdBkv8xzYgjOHcFOV16tS1yCEQ3k31ADlTKF/lz8AYuEMQ9zpEAKWu7JCIQYR0eTIpKWw8TYgvu65ilIuyfGo31lx+OYyfyP6/HQhJW1a5gPOSFExPkKhqGxjuUIrT7lMsKgDk3KVSAgPzQjWM1+prJb+3EHhUmHiduQq1OzkI13g99cg0ufbINvYBVe7i3PnEtCoz7D1drtnAGrQ2bbYbHuXfnr55nil1aYPAsO9EB3PAuzXrNfGIZpaupT4CPBa2lJGw/oXL5EaOQWu0WYpaVp6F6cgJQ2u5YgE3MqvQidI9OFeMbGeuTVYsTipGmUBJIjkY89tCdpoEAJdrkuDy7AKAoSRWMR6wghGJFGBl/8NN4rdhePIxxnFhbKz6qen/3r+aMlTXSUoKWP09OFldxH9kxYS7seO+x6aZM2zEe7R4h4KA96PCjc6eTft+uNli6hMXMW7q+8Ly+GJKhcQZjWoUm5iMD84McC/Y7OU9nbyJQsJ7CExf2h58ntGFxBgXIntMEfXOZce907EpqcJlaxWPHvVwtLmNyY2gbvfrsC7+C1jwcfAHz6cFUmXpjmx4QweT466Pw4Zhhm82Bt376dn/wNgGYGL40ApDvKnxnMVA9aPy5Gy81oM1WZjUVo8y/T4ssZSA+EX3x5M2MlsO4GaWmoRUjTwtWuPufC39+VewzDNCuNN4avQbESxyChlo3B/VP9SYDMDAt7dYhYTmWHttwMUxfYQy9SkJ4F6J9eYl+6htCyUOemx6Abxm0vJdznMMymhDV8NYK8cIyNJAsTNbKZNAwcv8Az5RiG2XBYw8cwzQ8LfAzDMAzDME0Om3QZhmEYhmGanE0t8B2bXIblyWPyyB8RdnnS4R93I1FO6d2zNGn5C93pPW1uN14mYapBqTw3CsLHrIe3CFp+xFGfWE53GStpLyYcNLnj2NAkzC0v8zg/Q2ic3+TyHMxhf1hyFjTDMA1N3Zl0SbAa6ZyA1LO239lqItKCNLT3npdnmguafNB6EiD/dunlRUzCNBoWCmDkLo2c+pezBIgXJJi1DlmwdtoZp6o/yKz7wi2XRmuLatRzpUQxk7frYA7+6ac/wsGnAP544qGiBZxpSZXDr96HN58i370x+OLTbTD8p8qEpOdf+zvGR4szF6cXlB8TTPIsJpMN9pecycswTGPDJl2GMcB6CV+OX5UWbPL/LneYDeXoORL26IMxvLBnr433A/x6B8C/fU3r+XnzZA8KTo+1wYkTj8ALo1sBnvu+Ipdp1sH78PJjxQtFm+bHBJM85+fPw+neQ5BeTMJIVRagZxhmI2lIgY++4ocm5woLKs9NDnmaIRLSrLMezt9c4TbxkkcM/ffLc8XpiLzMYdxDCTET1w4/5/DwQTjzjNeHKG7ngtJBkAbIYf4rwy+pKSoth7eFXznTFMdvtBSc8VNYcpKvmyVN8iy0Z3ieFv/VzaNu86m4JuMX112mU2UeJa0TQYsdl0pTmGdlPOK6jxmV4o39DGDtojyBFNI6aT9EsZPriw+r9KJur6A8U56U6VhtbW+se8hQ+fGsC62uA+PBv6LsFdazyf0TBnpe+5NZmBgotg50vfiDp6cKOn/2RTtsPm/B2X9+CIb/1AI3xJliyOuF7skif8vp6SIsFN9QEuCPmeLfmuTHhLB5vjA6AdlkP/sWZ5gmoyEFPvEV3zkLqY4O6OhIwWxnsUu0xNAcTPd1wmw6Be3t7WIbGL1e0kxM4UeSGUhrHjtodf9D8repiQBHaHsGYbBrVIRPTQAkRwYd4/0OnKJFT1WeB+Bmd19oX7rk2WBFOvonTxF1wT58odACxdLjAlzKC4f8Vod9OVSed6Bg9TjGJcNSfA4BYgnj/iAv4iKH/JS27taLPEnQb4XPVoRMjRT2wXDOoZkTQggJcBjHjxhmhTxhSPdnXnhp9wppvW27F6O4RFpaelG2l0meKZ9tWCcrMi8Ubm0G86fyfQvzhG0Te8k+JIRwR/Fqaw4GxRNpPQfcP2E40NMN8ewseHkNuzG1Fb6AVXjmF/IEQhq0f8L0r8yH6AZ35eAJiMGdZXmM3LiH+X50FTrlcRgOv/oAIPMQXJLHVSFsnq9OwWw2Dt1+fuwYhmk4Gk7gc3/F227LnF+kpE3r6Y5DdmIATp+fF+eI+fn1fR3yejHdBzCRKn/cShxmoPe0Hf/VBXJb3gldsr+kAdGDfXHIjLvybF9ubPDlXBAWyEes2i/D+X4L4ItfjoPL3xV/HI72yeF/wen/LQyDaYdNRwk4ORQsKC4SXvJf4oUSfnkLApGm3as1YfOsoHCF+kLEMfnJ/ZkmdJE/3Xt4Hq+Vwh2PCcZ5jvD+2bsHP6EWFzw/6sjn7Gd/AXj6pzSGTbJrDQ5+uxXOKr/RJrSvwk6w4PZteUwst8I3eO/u2iWPDRGmXNhaFddtDkLmmfon6sLie/bKMwzDNAORCXykISuYPuUWtU9awd49xT5ory7gmTis9097we77DRzVdh6BcyNJWziswFVT9uZ1uefBgS4U/7LgF4RB4eCe3CkBCRHK/Ee+WWMBAo8n5CMXf6f7f1WmSV24LGAgEFUdwzznL2I+UYBqO2mbRltdJnFChKG45O+s/Xhuxt5XmMQTSNh6rhD6yOsKULFd+roV4KkH8CrmjXgysQJ3vi4eO1cLCqbcsxuTvhGdXTxjl2GaiMgEvvnThwqmU7UdkhqvumZxBmYy+DXbN8ZjVuoYEvZiQ7iRA35pIiTTX7nkPtRMsHJzz4wVaR4uFog2iqA8kxZtZZjMzHnIo/AcI2HLNa6Owqxdw2tHZPmwPnO35EWJSTymmNRzFCitlC+fb4EvYA0OJnJYdjLnWvDZ5/KaKV6aMS8NWhC/+BGefnQV3nznbzD9L3+Hj4+u4kn7uJIJIJ6Um+cS2lKGYRqTxhvDd/0mZDVzqaBIg3YdbmbpA9VsDMqF4ymYyMahb+xUdb5oizSQiNBUNhgoHGwYUmNEY/jCmhcdKPOdiclQavc2fImUMHlG8pjf1TNyjJ2mzVMI0yoKO7GgmccB8fgSMs9RcN1+6Es+w8qsu/O5B3BYmHO3hF/i5HYL3EGh8Yl2eYw8uQPj+K4Vn3Fz8le2Qep32wvbCxda8Swty/JI9CbekHlW2lJfqwXDMA1Hwwl8NJFiPLMunFHndGqsD+KZ8YJJlr72p2azQmunz5ZNJBKeLwMxpu7ZNGTixZM/osEWQJP9Ms+JITh3BDtUebUucb2waQD+hhqfZH6sn4s/YJEwhkKIJ0sgJlLoEzoUQsNFE0KSlsNU2YL7jgkQuF8v2j3TPNMsZjULlvJP5loaI+fW4MFntnY0lsS4PZaTMY4ngnqOkqtTs5CNd4PfXINLn2yDb2AVXu4tz5xLQqM+w9Xa7ZwBq0Nm2+F/+bvn7OCo8UsrTJ4FB3qgO56FWa/ZLwzDNCz1KfCR4LW0pI0HdC5fIjRyi90izNLSNHQvTkBKm11LkIk5lV6EzpHpQjxjYz3yajH5/Hk4nsY3VHIk8rGH9iQNFCjBLtflwQUYRUGiaCxiHSFe2KTZwRc2jb+K3cXjgDF21YTys6rnZ/96/mg5Fx2aHUtmS338mC5k5D6yZ81a2vXYYdcLmTSK9aDdkxjlGYXz2Cv2dRrj2Ebmb9KIul7qVJc0eUNMkvAqn2k8UdRzhLg/Bj25HYMrKLzuhDb4g8uca697R0KT08RKx9O/Xy0sYXJjahu8++0KvIPXPh58APDpw1WZeGGaHxPC5PnooPMDmmGY5qDuPG1sFmhm8NIIQLqj/JnBTPWgdehitFzIn5uzbZq1fELjX6Gnjc2KlcC6G6Tlo9jTBsM0I403hq9BIbdFCbVsDLkw6k8CZGa4U61DaIFimsygr03XTDRz+ezhGSlIzwL0Ty+xL11DaOmoc9Nj0A3jtpcS7pcYpulgDV+NIC8cYyPJwkSNbCYNA8cv8Cw4pmbQeLzW9yzxlUeLIdeLuZphGIapPizwMQzDMAzDNDls0mUYhmEYhmlyNrXAd2xyGZYnj8kjf0TY5UmHf9yNRDm3dy9xQWY7h8N+3NyO6E3CVINSeW4UhG9YbYmRZkTdG37l3Kj7h6BJGceGJmFueZnH5xlC4/Mml+dgDvu6krOXGYZpeupO4BOC1dxQ3XVM53vJe0hv3Qxmzp2xvRZ4LbmhHPYrx/5uTMJUg1J5jhrrl9ELliTkxMinbpNO5AjDRt0/agbuSDfAeKoDes+Hv4+6Dubg1dfuw9kSa+PRUijPv/aDvfTJv/wAwy9Wfq8+/xrF5Z1eUH5MCMqzWHIqNQ6z0A/Tl8/VzUcrwzC1hU26DGOAFeCVgqk+R8/RcisT9izSkMut2Gva/QC/3gHwb1/TOnzePNlzH958rA1OnHgEXhjdCvDc9xW5OrMO3oeXHyte4Nk0PyaY5Dk/fx5O9x6C9GISRqqyuDzDMPVOQwp89KU/NDlXWFB5btJbI5iQpp/1cP4mDbeJlzxi6L/30jyKvMxh3EMJMRPXDj/n8PBBOPOM14cobueC0kHQchoOU1qZ/k1NUGnppj0yaeppiuM3WqBVmmopLDnb1018Jnkm7VkrnqcFlMnLgwrvNiuKazJ+cR3T1eNSpkblpL/tPbngr0eawjwr4xHXfUySBe3eRXkCMSk7EZRnhSM/Ilyx5w+6rqdDm56WqEeZHzsOj3Ib5ocQZaRwVD8lwgQRpp79oGexP5mFiYG3ima2d71I2q1iDRmdPyu1Xfm8BWf/+SEY/lML3BBniiFvFboHivwtp4eKsFB8Q0mAP2aKf2uSHxPC5vnC6ARkk/3sN5xhNiENKfCJL/3OWUh1dEBHRwpmO4tdoiWG5mC6rxNm0ylobydzbDsMjF4vuQwKhR9JZiCteeyglfsPyd+mJgIcoe0ZhMGuURE+NUEOOwYdppMDp2hBU5XnAbjZ3Rfaly55NlCmNPJgUBfsw5cOLeArPS7AJdttl9VhXw6V5x0oWD1umwspLMXnEDSWMO4PbGf85Nif0tbdeilTo/D9iqz8VjruH3aakYUQQgIcxvEjhlm5h8LhK6VdfpXU7gWUXRCQZ0Lkh9ycfSjzi9vaDHhqE0Wd3LPzTWnpWK9j/ZFXDLxG1/O43/a6vKgwyI9gP6ZzV6aDh0XxGBC2nv040NMN8ewseHn7ujG1Fb6AVXjmF/IEQhq0f8KyXZkP0cXtysETEIM7y/IYuXEP8/roKnTK4zAcfvUBQOYhuCSPq0LYPF+dgtlsHLr9/M8xDNOUNJzA5/7St92WOb9aSZvW0x2H7MQAnD4/L84R8/Pr+zrk9WK6D2AiVf6Co3GYgd7TdvxXF8gleSd0yT6VBk0P9sUhM+7Ks325sUGhozCujVx1qf0ynOa3AAoFH9n1n78r/jgc9uf+ikKXWjvuFoYhgSdkOqQFa0EhJIfCGcVFQmL+S7xQwi+vCq9r9woYlD0oz4X8ZPD3mteLwm/cYDoPzhRfE4spo4BDwhwJilSutQ8wnn2WQwsYlJ8CKMhSfkQ8JLFgPGEEtbD1HMTePfh5tLjg+cFGvmI/+wvA0z8l0VSyaw0OfrsVziqf0Ca0r8JOsOD2bXlMLLfCN3hf7toljw0RplzYWhWXaw5C5pn6Huqe4nv2yjMMw2wWIhP4SENWMH3KLWqftIK9e4p90F5dwDNxWO/D9oL9fjBwVNt5BM6NJG3hsAI3TNmb1+WeBwe6UPzLgl8QBoWDAF+9usmSfLzGyhEeyEcu/k73/6pMwLpwWeAZ26duuWP3TPJM+QEp4AaRI6EJIQFqdTi3vnhyh/0w51CIKyCFHV3jWEkdetZPKcLWsw/0AdcVoGK79HUrwFMP4FVMl3gysQJ3vi4eO1cLCqbcsxuTvhGdXTxjl2E2GZEJfPOnDxVMp2o7JDVedc3iDMxk8Iu3b4zHtdQxJKjEhqTJUpoI3SbNMOQ086na3J4nRJqHUbiakSdCEnWeK6XS/DiESUNM6jkIpZXy5fMt8AWswcFEDstJ5lwLPvtcXjPFSzPmpUEL4hc/wtOPrsKb7/xNzJz9+OgqnrSPK5kA4km5eS6hLWUYpnlpOJMuXL8JWc1cKijSoF2Hm1n6iDUbp3LheAomsnHoGztVna/eIg0kIjSVDQYKChuG1BgJk2VIgcGBMvGZmIKldq9sF2SGeS7HNF3EEgpX+MehPZParjxeE5RZhxblLaygGqaeDbhuP9Aln09l1t353AM4LMy5W+CTsALN7Ra4g0LjE+3yGHlyB8bxXSs+v+bkr2yD1O+2F7YXLrTi2VZ498Qj0Zt4Q+ZZaUt9LRIMwzQlDSfw0USK8cy6cEYd2KmxPohnxgsmWdIITM1mhdZOny2bSCQ8XxhiTN2zacjEiyd/RIMtgCb7ZZ4TQ3DuCHa68mpd4nph0wD8DTVQKfPkz8UfsEgYK2WOlMKP12QEMSaNJoQkLWjVZyDjvj5GrVLtnsAgz5Sf3Fd2fhwzov8x3Jg5mhyzdg3LLCdFiPy/gvHQ2EIl3IWow5bDGA/mwcItlsT6DLkkjWk9m3J1ahay8W7wm2tw6ZNt8A2swsu95ZlzSWjUZ7hau50zYHXIbDss1r0rf/08U/zSCpNnwYEe6I5nYdZr9gvDME1NfQp8JHgtLWnjAZ3LlwiN3GK3CLO0NA3dixOQ0mbXEmRiTqUXoXNkuhDP2FiPvFqMWJw0jW+o5EjkYw/tSRooUIJdrsuDCzCKgkTRWMQ6QrywabYrvrBp/FXsLh4HjLGrJmLMmp6f/ev5o+VcdJTwo48f04WM3Ef2LGBLux5DAccBacMq0e4hpnkW+aHzen5QcAtL/n27jWg5GhqfZ+H+yvvyIhKmDmmiBuVhy0k8j0KjmkwTBqN6NsT9oefJ7Rhc+Y7WtGuDP7jMufa6dyQ0OU2sYrHi368WljC5MbUN3v12Bd7Bax8PPgD49OGqTLwwzY8JYfJ8dND5ccwwzObB2r59Oz/5GwDNDF4aAUh3lD8zmKke5AYuRkuuaDNnmY1FaPMv0+LLGUgPhF98eTNjJbDuBmlpqEVI08LV3OcwzKaj8cbwNShW4hgk1LIxuH+qPwmQmeGOtw4RS5zsAHajVmfYQy9SkJ4F6J9eYl+6htCyUOemx6Abxm0vJdznMMymhDV8NYK8cIyNJAsTNbKZNAwcv8Az5RiGYRiGqTos8DEMwzAMwzQ5bNJlGIZhGIZpcja1wHdschmWJ4/JI39E2OVJh3/cjYQmFdCsR/cSF7Qch+6EnzbdtRZhEqYalMpzoyB8w2pLjDDm0ISLY0OTMLe8zGPvDKGxd5PLczCHfVTJmckMwzCG1J3AJwSruaG66+DO95L3kN66GfCcO2N7LXCvjUZLb6xIjwY/vo3h5HkdkzDVoFSeo8b6ZfSCpVjXjnzqbpKJHFHWoZpdO9INMJ7qgN7z4du/62AOXn3tPpwtse4dLXPy/Gs/2Mua/MsPMPxi5ffY869RXN7pBeXHhKA8i6WiUuMwC/0wfflc3XxsMgzTmLBJl2EMsF7Cl23IxYcZm6PnaCmVCXuGaMilVOz16n6AX+8A+LevaY09b57suQ9vPtYGJ048Ai+MbgV47vuK3JhZB+/Dy48VL95smh8TTPKcnz8Pp3sPQXoxCSNVWRSeYZjNQkMKfKQxGJqcKyyoPDfprRFMSBPSejh/04jbxEseMfTfe2keRV7mMO6hhJiJa4efc3j4IJx5xutDFLdzQekgaLkQhyl2uHrmUZWWw/vDr5xpiuM3WgrO+ClsG16nfWUiNskzac9a8Twt/tvyy/XwbvOpuCbjF9cxXT0uZapWTvppAeJSaQrzrIxHXPcxaRe0exflCQmdV2bq9Tyte5IwqUM9TCEuvK6b2E3CEKIetfy464dQdaS3FW2F9pLXTerQBHqG+pNZmBh4q2hGeteLpN0q1pDR+bNS25XPW3D2nx+C4T+1wA1xphjyRKF7l8jfcnqfCAvFN5QE+GOm+Lcm+TEhbJ4vjE5ANtnP/r4ZhimbhhT4hMagcxZSHR3Q0ZGC2c5il2iJoTmY7uuE2XQK2tvJHNsOA6PXSy6DQuFHkhlIax47aHX/Q/K3qYkAR2h7BmGwa1SET00AJEcGHSaYA6do0VOV5wG42d0X2pcueZBQpljyYFAX7MOXFy1QLD1bwKW8cMhvddiXQ+V5BwpWj9vmZgpL8TmEjCWM+wPbGf+Pb2M7Ytq6+zRlqv6RvEcgK7+VjvuHnWZkIeyRAIdx/IhhVsg7hXRJ5kUp7R6db8M8rGA8Ik8Y19oMlKcF3I/pYz2q/CgXaQ4CwlivY/3tsMtNYfK43/a6vOhC1O09Oxy1l8K0Dk050NMN8ewseHnyujG1Fb6AVXjmF/IEQhq0f8I6vTIfomvalYMnIAZ3luUxcuMe1sujq9Apj8Nw+NUHAJmH4JI8rgph83x1Cmazcej28y3HMAzjQ8MJfG6Nge22zPn1S9q0nu44ZCcG4PT5eXGOmJ9f39chrxfTfQATqfIXJY3DDPSetuO/ukBuyzuhS/bNNPh6sC8OmXFXnu3LjQ0KC4VxbeS3Ve2X4TS/BVDYkC688nfFH2jZbf8lyOF/wen/LQxDgkrIdIRWDoW9HAqmFBcJOPkv8UIJn7IqvFu75wXFVchfWFCQW/2zzA8JjZgfvewCnzCkBYyhoEQCMQlmFGbtAwyzz/KekINt9eBMmXkNwd49+FmzuOD5oUV+YD/7C8DTP12TZ5Bda3Dw261wVvlyNqF9FXaCBbdvy2NiuRW+wftp1y55bIgw5cLWqrhTcxAyz9RnULcS37NXnmEYhglHZAIfacgKpk+5Re2TVrB3T7EP2qsLeCYO633hXrDfMwaOajuPwLmRpC0cVuCqKXvzutzz4EAXin9Z8AvCoHByT+6UQDdZkq/YWAkhzRfykUuCkubfVZkviwQs4hnbp66Xdit/Ec+j0Nl20jaPtrpM0GUjhR2lJfXEHQb/0sOcQ0G4gE88ORJyERIMV4dzFfkMLgV9eHUFqNgufd0K8NQDeBXbhXgysQJ3vi4eO1cLCqbcsxuTvhGdXTxjl2GYsohM4Js/fahgOlXbIanxqmsWZ2Amg1/OfWM8PqaOIWEvNiRNltIUq5siw5L7UJoqtc0t9Ig0D6NQNCNPuCBhaQWFJTIv58nESkJkmWPdmhGllfLl8y3wBazBwUQO65vMuRZ89rm8ZoqXZsxLgxbEL36Epx9dhTff+ZuYOfvx0VU8aR9XMgHEk3LzXEJbyjAME0TDmXTh+k3IauZSQZEG7TrczNLHsNl4lwvHUzCRjUPf2KnqfD0XaSARoalsMFDY2jCkZk6YLCvRRilToYkpWGr3grRfeby+ekaOe/MyxeqY1KHUduWXxB9v3GHwLy2v40jbJJ4qc91+EEs+V8qsu/O5B3BYmHO3wCdhBZrbLXAHhcYn2uUx8uQOjOO7VnzuzMlf2Qap320vbC9caMWzrfDuiUeiN/GGzLPSlvpaEhiGYXxoOIGPJlKMZ9aFM+oIT431QTwzXjDJkmZhajYrtHb6bNlEIuH54hFj6p5NQyZePPkjGmwBNNkv85wYgnNHsPOWV+sSl2BEEx021NClzJM/F3/AImGslElXCj/6hA6FGNtGE0KSlsME20IzYLV7I0i7R9CsYTW7l8Jb+3HnO82sGqIOWw5j+hiXSPcVPKbxkC5B0y8MTY5Zu7Y+kcMvHiN86jAMV6dmIRvvBr+5Bpc+2QbfwCq83FueOZeERn2Gq7XbOQNWh8y2w2Ldu/LXzzPFL60weRYc6IHueBZmvWa/MAzDGFCfAh8JXktL2nhA5/IlQiO32C3CLC1NQ/fiBKS02bUEmZhT6UXoHJkuxDM21iOvFiMWOU2jJJAciXzsoT1JAwVKsMt1eXABRlGQKBqLWEcIwYg0VigY0Ti32F08DhhjV03EWDM9P/vX80fLuego4Ucfp6cLc7mP7FnAlnY9hsKUA9IoBmn3UJAjAYt+T2MK28jcLCdNEGHqMPeVHRfFY2GYlfflBY2gMPn37fhpKRW/eEwIqkNT3B9ontyOwRUUlHdCG/zBZc61170joclpYhWLFf9+tbCEyY2pbfDutyvwDl77ePABwKcPV2XihWl+TAiT56ODzo9ahmGYsFjbt2/nHmQDoJnBSyMA6Y7yZwYz1YPWu4vRcjN/rm7b0Oza1pO482HptEzC1DNCC3+ZFl/OQHog/OLLmxkrgXU3SEs6LUKaFq7mvoJhmDJpvDF8DYqVOAYJtWwM7p/qTwJkZrgDr0PEEic7tOVmmIqwh0ykID0L0D+9xL50DaHlnM5Nj0E3jNteSrivYBimAljDVyPIC8fYSLIwUSObScPA8Qs8426Tsxk0fAzDMMzGwwIfwzAMwzBMk8MmXYZhGIZhmCZnUwt8xyaXYXnymDzyR4RdnnT4x601tNQGObZXsyZp83Sb1WBUUi7hF9fDwwVNuqB46n0RZJOy13u706SMY0OTMLe83PTj82hc3eTyHMxhv1Fy1jHDMEwdUncmXRKsRjonIPWs7Xe2moi0IA3tveflmcZBjevKv13mOmt1SphykSDUOmTB2mlv12e1wPql7Zpt5beV58Gk7PXW7pXOwBXuzN75D3haHhNfXAi/0LF1cBX+9eh92CmPv/nLNnj7bIk17XygZVcOv3of3nyK/PvG4ItPt8Hwn1wCOE26GuznmbMMwzQUbNJlGhbrJXwRf7Vxwh4DcPQcCXv0gVbZcisk5CkPF2Wtn7ccg7dH7TheGP0J3HnqPrzzKglt4XiyB4W9x9rgxIlHMJ6tAM99X+RWLT9/Hk73HoL0YhJGqrJQO8MwTPQ0pMBHWoWhybnCgspzk0Oe5pWENDOth/M3w7hNvOQRQ//98lxxOiIvcxj3UELMxLXDzzk8fBDOPOP1IYrbuaB0VJAHCHLmr8x/bW8UmzaVmZDMoXpY3VQYFA+ZU+m8O25hZnUthizOyXiEv9kKTZKU/9jPANYuyhMIab8cpk8Pv7ZCK4jnKX+ifDKs2yxM4ZRZWG1tb9heLNR1+i1p9wha7NgrTZO2iJKgejZpd1Po+ehPZmFioFgb3/XiD54eJuj82RejF9DztyxYkJ5N8rdsd21hIW2j7u2C4tG9Ybi5MDoB2WQ/++BmGKYhaEiBT2gVOmch1dEBHR0pmO0sdomWGJqD6b5OmE2noL29XWwDo9dLmokp/EgyA2nNYwd5CTgkf5uaCHCEtmcQBrtGRfjUBDnsGHSM9ztwihZPVXkegJvdfdXzpbuUFz5nH/Tbjv1hX2kXWeRJoeVeHn78Lf7mO3lSERBP/mK+yP2WEJRQEMv/uzyBCCGEhDOMg9JZIW8Q0gVYuXhp98g7xArmlfJLnjR82YEC4+OYFxlW1IOWH4q/Dcu7gnkW5af6mYFCeuRFg34r/OciZNKlcA+Gc06NY4i2qJQw9ezb7oYc6OmGeHYWvLx93ZjaCl/AKjzzC3kCIXPpP2H5r8xXt9vpOrgKLz8Vg4ufhHTTtisHT0AM7izLY+TGPay7R1ehUx47uDoFs9k4dPv5jWMYhqkTGk7gc2sVbLdlzi9t0qb1dMchOzEAp8/Pi3PE/Pz6vg55vZjuA5hIlT8eJw4z0Hvajv/qArk/74Qu+R6ggd6DfXHIjLvybF+OnNxfURBS47tuoXBCL3Tpz7WIayiMnPEuc1A8wnUYud8iH7IKl0syJQDmLtlx0W/yX+KFUn5wDVBx6tq9sLQACkQf2XnM3xV/oGW3/dcLynehLkIQVIdREbqefdrdlL178JNlccHzI4p8xZKW7emfambVXWtw8NutcFb5GNZ4+ii5J/sBhg+Wnydbq/h3eOfoCty5sM0zHV/aV2EnWHD7tjwmllvhG7xXdu2Sxxr0HNOjHt+zV55hGIapXyIT+EhDVjB9yi1qn7SCvXuKfdBeXcAzcVjvd/eC/S4ycFTbeQTOjSRt4bCCMUjZm9flngcHulD8y4JfkCihl3+rNEeST9WYj3CVI6EAIQFhdTjnmAhgEo8QKvZhOGkStH6O/8k4BSQA4u90n6zKDOonYPnyjC1UVjJ2L3dP7pRAaC9ROGs7aZs+Wz1mApsQpi0qImQ9+7W7CfRR1eWp9lrn0tetAE89gFcxb8STCRTEvnZq3UgwHKZxdycehnc/JcHvfiF8WBb+9JAYw3fiQhs8cfT7qpiOPens4hm7DMPUPZEJfPOnDxVMp2o7JDVedc3iDMxk8Cu9b6wpxuKQgBEbwo0c+UvTXjkmO+N4PkPBCP+QoEe/EZo3D5dkuQ+lyVPbypllKvJ1GAWFGXmiSpAgtIKCEJlh8ygcxkiQco3PCyKqtghDVPUchNJu+fL5FvgC1uBgIod1QeZcCz77XF5zkc9bcGlqG1z8zg5fCQtXWuHtT2Owc9+a59i7knhp87y0fm5KaDkZhmHqicYbw3f9JmQ1c6mgSIN2HW5m6cPbbGzNheMpmMjGoW/sVHW+1Is0kIjQVFYBqemhcWPlmCALGMZDgpEw6yYxPP3GrXlTZrWozJhSu1cNIcaLPKazekaO1SMNWhitZFRtYULU9WzAdfshK/nMKLPuzucewGFhzt0Cn9SzYHS7Be6ggPpEuzxGntyB+f2uFZ/fYpSW01e7zzAMUyc0nMBHEynGM+vCGXW6p8b6IJ4ZL5hkSfswNZsVWjt9tmwikfB8OYkxdc+mIRMvnvwRDbYAmuyXeU4Mwbkj+KKQVyNFvviFaZX+koCEQkdoQsRD2jYxeeMV/E835yJCIKRJESgQ6mbRFtwPO2mjVto9gmbXqhmulK5F4xS/w3LeEqfWWZJl95qIEVVbGBBlPZtydWoWsvFu8JuzcOmTbfANrMLLvcXmXII0f13ShPvkLx7AS1g/d+4Vd0s0g3b4X/7uOfOXsHavx2PttmfbfnMtVrQOn188JKDqs3JVPGrWbhEHeqA7noVZr1krDMMwdUZ9CnwkeC0taeMBncuXCI3cYrcIs7Q0Dd2LE5DSZtcSZGJOpRehc2S6EM/YWI+8Wkw+fx6Op/GNmRyJfOyhPUkDBUqwy3V5cAFGUWgpGosYAWJMFmmj8MVP47hi+1EQkMfupVL8CBUPCjY0GYFuJk9z7kf2TFhLG18WO2yelwJSg1gT7d7jJMDa+aWxd21kliVNnevFTzODhYZTK5sSsKJqC1Miq2dD3B9fntyOwRW8N3ZCG/zBy5y7aw1+PUgTNmiyRR6+uPBweevwtT+AkzKejwf/A574y0/g7anw3duNqW3w7rcr8M47f8N4HgB8Wjo/RwedH5oMwzD1TN152tgs0MzgpRGAdAev1G8KrYsX+zIPK3/m+qoXhIa9Ak8bjYiVwDIP0jJL7GmDYZjGoeFMuo0KuWNKqGVjyDVTfxIgM8MvC0NoUWWa/OClQWQ2Dns4RArSswD900ubwpfuuekx6IZx27sIP78MwzQIrOGrEeSFY2wkWZiokc2kYeD4BZ7dxzAMwzBM1WGBj2EYhmEYpslhky7DMAzDMEyTs6kFvmOTy7A8eUwe+SPCLk86/OPWGloepOAYX27lOL2vNyopl/AfW6YXjM0OTbg4NjQJc8vLTT/2zgQanze5PAdz2CeUnHXMMAzToNSdwCcEq7mhuutwz/eS95DeDR2kTct8kMN+8p7w49v2+m/NQLnlEuvylfDs0WhYv7QF3WqtmedGza4d6QYYT3VA7/lw9zWtn/f8a7bvWuEDtwI3Zl0Hc/Dqa/fhbIk19kwJimd9Db71bfjgejixNFNqHGahH6Yvn9vQjzuGYZioYZMu07BYL+EL+avitfGYYI6eo6VUJuyZpmUspfJkz31487E2OHHiEXhhdCvAc987hCcTSGh89fc/wK93APzb17RWX3mEjeeLC48In7u0udfYy8+fh9O9hyC9mISRqizCzjAMszE0pMBH2omhybnCgspzk94awYQ0V62H8zfVuE285BFD/72X5lHkZQ7jHkqImbh2+DmHhw/CmWe8PkRxOxeUjgryEkEO/5V5tO2NYs2RMqOSOVQPq5tSg+Ihcyqdd8ctzKyuhYXFORmP8ElboSm6oN27KE8gtHSLKhOt2afScpuHTcpOYVpVHBTWq+x4ToXR41LxmORH5WXLb+zjtvfkoslUR1p6FK4Qh9za3ijPiwbd1/3JLEwMvFU0S7zrRdLaFWvI6PxZqcUjTZnugSJ/y+mhwhTyn3v2nx+C4T+1wA15rhyiikfnwugEZJP9TeFfm2EYhmhIgU9oJzpnIdXRAR0dKZjtLHaJlhiag+m+TphNp6C9ncyx7TAwer3kMigUfiSZgbTmsYM8CRySv01NBDhC2zMIg12jInxqAiA5MugwCR04RQu1qjwPwM3uvur40iWW8sJ/q20ixfLuK+H6CyEPES33Sjj2D4gnfzFf5FZMCCYoiOX/XZ5AhLBHwhnGQems3EPB5pXyhBWFr3ZvP8b95Xpa5DHDKy2/sluvo0BJ3jXwGl3P437b6/KiAuvDooWgpacNuGTHY3XI6wqf/ChztvDVi1B6VN8PhnOOslF52zC9FaxD0R6UZ3JpV+J+9uNATzfEs7Pg5RHsxtRW+AJW4ZlfyBMIadD+CdO+Mi+7i105eAJicGfZPiRu3MPyPLoKnfK44bk6BbPZOHT7+Y1jGIZpIBpO4HNrJ2y3Zc6vcdKm9XTHITsxAKfPz4tzxPz8+r4Oeb2Y7gOYSJW/kGocZqD3tB3/1QVytd4JXfJdQYPBB/vikBl35dm+HDnkqL/grP8WChUkzJRyqn8NBYgz3mUOioeEFeFWjPzMKlzuz5QAmENhiOKi3+TJ324FPmVVnLp2zwEKV6t/lmmRUIRpteyW13RKlF0s8owCDgm7JFCJcn6A8eyznNpCrI/C+EGMa1Xtu+vaND8hoLgKbROSvXvwU2NxwfPjh/zJfvYXgKd/uibPILvW4OC3W+Gs9A0M7auwEyy4fds+FCy3wjeQh1275HEd8/RRcsH2AwwfLF1/9IzSYxzfs1eeYRiGaWwiE/hIQ1Ywfcotap+0gr17in3QXl3AM3FY75v3gv1OM3BU23kEzo0kbeGwArdQ2ZvX5Z4HB7pQ/MuCX5AoIYFImRrJD2zMR7jKkfCFkACxOpxz+Kk1iUcIb5ogZP0c/5NxCkgAJAFH8++qzJdlCz3P2EKlkXZLCilFWjekZNkxLD0YORRyC/jEE4oy4xHaVBQw207apuPWX2qCZwjoY6grQA136etWgKcewKvYdsSTiRW483VM7DcyJMwO/247vHDiYXj3UxL87hfKWJLOLp6xyzBMUxCZwDd/+lDBdKq2Q1LjVdcszsBMBr/k+8aaYrwOCWmxIWmOlCbUIlOtAcbxfIaCCP4hQa+gefOYNZv7UJoqtU0XLk0R+TqML+8ZeWKTQELpCgqlZFrPk1mYBGjXOD8TlObKl8+3wBewBgcTOaxvMuda8Nnn8hrhpc3z0vrVKTTm79LUNrj4nV1GX0poQhmGYRqNhjPpwvWbkNXMpYIiDdp1uJmlj3Oz8TcXjqdgIhuHvrFT1fmaL9JAIkJTWQWkRk2YI8s0+QkM4yFBRJh1kxiefuPWvCkzYCmTclikds9YWJQanPyS+GMGhiUxwKGBLCceLyqMJ4/lXj0jx/yR5rQMLel1++Eoea8rs+7O5x7AYWHO3QKf6G16uwXuoED4RLs8Rp7cgde/a8X7vDlQmlBfzT3DMEwD0XACH02kGM+sC2fUMZ8a64N4ZrxgkiUtxtRsVmjt9NmyiUTC8yUnxtQ9m4ZMvHjyRzTYAmiyX+Y5MQTnjuDLRF6NFGUyJNMq/SUBycMUG0iIeMS4NPwbewX/0825iBAIM7ZAqJshW2jmakjh2lS713IY4/5HujcwPOaphcbXhRB+83/NCSFWTa4oNx6FUX6kkFlycs0v12c2UzwWjZv8zmV2NuTq1Cxk493gNx/h0ifb4BtYhZd7i825JBDqs3Kt3c5Zuzrra99VtsZeFPGQtrJLCtxP/uIBvIT38517JbrAAz3QHc/CrNfMFoZhmAakPgU+EryWlrTxgM7lS4RGbrFbhFlamobuxQlIabNrCTIxp9KL0DkyXYhnbKxHXi1GLLqaRskkORL52EN7kgYKlGCX6/LgAoyi0FI0FjECxHg00v6ggEXj5WL7UeCSx+6lUvwIFQ8KhzShg24mT3PuRzlYwaq1tHF8MRSCQiM1iEFCV+4rW1ijcYfWPYCV9+WFEOTfx/LSbGKMo5J4CJP8KCFTH+voEIgft+Og8xRPG5na5aSSsLg/mjy5HYMr2KY7oQ3+oJtzJTemtsG7367AO+/8DT4efADw6cNFa9oFYa+fZy+A/PHRVTyzCm9ifGJR5N+vGi/xYhzPrjX49aB9/p2jefjiQuk8Hx10fkQyDMM0Otb27du5R9sAaGbw0ghAuqP8mcGbDVqHLkbLoPzZu75odm3rSdz5sHSYWlJv+dERmvHLtPhyBtID5S2+3IxYCayXQVpCaRHStCg1P5sMwzQJjTeGr0GxEscgoZaNwf1T/UmAzAy/UAwRS6Xs8NYgMuGxhzGkID0L0D+9xL50EVo+6dz0GHTDuO2BhJ9NhmGaCNbw1QjywjE2kixM1Mhm0jBw/ALPAIwQ1vAxDMMwjDcs8DEMwzAMwzQ5bNJlGIZhGIZpcja1wHdschmWJ4/JI39E2OVJh3/cZoaW/lCO/zcK4YN3A9Kvh7L7QRMujg1NwtzyctOPvaNxdZPLczCHz2nJGcUMwzBMIHUn8AnBam6o7jr3873kPaSXB3KXifVLj6VGfBBr1pXw2rGZUbNrR7oBxlMd0Ht+/X7sOngfztJSJGL7AYZfLO9eff41FYe+Ode/iyotoutgDl59jeIrXmNPLJeUGodZ6Ifpy+c2zQcXwzBM1LBJl6lLrJfwxf5VeevMNTNHz9FSKhP2LNKipVS2wB9HH4EU+YsdbYMnnvsehg+GF5A++dftIg61nfg05uFFo/K07PXzfoBf7wD4t69pzT9v8vPn4XTvIUgvJmGkKgujMwzDND8NKfCRlmNocq6woPLcpLdGMCHNXuvh/M1CbhMvecTQf++leRR5mcO4hxJiJq4dfs7h4YNw5hmvD1HczgWlgyCtV+twi1j4mDwvkNmRtGZepkdhDpXXhc9V6aVBQXHRunbiuornDduzhBuKqxBPUfkxT1o8bbivh1Hm0S2/sY9pIeNScSkK2r2L8oSGo1wiPWeeRb1g3KXyQ6g8Ub3pYVtddURUWnbT9jKB7sf+ZBYmBt7ynN29cKUFPlGu7OTCyU//dM0+LhPycPHr5wAuTjq9aESRFvm0PfvPD8Hwn1rghjznx4XRCcgm+5vC5zXDMEytaUiBT2g5Omch1dEBHR0pmO0sdomWGJqD6b5OmE2noL2dzLHtMDB6veQyKBR+JJmBtOaxgzwSHJK/TU0EOELbMwiDXaMifGqCHHYMOsxPB07RYq4qzwNws7uvfF+6O1AgejwPK/22BwvyzuAQekgoIoHp7Tz8+FsMRx4jpJswBWnQ2vYBrGCYBxgPhVsjF2nu+tmPv7trx0Ov87bX7dMK63XMC3l9wOsUJo/7ehjh9J/iJy8dCIWj9B4M50pq70pp90S5khjnhzIO3IryvIT5/ECWCcsGWMaS7sqo3u7JsqHAUkSFZS8Q0F6mHOjphnh2FsJ4+/rm2/Dp6Bx+9T/g6b9shbNKuPOh0rQCuToFs9k4dPv5hGMYhmE8aTiBz63lsN2WOb/8SZvW0x2H7MQAnD4/L84R8/Pr+zrk9WK6D2AiVf5iq3GYgd7TdvxXF8j41Qld8r1EA88H++KQGXfl2b4cmhZA4eEjO5/5u+JPwYk+aZVaUNjLXUKB6a+UFm7k3zbAny6Fo/BFfJmH1T/b8axdwuN968KKWAwZBSoSsEjoEmE+wLQxjJe2zASVf7d2r1CujJ0fhTvPdFw4dwvLRYLc4/ZhEddQMDzjUWZFRGX3a68w7N2DnwiLC2ZrNwpfsa3wx6nyH3Fr9yq8/FQrvHvW6Uu3iAjSMoGeG3q04nv2yjMMwzCMKZH10KQhK5g+5Ra1T1rB3j3FPmivLuCZOKy/B/aC/W40UIV0HoFzI0lbOKzAvVT25nW558GBLhT/suAXJAy5e3LHC/I3i8Kd7pNVmVN1ISN/EQUVFIbaTtpmzdYQZsZCPB32DeRw4C81QRZeK4tnbH+5Xto/KhdIgakUupmVfM7GfATdHAnCCAlrq8O5QB+9RDll920vQ+gjpqtTHgRgHbwP/3o0DxdHH4JPTITDEhx+/j7s/MsW3ziiSisUnV08Y5dhGCYkkQl886cPFUynajskNV51zeIMzGQA4n1jTTU2KKeZPdWmCzQk5KygkENmzzwKJDESED3GqXnhEHIihIS12GHM24w8ERLx+yFpZpXmbE9TbQVUq+xBKO1WEKSVIwHsyuhPjMywpbC1ezG4+Elp7V5UaYXGVMvJMAzDFKiuDaYaXL8JWc1cKijSoF2Hm1lSBJiN9blwPAUT2Tj0jZ2qjuagSAOJCE1lFVAv3lJmTBd5FAJXz8gxdqQZ9DE1WhSnLkAtoQCEfxy/2W3XXx6vhUZq90pp2nzNs4TUbgozq4G2LgxVL7sB1+2buuQ9ShMshgbvw50LlQtgtnav9Ni9KNMyRWk5fbXpDMMwjCcNJ/DRRIrxzLpwRi+BU2N9EM+MF0yypA2Zms0KrZ0+WzaRSHi+LMWYumfTkIkXT/6IBlsATfbLPCeG4NwRfHHJq1EixpLRxICk5TDTtuC+rr2jWaNq5i5pxqz9uIMCjVuD1XIYf4fhLNxiSbyuTabI/zUHa9cAYnJCiNCwvYK/ueYhtEkBqdQEiiDtHpUr95VdLn2WK+WtUC4peFg/F3/AIgHSx6QbRGRlj4irU7OQjXdDqTkLYoLFd9vgD5/LEyUgYW3YY209BV1/5imAL74urd2LKq1QHOiB7ngWZsPMWmEYhmEE9SnwkeC1tKSNB3QuXyI0covdIszS0jR0L05ASptdS5CJOZVehM6R6UI8Y2M98moxYoHXNEpKyZHIxx7akzRQoAS7XJcHF2AUBZuisYgRkfvIng1qaeP4Yii8OHjcFlbUWLc2MoPKCQg6NFmBwm05ib9HYUZNPlDk30cBk2YBYxwUj4X7K+/LixpKQNLHFjrMx6Sd89HuEaJcpInUy4V5U4ixeHQdhUJxbT/mTR7T0ihhiarsUeH+2NGhNe12PYY7j96Hd975m1wQ+e9wtpwFkXfl4AmIwZ1leewiqrTsdfjs3358dBXPrMKbKr7fr0KXq4xHB50fdgzDMIw51vbt27n33ABoZvDSCEC6o/yZwc0ErQkY+xKFKm0GLlOM0GhfpsWXM5Ae8Fp8ufmwEljmQVrWaBHStOA0Py8MwzChabwxfA2KlTgGCbVsDO6f6k8CZGb45YWIJU52ALtRM8AefpCC9CxA//TSpvCle256DLph3PYuws8LwzBMWbCGr0aQF46xkWRhokY2k4aB4xd4tiHDMAzDMFWHBT6GYRiGYZgmh026DMMwDMMwTc6mFviOTS7D8uQxeeSPCLs86fCPuxkR/mxDeOWg5Ura5IxatZXrds0Emvyx9Y1o46eJEseGJmFuebmhx8zReLjJ5TmYw3u+1Fp+DMMwTHNSdwKfEKzmhuruhXS+l7yH9G7qQeNirTnycxticoXw6CE9ffz4tr0WXyOhZsWOdAOMpzqg97yz/bsO5uDV1+7D2QrWmaPlSZ5/7Qe5vMkPMFzOUipIUDxi6aHUOMxCP0xfPrfpP14YhmE2E2zSZYyxXkIBQVt8eDNw9BwtgTJhzxDVlkCx15D7AX69A+DfvgbYKc+Xw5M99+HNx9rgxIlH4IXRrQDPfQ/DB8MLYybx5OfPw+neQ5BeTMJIVRYZZxiGYeqRhhT4SOsyNDlXWFB5btJbI5iQZrj1cP6mLLeJlzxi6L/30jyKvMxh3EMJMRPXDj/n8PBBOPOM14cobueC0kHQ8iVkHiWTqjBdkol0uNhESpq4wnW5tb2heaRAlKmV4mrDOFS4UubWgnbvojyhIcy88vdeaZlA8bdqeW7Dfa84wqZViYmX2r8/mYWJgbeKZlPn8xac/eeHYPhPLXBDnisH8kTx6+fW4ItMGyxgGvlbLfCHT2PwdHKlaOFhP8LGc2F0ArLJ/qbyH80wDMOUpiEFPqF16ZyFVEcHdHSkYLaz2CVaYmgOpvs6YTadgvZ2Mse2w8Do9ZLLoFD4kWQG0prHDvJscEj+NjUR4AhtzyAMdo2K8KkJctgx6DCZHThFC8eqPA/Aze6+8n3p7kch58s8/PjbPKzcW3fvpSBNXNs+gJW387YpFcOtzYCnZo48X7Tcs+Na033Fuiil3RMCWBLr6kM7LdpKpeWH9ToKlOTtA/NBecnjftvr8qIkbFoiPNVDmd4vDvR0Qzw7C1X15OXh1eLGPazrR1ehUx4bETaeq1Mwm41Ddyk/bQzDMExT0XACn1vrYrstc2orSJvW0x2H7MQAnD4/L84R8/Pr+zrk9WK6D2AiVf7CrnGYgd7TdvxXFxbx/07oku9SGiw/2BeHzLgrz/bl8KCwt/pnigc3EngexYbUnfi7EH5oS7ksu4bC0xn/MguNoYd2T53PZez8KEqmVQKx8DIKZmvStRvld+0DjGefVdA4hk3L+qUtHK6h0BtW+FTs3YMi+eJCdddKbF+FnWDB7dvymFhuhW8gD7t2yWMTQsZD9yDdpvE9e+UZhmEYppmJTOAjDVnB9Cm3qH3SCvbuKfZBe3UBz8Rh/d21F+x3tYFqpvMInBtJ2sJhBW6qsjevyz0PDnSh+JcFvyBlc8vOs9Uh/gjyF1HI+Q6g7aRtrm31mVWb+9L+K/zQDue8fdk+Y/u59RKcLBQ24a69XzaYd7oRc7fsQ4FHuYzT2oGC4m+kcBhS+FTQR0NXKBVbg9LZxTN2GYZhNgGRCXzzpw8VTKdqOyQ1XnXN4gzMZADifWNNM55JzIxF4e3Ht/OQJ5Pvbywx1i/suDpCjN07jHHOyBONAAqna9fw5k6uawjDojRgVcdLC+elrQui3HiqrcFkGIZh6oLGG8N3/SZkNXOpoEiDdh1uZkl5YTY+6cLxFExk49A3dqo62o4iDSQiNJURsNvOb35J/HGQ/2seVs+g4PchHgSYfUsitXulNGV5Gvf3uL1fNph3Wq7FkT+PcoVJK/++PSbRPb4xDNftm6i6GrDbLXAH1uCJdnmMPLkD6/q7VrxnQhAyHqXB9NVMMwzDME1Dwwl8NJFiPLMunNGL69RYH8Qz4wWTLGlnpmazQmunz5ZNJBKeL28xpu7ZNGTixZM/osEWQJP9Ms+JITh3BF+28mpYWg6jEPOPVHYLBRo8vuYUyFp+2SKuExTG2o87KPw4TKYGBGn3xNjArzC9pOVYjJnSDiNk5f+aExo5JZx5lStsWmIc4Gn8DQq67skfplydmoVsvBsqnddAM2iHxdp4xWv15fPO2bTWbudsW52o4hEc6IHueBZmqzojhWEYhqkX6lPgI8FraUkbD+hcvkRo5Ba7RZilpWnoXpyAlDa7liATcyq9CJ0j04V4xsZ65NVixKK06QxNr4187KE9SQMFSrDLdXlwAUZRiCoai2gICT4kHG15D1/s9zxmoT5uX6dlSyhMG81+lRMiQrGb4vcfB5f7KAcrpEEks7FcKoXSDovQyGFZ2jC/pcoVNi0xLpHC78M6+FUZeXJ9XOjY6/CR8PV3+PjoKp5ZhTff+Zu96PHvV0MtqXJjahu8++0KvIO//3jwAcCnD8PwlZBthYSJ5+ig8yOJYRiGaW6s7du3c4+/AdDM4KURgHSH+cxgms3aehJ3PszDijZTtVrQGnaxL2uTVr0iNMiXafHlDKQHnIsvNyJWAsszSEsELUKaFpMO+xHAMAzDNCSNN4avQbESxyChlo3B/VP9SYDMTN2+cMVSKTvCuVFrRmxzfwrSswD900sN70v33PQYdMO47TmEhT2GYZhNA2v4agR54RgbSRYmamQzaRg4fiHUDMlaa/gYhmEYhmkOWOBjGIZhGIZpctikyzAMwzAM0+RsaoHv2OQyLE8ek0f+iLDLkw7/uJsR4Z/Wx3NHI0GTUmimb7nr9G0UNJHk2NAkzC0vN/yYwsnlOZjDZ7Cqax0yDMMw9SfwCcFqbqjuXgDne8l7SO+mHugu1scjn7obOJGDfORGJaTlzuTgQX+ubF+7G4GaNTzSDTCe6oDe8+t57zp4H86Kdfpo+wGGXyyvXLTkzPOv/VBxPEH5EUshpcZhFvph+vK5Tf8xxTAMU03YpMsYY72EL+SvyljPj4mMo+doiZgJe5Zt0RIxW+CPo49A6nfb4YXRNnjiue9h+GB4IerJnvvw5mNtcOLEIxjPVoAy4zHJT37+PJzuPQTpxSSMVGXRc4ZhGIZoSIGPtBxDk3OFBZXnJr01gglp9loP5286cpt4ySOG/nsvzaPIyxzGPZQQM3Ht8HMODx+EM894fYjidi4oHQTN0m0bt02qyhxJPnLd/mJJE1e4Lre2N5weKSiMiqsN41DhSvmeLWj3LsoTGsLMK39fKq1WLT9tuF90HfNAiyOTlxAVl246Vvnd8hv7mBZoFvG5fASL32vlKUpL1qG67uVj2CQ/CkfZKS6PtqDrpvXsB92P/cksTAy85Tm7e+FKC3xyS56/HYMr3wE8/dM1+9gQ8uahe+jI33J68AhDmPxcGJ2AbLK/afxZMwzD1BsNKfAJLUfnLKQ6OqCjIwWzncUu0RJDczDd1wmz6RS0t5M5th0GRq+XXAaFwo8kM5DWPHaQp4VD8repiQBHaHsGYbBrVIRPTZDDjkGHierAKVrsVuV5AG5295XvS3c/CiJf5uHH3+Zh5V6xv1jSxLXtA1h5Oy9MlhRubQY8NXMtv8Hf3rPjIt+zpSil3RMCTxLr6kM7LdrcaVmvo7BI3j4wDUonj/ue7s52YLjHsUwYx0pG5k2Wi7xm0HnhFxihuER6wy6T7BKW4wNZbiw/YD3EnpHXEHLjRvHQdUrDF5/8EKLsJARjOqot2lxtoTCtZz8O9HRDPDsLYbyhffNtcV582ZWDJyAGd5blMXLjHsbx6Cp0yuNKKJmfq1Mwm41Dd6V+7BiGYRhPGk7gc2s5bLdlTu0AadN6uuOQnRiA0+fnxTlifn59X4e8Xkz3AUykyl+MNg4z0Hvajv/qArmr74Qu+e6iwemDfXHIjLvybF8ODwp7q3+meHAj4epRbMjd8poHwg9tKfdo11A4OuNfZtJStXho99T5XMbOj0JPSyzgjEIXCWEkmAkftx9gmH1WkZarBVBo+sj+bf6u+ONbLi8o7UL6tzAeEq4etw/D4pefQtkv2emJtvgSL2BbeGJQz0Hs3YOfCIsLZms3/uIBvPRoK/xxKuQj3r4KO8GC27flMbHcCt9gXezaJY/LISA/9EzQYxPfs1eeYRiGYaIkMoGPNGQF06fcovZJK9i7p9gH7dUFPBOH9XfFXrDfjQaqkM4jcG4kaQuHFbjNyt68Lvc8ONCF4l8W/IKUjTSZWR3ijyB/EYUQFHTaTtpmxFYPU6QiR0IKQgLL6nDO22/uM7ZPXS8NoUUCjhSGPMF80U2WQ+GrgEeeidw9uVMBwhwrzcfkkzdWSgAzwDc/5GeYBG3Nr68yN3sJqUb17AN9xHQZqtisg/fhX4/m4eLoQ/CJiXBYZULlp7OLZ+wyDMNUgcgEvvnThwqmU7UdkhqvumZxBmYyAPG+saYZP0RCxQoKFWTSzJPJl4QSj7FqJpAAFTuMcc7IE3WMyOsQbmQ+lmbWcs2npuQ0U7bawgpzJigNWBDW7lUhXF0Z/QmcVePnwuClzfPS+hkSOj+mGkyGYRgmFJEJfDXj+k3IauZSQZEG7TrczJKywGw80IXjKZjIxqFv7FR1tAtFGkhEaCojYLed3/yS+OMgj4LH6hk57i3A7FsSqd0rJcQEmkwxXzn840jbJ88VIbVuwnxcBaHLgRJeyjQXl8N1+6YueY/ShIuhwftw50KZwh5xuwXuwBo80S6PkSd3YFzfteI9HI4w+VEaTF9NOcMwDFM2DSfw0USK8cy6cEYvilNjfRDPjBdMsqQNmZrNCq2dPls2kUh4vizFmLpn05CJF0/+iAZbAE32yzwnhuDcEXy5yathaTlsidmgQqP1Ch5fcwpkNLNUzRalMNZ+3EHBzGFWNSBIu0eaxNxXmF7ScsxgpbQLky3+moO1a+sTS0rl2RgpQOoTMQpIocL6ufgDFgmrFZh0/aCyr9FEDiy7bjJvwf1yNKkmXJ2ahWy8G0rNazj86n/A099tgz98Lk+UgASxYbE23n143pXXfN45K9fa7Zy1q+MXD2GaH8GBHuiOZ2E2zIwUhmEYxpj6FPhI8Fpa0sYDOpcvERq5xW4RZmlpGroXJyClza4lyMScSi9C58h0IZ6xsR55tRixCGwa3+DJkcjHHtqTNFCgBLtclwcXYBSFqKKxiIaQkEUCFI1Rs+4BrLwvLyget6+rcWxtZOKUkyZCQRozH+0ekfsoByukQdTGslHaOvn3UTiiGayYl5J5NkQJkPrYuYJwieVbpbygECbysR/Tlce0xErUiLLjLWPpZUdhvFq4P3Z0aLHkXY/hzqP34Z13/iYXO/47nC1j0eQbU9vg3W9XRDwfDz4A+PRhGL4SLp6w+Tk66PxoYxiGYaLF2r59O/ewGwDNDF4aAUh3mM8MphmvrSdx58M8rGizYqsFreUX+7I2aTFmCI32ZVp8OQPpAa/FlxsLK4HlGaQlixYhTYtJh/0oYRiGYYxovDF8DYqVOAYJtWwM7p/qTwJkZur2BSeWU9kBG+pGjSnGHn6QgvQsQP/0UsP70j03PQbdMG57DmFhj2EYpmqwhq9GkBeOsZFkYaJGNpOGgeMXQs1IrLWGj2EYhmGY5oAFPoZhGIZhmCaHTboMwzAMwzBNzqYW+I5NLsPy5DF55I8Iuzzp8I+7GRH+Y308d/hBk0D0WbVRQ0u+tMnZsmpzu29rRKhcrcNY71WYaRwETRI5NjQJc8vLDT9ecHJ5DubweS+1jiHDMEwzU3cCnxCs5obqrlM+30veQ3o39cBysYYe+dQtcyJH7oztiSL08jCGCA8j0tvFj2/b6/Ux5aNmBI90A4ynOqD3/Hq7WQdX4axcakUst/Laqli3Lyy0fMvzr/0g4/kBhstYRoYIikcsu5Qah1noh+nL5zb9hxvDMJsPNukyxlgv4UvyqzLW82MakqPnaPmXCXsGrXv5l+UYvD36CKR+tx1eGP0J3HnqPrzz6pq8aM6TPffhzcfa4MSJRzCerQDPfQ/DB8MLYybx5OfPw+neQ5BeTMJIVRZYZxiGqV8aUuAjzcPQ5FxhQeW5SW+NYEKaotbD+Ztz3CZe8oih/95L8yjyModxDyXETFw7/JzDwwfhzDNeH6K4nQtKB0GzdMlkSSZVZR4lH7lusyVp4grX5db2htMDhDJ/UlxtGIcKV8oEWtDuXZQnJEFpqTwXrnv49CUz8VaMo1XGo+dJ5ce07KYI0zTFIeNRnknC4ogHN3c9k9cTvX7bMO9eJu2geBQiPhXGw7QeVbno3u9PZmFi4C3PmeT5WxYsSM8m+Vst8NlfxG4oyFOH7sWD4tG9fJgSNp4LoxOQTfY3je9shmEYExpS4BOah85ZSHV0QEdHCmY7i12iJYbmYLqvE2bTKWhvJ3NsOwyMXi+5DAqFH0lmIK157CDPBofkb1MTAY7Q9gzCYNeoCJ+aIIcdgw6z0YFTtLisyvMA3OzuK9+X7n4UBr7Mw4+/zcPKvXW3ZQrSxLXtA1h523bsT+HWZsBTM0ceK1ru2XGtkV/cEpTS7gWlRZ4xlJmVvFKUBOOwaJFn6UUDLtn5sTrkdUVA2U0QQhEJr5hnFU9bufEksYwf2mWnraiel7AcH8i6wfSonG63cEbxEDtQ6H7cNltTXYq20/IcVbmIAz3dEM/Ogomns66Dq/DyUzG4+ElMnjFkVw6egBjcWZbHyI17mNdHV6FTHhsRNp6rUzCbjUN3KR91DMMwTUjDCXxuzYPttsz5xU7atJ7uOGQnBuD0+XlxjpifX9/XIa8X030AE6nyF3+Nwwz0nrbjv7pAbuY7oUu+T2jA+GBfHDLjrjzbl8ODAs/qnyke3EgweBQbcre85oHweVvKPdo1FDLO+JdZaPE8tHte+KblBwp3hbGB5GdX7T8u/ypClt2NKksOBUrKp4jnS7wQ0uduIZ6MnR+Fu+x0XDh3C+uHhGqtTKbxEC2AQtxH9vn8XfGnUPaoyqXYuwc/RxYXfNeJ7HrRHjP3ztEVuHNhG5yVGj9j2ldhJ1hw+7Y8JpZb4Rss565d8tiEkPHQ80ePaHzPXnmGYRim+YlM4CMNWcH0KbeofdIK9u4p9kF7dQHPxGG9/94L9vvKQD3ReQTOjSRt4bACN1XZm9flngcHulD8y4JfkLKRL1ldE5a/iC99FCzaTtqmUd25v5scCQUICQirwzlvv7nP2D51vTSEYdKKHI+yB0L+gUlI1PzfbvmNfUkXHElbpq6rzT1LluIBKXiVggQxZaomP8IxDwHMJB4id0/ueGFYLhPog6nLQMW28KeHxBi+Exfa4Imj35flt3dD6eziGbsMw2waIhP45k8fKphO1XZIarzqmsUZmMng137fWNOM6SHhbQWFNzIh5snsSUIAjecq4+VGAkvsMMY5I0+4iDKtWpLTzKdq04Xd3EfOa7Qp7Zopou6GcNthm7yDzOZREFQuE5QGzJSFK63w9qcx2LlvLdxMXS8tnJe2Lohy4wnQYDIMwzQTjTeG7/pNyGrmUkGRBu063MzSB7zZGJ0Lx1MwkY1D39ip6nzxF2kgEaGpjIDddn7zS+KPgzy+6FfPoDD2IR6Q9iekpkcgtXtBQkMkaYXFp+wlUWZHt6m4DNzm2SKk1o3G8HmZaBWB8ZgQYbmI6/YDVF0N2O0WuANr8ES7PEae3IHl+K4Vn5cQhIxHaTB9tfIMwzBNRsMJfDSRYjyzLpxR531qrA/imfGCSZY0FFOzWaG102fLJhIJzxeYGFP3bBoy8eLJH9FgC6DJfpnnxBCcO4IvHHk1LC2HLTH7UmiQXsFjGvOmCRQ0k1PNzqQw1n7cQaEid0ucMiZIu0dElZYpQWUPgjSSazThIWk5zM8tNPsX4zSF4sl9Zcejz5alvBXiUSbnn4s/YJHwTOZbDaN4DIiqXIqrU7OQjXdDqXkN1u48dEmB29ptz5L95lpMzJLVoRm0w2JtvPvwvCsf+bxzNq2KR8221YkqHsGBHuiOZ2HWZEYKwzBMk1CfAh8JXktL2nhA5/IlQiO32C3CLC1NQ/fiBKS02bUEmZhT6UXoHJkuxDM21iOvFiMWZk3jGzM5EvnYQ3uSBgqUYJfr8uACjKIQVTQW0RASEGh2Ko0Js+4BrLwvLyget6+rcWNtZFIkLZPXy88P0lAFafeiSsuQwLIbQOZamuVqaePdYihIhkXEQxpNPR7Mm4KEsFW6jkKYuLYfhTJ5rI8HDIrHlKjKRbg/rIpofwAnB/8mJm18PPgf8MRffgJvT4XvTm5MbYN3v12Bd975G8bzAODTh2H4Svh7J0w8RwedH4gMwzCbAWv79u3c620ANDN4aQQg3WE+M5jWoms9iTsf5mFFm9FZLWi9uxgtlVKDtIKoddkZrHPSnl+mxZczkB7wWHy5wbASWJ5BWh5pEdK0mHSVPkoYhmHqkcYbw9egWIljkFDLxuD+qf4kQGambl86JGDRZINy3agxjY891CEF6VmA/umlhvele256DLph3PYcwsIewzCbDNbw1QjywjE2kixM1Mhm0jBw/EKoWYKbWcvFGj6GYRiGKR8W+BiGYRiGYZocNukyDMMwDMM0OZta4Ds2uQzLk8fkkT8i7PKkwz/uZkF32C+2N+pnYWXhP1ZbhqTRoOVlHHWLW6tc5qba0KSMY0OTMLe83NDj80ygMXyTy3Mwh897VdcWZBiGqVPqzqRLgtVI5wSknrX9zlYTkRakob33vDzDuCmMncvkQ3uaqDYkLLUOWbB2unrLwNQSVdf5t8OtLVgOlc7Aff61v8ObT8mDAq3w7omH4JMw41KtPBx+9T7GtYZHMfji020w/KfwAlnXwftw8ih51yC84xGTpQb7eZYuwzCbEjbpMkbk/13u1BHWS/hC/6o5hL1ac/QcCXv0YVXeciuf/Ot24UdXbSc+jYX3kIE82YPC3mNtcOLEI/DC6FaA576H4YPlaOC2wB9HHxF5eWG0DZ7wiCc/fx5O9x6C9GISRqqywDrDMEz90pACH2knhibnCgsqz00OeZppEtJctR7O35zjNvGSRwz998tzxemIvMxh3EMJMRPXDj/n8PBBOPOM14cobueC0iaQVovWx9NNgG1vrHtTIC0RmQjdJlfd9En7ZJZVTv3pfNuwva/MicrUuOWkfZPETq4v5qv7yhVaNi0/bS5zr7iO4WmhYd00rJthTfLshuKN/Qxg7aI8oSF+J9Ox8+T0NhFFngkK59cWRFBaYXCUi9qgTNMv3df9ySxMDBRr0bte/MHTmwWdP/uit2BIXjB+/RzAxckSni1KYP9u3SNG/pbTY0YYFq60wCfKvdztGFz5DuDpn5LWsJgLoxOQTfY3je9shmEYExpS4BPaic5ZSHV0QEdHCmY7i12iJYbmYLqvE2bTKWhvbxfbwOj1kmZiCj+SzEBa89hB3gYOyd+mJgIcoe0ZhMGuURE+NUEOOwYd4/0OnKIFX1WeB+Bmd19ZvnRJq9W2z3bGT47xhUP+GVjXcuFLj3yzxl6yDwkhmJBwpK+ph3FYtKjyNbwJfoP5vGQ79rc67MvkJWKF4n8b48bjNZme2IZzhfSs11HwIu8amA/KSx73214Xl5zswHCP23GSNwhKsyD4mOZZo5R2TwhFScz/h+v5ddQPEkmekcC2QIzTCkCUi+oD06J4Vu5hPK8482PKgZ5uiGdnwcuz2I2prfAFrMIzv5AnEDK7/hOW88q8d3dx+NX/gKf/shXOKoHLlF05eAJicGdZHiM37mF5Hl2FTnlcCd98W6Jurk7BbDYO3aX8xjEMwzQhDSfwubUTttsy5xc7adN6uuOQnRiA0+fnxTlifn59X4e8Xkz3AUykyh/XE4cZ6D1tx391gQxbndAl3yc0YHywLw6ZcVee7csVIXyxauO9Cr5Zf6YJA+TD9Z5LOEIBqyBMkT9atR/C+T5p5mIoCKxJV2rCn+sHKPDss4omHrQACilyDGD+rvgDLbvtv8Z5lhSEQZd2T53PZbA82lp9ev1ElWcv3G0RJi0/CuVCoZzip3jyX+IFl19eU/buwU+NxQXPjx/yS/vZX1zasV1rcPBbb4HO2r0KLz/VCu+ejckzIWinMXcW3L4tj4nlVvgG633XLnlcDr94AC892gp/LOHqjZ4/ekTje/bKMwzDMM1PZAIfacgKpk+5Re2TVrB3T7EP2qsLeCYO6/33XrDfaQaOajuPwLmRpC0cVuA6Knvzutzz4EAXin9Z8AtiSv4ivvRRWGs7aZthdUf5ChEGhQElnFj78dyMvR8pHfYNlLtlHwqkUKA0hYrcPblTglB59hMGSQiSwpknUefZry1CpOUL+TSmutF85G75jX3JTwD1gj6GugLUZ5e+bgV46gG8iukSTyZW4M7X3gLd4efvw86/bAk1UaOaWAfvw78ezcPFUYPJI51dPGOXYZhNQ2QC3/zpQwXTqdoOSY1XXbM4AzMZ/NrvG2uIMT2k3VkZJlNrHvIokMRICKDxXNqLS2iSruG1I/SCt02KDqGjDjHNs7h22EcYrCEmbRElOc1Mrbaws3mVdsuXz7fAF7AGBxM5rG8y51rw2efymoat3YvBxU/K0O4RXto8L62fIZQfEvaujP7EzLxcQsvJMAzTjEQm8NWM6zchq5lLBUUatOtwM0sf8GZjdC4cT8FENg59Y6eq88VfpIFEhKayfPL4ol89g8LGh3igacYUwuSHL+pYNWeyLqEQgn8caUutUB6vhcUoz1K7V0rQobGAvmbpiPNMlGyLqNJSwksIc7sf1+2Ho+S9rsy6O597AIeFOddbg2dr98oYu6e43QJ3ULB8ol0eI0/uwLjKmO1LE0CGBu/DnQvBwp7Scvpq5RmGYZqMhhP4aCLFeGZdOKPO+9RYH8Qz4wWTLGkxpmazQmunz5ZNJBKeLzkxpu7ZNGTixZM/osEWQJP9Ms+JITh3BF848moYaNaomp1J2i4yfdJ4vCJt2Gd5MQkjRhMYqrSkSv6vOVsrJycPCO3bK5hHGhMYUvMkCMhzkHaPNG5iLGDScsyopfpSWrco8xzUFlGlJbSfNGkEy6WbjVtwvxxt4tWpWcjGu8FvzsKlT7bBN7AKL/d6m3NJwHrmKYAvSph6FRRu+F/+7jnzlwRLfVautds5a1fHLx5CTBz5bhv8wUMTWcSBHuiOZ2HWa9YKwzBMk1KfAh8JXktL2nhA5/IlQiO32C3CLC1NQ/fiBKS02bUEmZhT6UXoHJkuxDM21iOvFpPPn4fjaXyrJkciH3toT9JAgRLscl0eXIBRFFqKxiKa8LgtQIhxXO+hYEMzQOWkAB0l/IgJGeUIX4bk30dhhGaMYl4oPxbur7wvL4YkMM80ls1Hu0fkPsrBCmnatPFuVF86keXZoC2iSkuUC29PSy/X4fDCHuH+aPJELm2yE9q8hSiPGbblcGNqG7z77Qq8887f4OPBBwCfPgzDV8Ldr2R23vUY7jx6X8QzLQTDv5dcRubooPMDkWEYZjNQd542Ngs0M3hpBCDdUf7M4CBojbgYLb2izVitd/zy3IjlqVeEZrwCTxuNiJXAMg/S8kjsaYNhmM1H443ha1DIrVNCLRtDLp76kwCZmaq9dMSSIDu0pVcaAL88N2J56hl7GEMK0rMA/dNLm8KX7rnpMeiGcdu7CAt7DMNsMljDVyPIC8fYSLIwUSObScPA8QuRzxKkcWKt71lCkqdFeqtpzo2KRswzwzAMwzQSLPAxDMMwDMM0OWzSZRiGYRiGaXI2tcB3bHIZliePySN/RNjlSYd/3M0CLT9ScNpP2xvVW1w4LMLHrIe3EYWFeac8h3FlthmgCTBUL/XSjkztoAk7x4YmYW55eVOM3ZxcnoM57OdLzkhnmE1C3Ql8QrCaG6q7h/N8L3kP6d10g73FZAly45XRvDycyVVnIeeQiHXtyKcuT+QooATcIEEuh21IbVkP7VhLTOunVtQ6P2p29kg3wHiqA3rPh2t/6+AqnJXL3oilb15bFWsoVsLzr5VeXzEIWpLn+dd+kPn5AYZdS/GI5bZS4zAL/TB9+dym/GBnGAWbdBkjqrV4cyVY1fQiwjBNyNFztBTPhD1TuZyleJZj8PboI5D63XZ4YfQncOep+/DOq2vyYnjI9/HLj5Xpmg95suc+vPlYG5w48QjmZyvAc9/D8EGnUJefPw+new9BejEJI1VZWJ9hGoOGFPjoK3Vocq6woPLcpLdGMCHNFuvh/NX6bhMvecTQf++leRR5mcO4hxJiJq4dfs7h4YNw5hmvD1HczgWlTSCtljLHqa3tjXWPC6SRI/OrW2Ogmz5pn8yyrTIeOk/O/2lfmT4pHYpny0n7JomdXF/wV/cXK2bYavlpw309bXEdw7f9CvOomYZ1M6xJnt0UtHsX5QmJu35iJdyRibhlGFEezeSr8kNpF+LCMG6zsKojvf5oc4fzS0vhCIOb3qaEqDstDa96pt9vIW0sQgs9F9KT4VS5VBz6NR3RZhW2aRiCyh5Ffkzqh1Dh/No0qC0UfuUKkx+/5z0M1J/1J7MwMfBW0eoAXS+SlqxYy0bn9QWs87csWJCu6/K3bBd85SLc4SUB/pgJXxaCfq97ZqH86J5b3FwYnYBssr8hfKYzTDVoSIFPfKV2zkKqowM6OlIw21nsEi0xNAfTfZ0wm05BezuZY9thYPR6yWVQKPxIMgNpzWMHeSQ4JH+bmghwhLZnEAa7RkX41AQ57Bh0mA8OnKIFX1WeB+Bmd19ZvnRJq9W2D2DlbdvE+uNv87A2A+taLuyMyZ9s7CX7kBAvDbfpE+OwaBHja3gT/AbzeQnjwd9ZHfZl8nqxQvG/jXHjMS2XUjDpDq+bAq3XUfAiDxOYD8pLHvfbXheXnOzAcI/bcZLHCEqz8NIyzbNGKe0e5Ud4vMD8/ogbYBxuxIuY4qYwmOcV8oQh3Z852I/nsI5UGOUizY0oyz07HNWhjklaIgy5k/twvY4dbUosYdwfyDancmH7xZ6R15BCe5GXEYTaw91W5OqNwtB5aoNSRNKmhpiUPYr8mNSPjl+bBrUFEVQu0/wEPu8hONDTDfHsLHh5lLsxtRW+gFV45hfyBELm0n/CtK/Me78mug6uwstPxeDiJ+Vp6A6/+gAg8xBckseh8fD2cuMetvejq9Apjx1cnYLZbBy6/XwKMkwT03ACn/sr1XZb5vxyI21aT3ccshMDcPr8vDhHzM+v7+uQ14vpPoCJVPkLssZhBnpP2/FfXSDX753QJfsVGjg82BeHzLgrz/blihDuyLR168Qx+ZP9mfbyfcZ2SeZ4SeBLrCBMkSsztR/CQb8Y34cvBHr5UdyU9toH+DLaZxVruQBfcB/Z6efvij/Qstv+a5xnSUEY9NDuUX5yKLxSneRxW3O9TdRvC2Eo31/ihUft6w5Q2Fv9swxDL1kMo/LsAOvvwZnS+fRLqxAmY6el0NuUoOPCuVtYZySEhGgrU6JqUxNMyl7L/Dgo0aZEUFuYtmk5UPnLjWfvHvzEXFzw/Oglv8akrXv6p5p5dtcaHPx2K5yVGj2FrQ38O7xzdAXuXNhWdN0EYcqFraHd6DloX4WdYMHt2/KYWG6Fb/A+2LVLHmtQv0tdc3zPXnmGYTYXkQl8pCErmD7lFrVPWsHePcU+aK8u4Jk4rD/He8Hu2wwc1XYegXMjSVs4rMC9VPbmdbnnwYEuFP+y4BfElPxF7PDxBdN20jY56c70FSKMJpyQU38SWCKnw76BcvjSKyA7f6UpVOTuyZ0ShMpzKWFwt10X+SXxxxvyx0vp/GbdRK3Mar7CQYlyETkS4hB6Ga8O59YXjjZMi8KAFFBKQUKEMmuST94Y/aYaRNimpOVS5VYbmV11AsseYX7CULJNEZO2MGlTE0yedxPoI7jLU+21zqWvWwGeegCvyufoyQQKdF8Xa+8W/vSQGMN34kIbPHH0+5I+i0tRMOWeLX/sXkV0dvGMXWZTEpnAN3/6UMF0qrZDUuNV1yzOwEwGv/r6xhpibAe9gFbwBUSmpDyZGUmYcI37EVqQa3jtiP1yInOY44VZh5jmWVw7jOErFGBzmqlNbdXy8FFpWqLMQ3adCFO1l5mxDsl95CwzbUoD16jUui1MnncTlHbLl8+3wBewBgcTOSwnmXMt+Oxzec2DhSut8PanMdi5by3cTN1f/AhPP7oKb77zN6Ep/PjoKp60j90TLnzx0uZ5af3clNByMkyzE5nAVzOu34SsZi4VFGnQrsPNLH3ImY3VuHA8BRPZOPSNnarOl1+RBhIRmsryIXPl6hk5BuhRbEiXdkqYDrHDjlVzJusSvtTxjyNtEy1bCYzyLLV7fgKTlxaugDI/hTWHllMuw7QCzbNSUyjMmlUSSgtE3KZBBJa9xvkJxLAtoja5Bz3vJly3O8WSfZwy6+587gEcFubcLfBJFfqN/JVtQkOothcutOLZVnj3xCPhTLy3W+AOCqhPtMtj5Mkd+PvvWrG/LUZpOX2tMQzTxDScwEcTKcYz68IZPcSnxvognhkvmGTpa3ZqNiu0dvps2UQi4dnZiTF1z6YhEy+e/BENtgCa7Jd5TgzBuSPY8cirYaAZgmqWJ2kbyPRJ4/GKtGGf2ZqHGA0cr9KSKjQJQGjl5CQEof14BfNIYwLLEUwC8hyo3UMBi160LVgnlB+qK5qlSwKDQmgSaUB/0nKYx1pw3601aTmM57Cuyy2XSVoURoxfxDD6rFJKt5AfZcL8ufgDFgm9ZDL0QgpI7kkEpkTepj6YlD3y/FRYPyZtYdSmioD8GD/vBlydmoVsvBv85ixc+mQbfAOr8HKvtznX2p2HLilwW7vtWbLfXIuJWbI6ZLYdFmvjlbe+nsIvHhJQ9Vm5Kj9q1m4RB3qgO56FWa9ZKwyzCahPgY8Er6UlbTygc/kSoZFb7BZhlpamoXtxAlLa7FqCTMyp9CJ0jkwX4hkb65FXixELdKbx7ZwciXzsoT1JAwVKsMt1eXABRlFoKRqLaAIKMPTyU+OHxIxUOaBdR710xISMiF/UOvn3Uai5B2JZCcqPhfsr78uLIQnMM2lXfLR79HuhedmB9UJjq/bj8d3im5xMjTSL09LG1sVQuHNDeaG6rqRcJmmJMKS50cNgugoq1ypdRwFCXKNyyWP3mDglIOnjBouEjACibNMggspORHqPVVg/pm1hUi4iMD+Gz7sJ7o9lT27H4AoKlDuhDf7gZc5tfwAnB6UpdvA/4Im//ATentq418iNqW3w7rcr8M47f8P8PAD49OGSWsKjg07FAMNsNqzt27fz3b8B0MzgpRGAdEf5M4ODoPW7YrT0ijZTsN7xy3OtykMzQ1tP4s6HjVV3DBOEsIhcpsWXM5AewL5nEwg/VgLLPEjLYi1CmhacrlJ/yzD1TuON4WtQrMQxSKhlY3D/VH8SIDNTtc5HLGexAxrK7ZhfnhuxPAxTb9jDV1KQngXon17aFL50z02PQTeM295FWNhjNjGs4asR5IVjbCRZmKiRzaRh4PiFyGeL0Tif1vcsIcnTYr/VNOdGRb3lmTV8DMMwTLPBAh/DMAzDMEyTwyZdhmEYhmGYJmdTC3zHJpdhefKYPPJHhF2edPjH3SzoDunF9kb4mZ/VQvgs1Za+UJjkWTmlj6osFqZJ8bldfm0ENDj/2NAkzC0vb4pxWpPLczCHz3LJ2acMwzCbnLoT+IRgNTdUdx33+V7yHtK76Qb9iskS5A4so3mLOOPtcL7WiDXZflY8kcM0zzk8R9fqoSxRomZijnQDjKc6oPd8+PLRmmbDv6f1z+zt7Gu5cN4UXDz/WvlrspHXh+dfs/23Tv/LDzDscuUlllRKjcMs9MP05XOb8qOMYRgmCDbpMkZUa/HmSrACvIjUY55rwdFztOzGhD0rsYxlN4Sv08H/QIH5YdsTwomH4e2vyxeihKP8x8r3m/pkz31487E2OHHiEXhhdCvAc98XueDKz5+H072HIL2YhJGqLJ7OMAzT2DSkwEcajKHJucKCynOT3hrBhDRprYfzN/m4TbzkEUP/vZfmUeRlDuMeSoiZuHb4OYeHD8KZZ7w+RHE7F5Q2gbRayhSptrY31lfwJ+0WmTKLzJea6VM4tcc4lAN4Ok+O2XVzJKVD8Ww5ad8k///2zi+0qSuO4980rbpNH0vXVh8SainMzeZB3MANRkgFMzp8ENyDA0GIUDowAV8Gte5hD4O2YFc04Bg43HxSKGvBhiDMMTt8aMcclFpSWI1/H8fArjHZ73fuucm5f5ImaWIbej4Qcv+c3PzOzZ/7vb/f+Z2f93xhYli1lqfIsFXsaaFl9b3FfmrPk9KqYVY1DFuOzXby3r1bcgNRjs3me9m3q5RjM8Pt1M+Cq3q4Ifoh24j3s4V8TbvVz4Ef1YSG+Ts7EEwhPviVIwO8+1P2kjm9bLxdLYC/v38Vh/56E8OzRrtczoNFWnatXrAO+UL5ycr7wvDr1eoJub+t1RXs3BiNIxUcaIi62BqNRvM6aUjBJzwYvgTCnZ3o7Awj4XOWRAtc+BVTER8SsTA6Ojgc24HB0YWi06Bw+5FgEjGlYgfPTH9EvjYcX6cQWlcU0e5R0T4c54IdUUtoqXeIJ/40bR7EUihSVS1d9mq1HIAo3M7hSFG8fRoFL5csL+Y9bqwyQpjYQ590DA9PYixn+ccMHYdeZ9ah5YoCa3z8b+jYtM7TpeTDo8OFMKjnLAkvnv2f7GBbcrTcclbsstJG7d42jsmVJ/g980KrXJsV3Lx75djMlQ24DW9jO0pSymaC+y4qH9D7cHF7kL12hNjjfnAbOj9rXDHitPU4JuL4zzZWkL+3PwR/KgG36lEPJ3fiPjL44LDcQBhF8oHZOeOvwFgngeVSVqsa+s6sAsk3MCPXK2ZfFnvhxaPHcp14+IzOXWsGPrluYX4SiZQfoVL1wzQajWYb0nCCz+7BMMqWWe/q2ZvWH/IjFR/ExZ/mxDZmbq6wrMJVL6YiQDxc/cScfkzj1EXj+POLXLrbh255zeFB5dGIH8kJm83G7g3BIkct4i7WuY7ne4qo4HqfJCQsoU8SFHkxxaXMzOUKCr6LsXIkFkQ5M9EvEirfk9g64HF4p5pAYuem8f65p+IpXwC+bJsleTGoePfqQSmb2Qbue5aEMp9/Lm7/yqZqTDvzbfgc/UE7itXBpc9h9bKzv5XQ00W3EcuLrjc2ZnH8Q+++klsIUSR/J67KGrHUCntbSWBhrTCG78uXOCrrp1aCCOViZ2UF8e10ZNAOD1ZW5DrzuBlPyM59++S6Av+2+Ofn7+qRWzQajUbD1EzwsYcsH/qUj1rXpBX0dDlr0M4v0hY/Cv/xPTCue2UUqvUdw7WRoCEON1BmKLW0IJdc6O0m+ZdCqSblkrtF4oHEWst5I/ynFuU3EW1IVOTFyUHaNm0s15RO4wtkKeRuFpeXnkKT7DO5UISKbC4hBmtJSZulAMqlxZM7XPuX+6TUSd3BySSE2U+VLItBgoVhZjhb8QTUfKPT7er2KjDzZzPwzirOSPv3B9yK5L/C8SBw74c9YvzerecZfHHKPYRajHwo92ptPIUV4+vWGbsajUajUDPBN3fxSD50aj6OSI/XlmZ5GtNJwB8Zb4hxPywG1kgMcAgxR4LEy2LCNg5NeNoe0L5jfOE1Qq4WUbYFKddmsa+P2tdDwNaJ7HUltCwf9agmYnq3SvL7DtwnQfd+IEvnksO3HtyzFMn34BHdUDx54MVtDrXnPPju9i48aV3DRy4etaIc/g+HWkkojslC+ycztNFYtydclMTNm+fm9bNTxMup0Wg025WGC+liYQkpJVwqcHjQFrCU4pv88sbx3Pg8jHjKj8j4UH28Ag4PJCE8ldXDIcTMZRJ+12lF8YyZiNAhXcy962Sybog0iRl6srx3OZ6vIpRls/TubZWScXZPpgUzTFpBmHyjLBhf/KLfYzOs2/7xKvpEOHcHbivnmQXeynO5sgFys7tEhq/5+ORGM21txqVzeyoL8a404REJ1L0dcp3Y30avf9FMvyknppezpMddo9FotiENJ/g4kWIiWRBn/Ac/NB6BPzmRD8myp2MykRJeOzVbNhAIuF4IxZi6D2NI+p3JH7XBEKDBAWlz4AKuHaOLktxbCZw1amZ5sreLQ588Hs/hDbtnDPz3Bql/dZqehBMghFdOJiEI79tpspHHBFYjyNaxeUt592SiSROdf+47fy6cpcsC2ER4LTnZI+ixhN6baFn1yNaS+ckEUv4QSuUszLDHDhmcOOUWzjXCviwIedweewH7jr5E+4sW/GLzqHHYdljMjVfd/HompY7DAlXNyuX5AdWsXQe9/Qj5U0i4Za1oNBrNNmZrCj4WXum0Mh7QOn2J8Mgth0SbdHoKoeU4wkp2LcMh5nBsGb6Rqfxxxsf75V4nYvLWGF2dgyM1H3toJGmQoITRr7vRRYySaHGMRSwHEhUssMR4sG9llqhMmlBhscGJECIho47esNwVEjWceUq2sD0eWl67IndWyLo2swDZIt49Ieb4vLfRZ0D99h6k9afOH1T2ppHh61HG8Xn76iP2GPsNkSsrXsySWG1HC360hHMN2Dt37g5wIvoPfh77FydA618XEVivgYeTu3Dp+RrGxsie6Cpw562iXsKTUevNn0aj0WgMPLt379b/jJsAZwanR4BYZ/WZwevBc8R5eeqV3xrnIy5lcyP2ZzMQXu+7PPlyErFB+n5tA/HjCVCfozz10TJiPOH0JolTjUaj2ao03hi+BsUT+AwBc9oYWh4aCALJ6bpdmMSUKW3K1CsNQCmbG7E/m4UxRCGMWAIYmEpvi1q616bGEcKEUV1Eiz2NRqOxAfwPpEJfsxRXb5MAAAAASUVORK5CYII=;" parent="1" vertex="1">
          <mxGeometry x="241" y="470" width="346" height="212.71" as="geometry" />
        </mxCell>
        <mxCell id="230bwB02gt-Gy7RUY72W-11" value="" style="shape=image;verticalLabelPosition=bottom;labelBackgroundColor=default;verticalAlign=top;aspect=fixed;imageAspect=0;image=data:image/png,iVBORw0KGgoAAAANSUhEUgAAAh4AAADvCAYAAAC9kt3fAAAAAXNSR0IArs4c6QAAAARnQU1BAACxjwv8YQUAAAAJcEhZcwAADsMAAA7DAcdvqGQAADErSURBVHhe7d0PbBzXfSfw3+yS+mcLLZCzVZG2ahIKY0BKI6JwTNeUA2NBuxADGWqRgkxC4XqRuy14FCIu4AI1IooyHOAMLJUTQyQ8Ky4guiER4ypEMInIxEJoRV8UCAeqsgWojMBFJVOKZeDQwJJFieTuvd+bN7uz/2dmZ2b/8PsRVuT+4Zv33szO/Oa9N/O0K1euJJuamuipp54iAAAAAC8F1E8AAAAAz7keeGjtQzQx1K6e1Y+6LZfWSxO3btGt1GOOhto19W7tqtdy1SKsCwAwywk85AF2zrSTmBM7iV7rO4nk/DDN0H7q1Qr/DS9jTqQ9YUpX652o6h2SlXIZNK2dhrgO54aovcDnS9Vz74TpvdRjIrX81DLM7xdZXiHJ5CT1NTURd7c1d4/Tonq91tVruWoR1gUAmGUEHnzwX5oOE411y52E3FEMjNHCNfUBi6bOEu07ukc9qx+Wy7VnP3W1ip+tXbQ/z8ct1/PiOHU3N6c+09TUR5PJpHpTtziup9HcHaEYhWn6dI96BwAAoPqkAg8+gz7aH5IHsr7JefUqn+lP0uR85sGupMtn6frO/bbPvrNxnnon5jLO6ucmenPSbR+akC0o+ln/BPVmtZoYTb0TveJnqpUgs3XF0rIslmvP/i6i8QiNL7ZSV1bk4Wo9m/Dfj8yKc8mWtrLrPZ92ESzNmVpY5iZyW1es1HOpdNqHeB2kW3YM/PpcVldXqfXuBqNliZct867KNNGb2+1WKD9GGuYWPoNs/XPQUlWs7KmuDbH9GvQWxcx6tbQuxGtD8nvBZTbWa3qdmlsvU98fkR+nLZdurNNS5bKSZ7fLBQBp6RYPeZa+SLNnL6sXCkv32WbuyAzJ5Dwdn9lJg2WefO85OkrRUJwi3fpZf3NzNw2MXKN501k/7xynu67TmPgMvx+Jhyg6ejTvjjwUjVIoHpGfG89q77WyLCvl4oMMxx2zZ6forAgEWruyAhUb9WzX0ztbieILqTxrvUNix+nSuJRrMzQwoOqmO0LxULhgPRSr51LpXD4+RjEK0T7Ta+k6TdeZnfXuip2DNNg2Qp0i393jXMbBzIN4kfzwdrMQ55hQD0JlN5oRbDy9kwuWsZ2VUqrs3LVxMBLjTMoDpxHsxiIHM1vMrKxT8drOmQGKxFrleuVWOg6odz6t3pfESt53mtrE54z8hB2sC9fWqaVt1Uqe3SkXAGRKBx5iB9hKcVpw63g4NULX+939kvIOfH4+3UqgH5BaKTZ2XLYW8PtTM2KH27qTMvaLhliEmvom1ZPispeVUqpcHFjQLPEx8vLZWVrM7m6xU8+tYZpeWkqdueU7YzbwWV40tEjjI1PqFWHqLM3sGxVnf/nP0O2Yn58UD3XQunyNrot9snEgzVGknkulwwdNXoUhc+TBdRofo2H1d7bXuwtaaYb6hvXt4TJHEdRCRrat5Ieft2YeraU9bS0iVrT+pbNa9uRknwiQFkWwcJqOiqA6TONk3jSYpXW6yH+n8ifW60GVRubnRMA7c5CGJ+f1/IyM5273Jbi5Tq1tq1byXH65ACBXzuBSK9KDxXLHHBj4i3p8rLxWD3n2uyjOeqaXxMFzgoayD55qLEUomj44L0VD4o30QcEsNqPvNTlvw52dqQMZK7kspVS5ZDeLcQZ7+SzN5ulusSxrjEffZG5dt4anZbmnoy003r03o0yc18m+Ttq7d0AGIDyA1WkAwgcGvcld1PHSNIVFvRdSrJ6tpCMPOKH+VLM212lcpSnZXO9uWLxeZKCTlfxcu06LshusndooJv7pB9Snd8bJXLSSbJT98vEBGhfbdFhUMh/Qs1tV7KxTWy4viNA6u1WkBIvl4lYR433jkd0F56hcVvLspFwAkCMdePCO0e0d99QMURmtHjLA6dSbS2fjLRSOioNsnv7wWCR9cNYfmQc7K6wuSypQLuOszQgGjJ1eRneLy/XMY0Wam3lgaeEAxwhAmgdmRb6LlKsALtfRC6IsLbOyK4qbnXO6UCywnI6oX6M8ep3mPzi7sd7dVDQ/HITKX54WIcd1ui62sbY9e0QQcp1sjt2Wyi27W+vUbaXKNT/cmfV+E3WqlihWreUCgLR04KGiecdn53nwwXxktiu3dUAuK5/8XRA8cHKYD5zcb21u6lTpFGzyd6DgskwKlovP2iizlUJePpiTZ/frmfv0W8OjeQe/8c6YB8gtjXbpV9J0DtsaU6CfjS7S+IDeDO6YxXS4PLKVPTxIPfw38ZnMljUP1ntZLOSHg7+FuNFtsCD+MQ5C0mNyLLFR9p7T4gAstsdxbkCKns4cj+XWOs1nT5sIrRepWCNRDrfWqdNyWcmzk3IBQI5U4JE+eE1nXM2htbdTe9bBrNTgUjPuwshuHTAOLCH1ujxL6Q+J053MA0x771DGlQE9+8RnFvXxE0wGAOJ0Rh5wTV0I7b25V76UUmpZ2fKVK6ObxZAVaNipZzu4T58HAJoHvxkBx4ULo7RvZkAEHJ0ZV9JYllWGPT2DslncNhvpyP50ClG/CJYyulkEN9e7G6zm59p1sclc6KcWceTi37tG+8leP4v1ZfFVLNFQjCJ7j9Pxg9wiFqLoBdP26tY6Vfi7zN8f+V0eDVNrLD0mxwrX1qmNclnJc7nlAoBcGWM85IC0yDjFW6KpQY1Lo6M0+LT+JXaCdygz8dzWgamD3TQuXuflcJdEV3ycuo2Ra4a2LnHgUfkQn4m2iB2pOJMxH9i56bV7PE5d3DUig6FbNNrfpt61wcKyzLLLxTum7CsvmPycbDxJd7dYrueswaX8KDbAdIoPMOJvRo17jfTslwFHp9OAQ+EyyKskVBfS6L4ZGlDPs/vXi7GVjhwfI6qAZnMGRTLX1rtLrOTn8lkRbbS2ysGkPEBV/Oro7LnUsvjE4HQ0fRWLrHfZ8pbeNtxap7pFis0S7RPfn4LfZQvcWKfWy2Ulz+6UCwAy+TJJHF8TL066aUCcfdlqVq5y9VouAKvkd2A6TPFIc97Bz9XISp5rsVwAtcLRVS128e3Gx+L1dxlavZYLAADAK74EHoyvqqjHvtF6LRcAAIAXUl0tF//LWfUSAAAAgDd8a/EAAAAAQOABAAAAvkHgAQAAAL5B4AEAAAC+QeABAAAAvkHgAQAAAL5B4AEAAAC+QeABAAAAvkHgAQAAAL5B4AEAAAC+QeABAAAAvkHgAQAAAL5B4AEAAAC+QeABAAAAvkHgAQAAAL7Rrly5kmxqaqKnnnpKvQQAsL5N3T2pfgMAt6HFAwAAAHyDwAMAAAB8g8ADAAAAfIPAAwAAAHyDwAMAAAB8g8ADAAAAfIPAAwAAAHyDwAMAAAB8g8ADAAAAfIPAAwAAAHyDwAMAAAB8g8ADAAAAfOP7JHGatpGOBx+lryfVC9m0h3Ri7S79KlnoAwAAzljd//zXz/+negEA3IbZaQEAsmB2WgDvoKsFAAAAfIMWDwAAB9AqAuAMWjwAAADAN54GHl8J/CG9E2hQz5xzKx0AWD+w/wGoTmjxAAAAAN8g8AAAAADfIPAAAAAA3yDwAAAAAN8g8AAAAADfIPAAAAAA3yDwAAAAAN8g8AAAAADfIPAAAAAA3yDwAAAAAN8g8AAAAADfIPAAAAAA32BafAAABzAtPoAzaPEAAAAA3yDwAAAAAN94Gnh8JfCH9E6gQT1zzq10AGD9wP4HoDqhxQMAAAB8g8ADAAAAfIPAAwAAAHyDwAMAAAB8g8ADAAAAfIPAAwAAAHyDwAMAAAB8g8ADAAAAfIPAAwAAAHyDwAMAAAB84+nstHyr4b+nu/TfEqvqFWfcSqfSNG0jHQ8+Sl9PqheyaQ/pxNpDer7kZ+7Sr5KFPqCztqxqS8fPslfbstzJj1v8LZc39eP1/gez0wI4g8ADAOoSAg+A6uRp4AEAUK8QeAA4gzEeAAAA4BsEHgAAAOAbTwMP7ht9J9CgnjnnVjqVwvl/I6CpZ+7StAb6m4YvVU09G/k51/AIfUXzpsyFVHM9a9ojIm/lryO30inErTr0cl0U40X9uPG9AIA0tHh4jK8O+G5ghd4tNBq/TMnkKr29dpeWAo9WZEefjfNzI6Ge+Kja6zmZvEcf0kb68zKDMbfSycetOvR6XRTjZf0AgDsQeHisTdtMzYkH9O8eXgaZTD6gH6z+J/0gUYE9fSGJVU/LnK0W6vmc+LPntaB65pxb6WRzqw79WBfFeFU/AOAOBB4e0s/81ugXyTX1yvoQpzVaEg+/1E49P6Cb4my8/C4ot9JJc6sOq2NduF8/AOAeBB4e0s/87vt206dq8e+J//T1niu1Us+yu0Z85b5b5vHQrXTM3KrDalgXXtQPALgHgYdHeDDiN9Zha4ffaq6ek/fpZmBL+WfjbqUjuFWHVbUuXKwfAHAXAg+viDO/jsTDddfa4bsaq2d5Np5wqdXDhXQkt+qwitaFq/UDAK5C4OEBPvN7NRCki8mH6hXwQs3WM+fXlVaP8tNxqw6rcl24Vc8A4CoEHl6QZ3736X+htcNbNVrPfHXMu4lGF1o9XEjHrTqswnXhVj0DgLsQeLgMrR3+qPV6Xkjed+VsvJx06rq1Q3GrngHAPQg8XLcRrR2+qO165rPxD11q9XCejlt1WL3rwq16BgD3IPBw2ctaIy2R8zM/vg/CG3zL8WCBR8PWmrwro7VyWS97PdTzueQKNbtwNu40nXLr0FDt68KtegYAd3g6LT7PcfD3dLfsezq4lY7XeJ6InwWJ/sfaFxW7a2M5UM/++3NR5zuSvy+7tcBuOm7VYa2si3LqudD3AtPiAzjjaeABAFCvEHgAOIPAAwAAAHyDMR4AAADgG08DD+4bfSfQoJ4551Y6bnEzP3wp4p8HttI7DV9yPK19tdVzNa73WqhnHi/xhkvl9RLn32kdVko5eXZzOwQAtHhUlLz/QfAP6IhYC79Y+3/VNa19HamVek4m79GHtLGsKzi4rH/DV4gENqpX0jiweafhkbKu7tBnn12hd2toU63FPAPUMwQeFfSy9gf0l7RMh9fuYk4XD9VSPZ8T2XteC6pn9vEcJf+SWBPf7A05AUyb1kiUeFDW1Sf67LPlpeG3WswzQD1D4FEhfPb5V4E1+t91cEloNau9en5AN2ljWa0SC8kVWqINIoBRLwjcEvIN8W2/WMbMsXrLQW3NuFyLeQaodwg8KoTPPptphf5FPQdv1Fo9y1lVxdeyvDttPqCL4v+vi+AjLUhPllkPesvB/ZpqnavFPAPUOwQeFdIiDgSUWEVrh8dqsp6T9+lmGXfazNvdom0oq7tBbzGptdaO2sszwHqAwKMCeIe4AzXvuVqtZ9nqkSiv1SO7u+VlEYCV082izz77sLZaDmoxzwDrAA5/FcAHlhsJ9QQ8U9P1zDO9ljW/SLq7hcc5PB9w3s3CAVytzQRci3kGWC8QeFRInLgpvAETV3msVuuZZ1V9t4xZVc3dLS+X2c2itxzU2EzAtZhngHUCgUeF6E3hjfQN9Ry8Ucv1vJC8L76hzls9jO6WI/LM31k3C1o7AMBtCDwqhG8W9YtEkP4yiOm6vVTL9cytHh+W0ephdLdQWVezbKzBloNazDPA+lGz0+Jzv/Xx4KP09UL7Fu0hnVh7SM+78pnMG0+5VS55Zhbkm1ull2GtXN7kp17TqeV6rvS08zyd/PP0e0/v9ured1lfX27n2a31DgC6mg08KsnN/PBB8WVtM/1VYAMtJZzdzrva6rka13st1zMfSHckf+/7GXylgx4nvMizm9shAHgceAAAAACYYYwHAAAA+AaBBwAAAPjG08CD+0bfCTSoZ/WP+5ffqOHyurW+vF7v67mevS475+2NgPXLaKp5XdTK9gyw3qDFw0V86eaHtDFnOnJw13quZy/LzleXfDewQu/aGJOJbR4A7ELg4bJzYqf9vBZUz8Ar67mevSq7PpOr/TucYpsHADsQeLjuAd0UZ4C4KZjX1nM9u192vbXD6Uyu2OYBwDoEHi6TM4uKai1nZlEobT3Xsxdl11s77mfcMM0qbPMAYAcCDy8k79PNsmYWBUvWcz27WHa+udo3HLd2KNjmAcAiBB4ekGeACZwBem0917OrZZczuT501NphwDYPAFYh8PAKz4yJM0Dvred6dqHsch4bt2ZyxTYPABYg8PAIzyz6blkzi4IV67meXSm7bO1wZyZXbPMAYAUCDw8tJO97fgbIVyO80fAlOtewdd3eS2E913M5ZXe1tUPxY10AQG1D4OEhPgP8EGeAnlvP9Vxe2Te61tphwDYPAKX4Pi0+nzkeDz5KXy+0r9Me0om1h/R8zX3mbt7BeeZpuhdog0tlz1yWFthKvwok6LBpKnBr9ZyZjvP1VTodr9V6PZfDftn1/PB0+8/T7+kHiUIfdsabdWF/fdXy9gxQz3wPPNYj3sHvSP7e1TNLg74j3UyUKP8A4tb6qtR6X2/1bGa37ObgwO6dSq3wcl1YVevbM0C98jTwAAAAADDDGA8AAADwDQIPAAAA8A0CDwAAAPANAg8AAADwDQIPAAAA8A0CDwAAAPANAg8AAADwDQIPAAAA8A0CDwAAAPANAg8AAADwDQIPAAAA8A0CDwAAAPANAg8AAADwDQIPAAAA8A0CDwAAAPANAg8AAADwDQIPAAAA8A0CDwAAAPANAg8AAADwDQIPAAAA8A0CDwAAAPANAg8AAADwDQIPAAAA8A0CDwAAAPANAg8AAADwDQIPAAAA8A0CDwAAAPANAg8AAADwDQIPAAAA8A0CDwAAAPANAg8AAADwDQIPAAAA8A0CDwAAAPANAg8AAADwTdUGHpqmUeNYgDaaHg1/rKl3C9P+zPpnq5Xdsgf+Tv9MQPxdNvne39VuXZRSrOzVxMo6dbrNQ+XY+X5V07aqtQ/R3K1bdMv0mOjFtlaNXn71Lk2/mlDPipOf/dEyvexgG9N6JzK2h1u35mio3Zttwlbg0XAsQI1/lpsR7Y/F6+I9N79QyWSSVvoT9EA8Hr5FZK3a64Pdsid+on82If6u0ozAz6+dq19lL7dcVtZpLW/zfq53v7cxt5TaVouVi4NS3v/y+6mHeF5uYBqLNFNTU5N89E3q+dK0BB370V061pFOW3/N2QHNLVrHsuODql1+LstN595+lLq/v4nOFdrGipQrOdmX2haaIzH1qjdsBR6JT8V/f6T/nqFZJPRpsioOfAAA9Uh7jGjlvyf1wFT8XBH74+BrmmcB2DOhFWqrsQMv1AbtypUrSY5wnnrqKfVSYYG/CFCQxAb/z5kBRvbrHJ0H/1Y8dsunlPiYaO2n6cCEW0gaXhO//JP4m/+jv8ZpNP6J+GIN5wYwxueTbyVp9T+y3hPL0sSyGtWy1kSgFgyJn3k+W4iR/pr4MpuXLcv1u3Qe3S6XFYXKbryeihw/y78Mbt5tFOvmwU9UfrKeG2RZRb3J9DitfxRpWaw/Js/Ifix2gup5Sla+StWhFVbKLpczJLaNK0la+534/Tv65xOmdcOytx+W+Fj8zU/FT5Ge1XIFxNlq8CXxUxwcWLFyFVqnZlY+U4yd/BTjZ/0YafH3h14SaarPGt9lq8tipbbnUsuyqtT3y+q2arVcZtxCskFs13bzzLir5cJ0mOKR5lRLh4FbN4ZOfEHPiN8vTW2lYxe57vm1h/TrI5tTZ9OalqTvHVqmA7vW5PPbVzfRW6caaaFAfgvhdF4S6RxW6bDbV7eItIIyLXN+Mny2iY78ML28NnE2/1polbardZkvP0ZaNLWFKCTSlJ8N0pmRLXTqhvVlsbZXxPJeFMvjJ5810MkJUTciDUOpZVnF3SeHaQt1v61vIdnPtR2r9Pbgsp4PlievdsrFuNtlKdpC4917aXjeel6tytnWSwlsUz/FFzvVt6leM/COKihe4+icI/Ok+L3xb9WbLpM7RV6W+PI9FA8SB3nbxEaQFF/y4AH1XOCdQUCktfZr9YLgZ7lKSf5HItUsv2KxVUwGQeIAsiIOGmZGcMQ7MONMqvGvRflFHVhldBM8/Cf9uXFm9uBYZtOyG3Voq+zbxPL+SM8bfzbwncxyaQf0gypvP8aZ5NqMflBlVstFS+LvxMFNpsHboUgz+Jx6rxJcyk8l6keuo0/17WNNfC8NVpdlZ3sutCwn8n2/rGyrluvQhPdPHMglYs4C09Ia6Mz5YNFWj5cO3aMDjzfSkSNb6ZtHHqGLjy/TiUPp4MGqL+/noEOjkyNbqfv7j8q03jqnpQ6GyWSAjvHrUw3imTjAi+Xx57rfbMg8YN7aQG9NqDTEwf2TXcv07WfVe1me6REH4Ttb5LLOZGxj1pbV9sp9OrG7gd4TeeY0Tt5ZpcN9+euq0LKc4OUe3iXyJYIyQ/JGAx3iPIrHEbHO8rFchxZpWi9NyHEgE9RbYPsoxlbgkfyd+E/syPkLzAdl2q1+FwcP4vcEjvD5bJZ3Mvyl4S/V2j+KL4j4rNsD5eSXTywr8YF+NpMUj7UP1Js2cB4TV0Rl/IleHuk5caZn6j7ys1xe4LOjRtUSZN6ZGQFWqg65bP8m3lBnDW6qRB0GTC1xcvsVAjv0n/nIbcHBjpz/JvV3N0Q6vIPJ1y3pE6/y40v9fCwOvFktclbZ3p7LWJZZoe+XF2Qryo/11rzs1mc33Ty7kS49Js7q9+eONuKz7G/tEmfvE/rZcjKp0c8mNtHtXQ/o0I7yvsuc1sIN+2ks3AiIh6qPmxp9IraxJ7YVGCl1Nd1iYBe30Lywe40uxRplCwfn94OPxAH9sVVqUZ/JUMayzHh8xokXic6MpFudapW92lgSX2j1BebNIiFWrLETT4r3JB7vIX4kxM4lRW0MmnjPVWoDTy27DMkzYochymaUR/uaeE2c2aX4WS63iWCx4Tsi7/nOjkQdct8xn/kZg9a4+ZYVO0A7UoE6lOOSipDrXWzHja+JM3serJdn8LQVfMBrUFctbBAHhaAHgZsdbuWnEvWT4EBB4KBhVZz12zqjt7k9l7UsQ7Hvl8u4HoN/LX4Ry/Iy6NAFaVicIW9/8QG9pF5JaeIuBo1u3lTP2c0AfUJr9ESTem7RbznA+WyVDg9+TqdeX6ZDHc7KxQHBoVfv0/SP7tL7J+7RgSLb2KWP9JYBDhpOvbnZVtcHPblGHSLtZ3o+l8uSy+tZFW8k6ckn9Y+YlbUsw+MPaUgs4/b5Tc7+3mXJ5CT1yYGofTTpIAiyF3gYBX5OnFV8Ks5Wr4iV/af6Fz3jYFKDeMez9rH4qu1TX+5ttV+mFF5XomyBkNhBFmhZ4LEPsnnX9PB6J1oNeL2viAMON/8nebAeH7BsXqElt5chfZuRXX4uNNuXw8381Gr9+Lo9W/h+uUYFVsn/q5577Tcb6YwICr6Vp9XDLbIb4E29e+TinSQd6LlH06+v2hrYKseb/IPe9cNdNm50a5TC419kd0Xq4TCosOLOBvr1VRJBoAjMymxRqgb2Ag8l+DXxxRZnCtx0LbtczLhVRPzIOLuw0jLB3TUOuXW2LJtkd4sd5AGR3ytZTaYVKJebkj/Vd/bB7L5u44viR7eA0zr0AXfTrf5E9bPzGbOd1h51MJBdSNUQrHmQn5qpHz+3Z5OC3y+XGWNG/DopkF0oMW71WM4cmHirgW5nn+E/maAnKEif3FLPbUreCNCptzfr4xAeW6EX8rQeFCRbIfSuH/MAT0/Ilp0i3Tge+eAUB1NrdKDAWJJaYjvw4L7ZwG7xkw8UfCDhnZApsuQvhmw5UF9Ao2kw8LGpGTJr58CDsvIPiSlBpCPzIwIhXpYcOS/SdLw5/FrtPEKiHFlnFL6WywOyRYdHyIv1ZR7MKV/nQZd8tmZqRg+I3x3tQFVwkW/goKU69BlvMwF1lsr54S42vpogp7WrSLmM9a79qfxBGo8PEvVcMS7mpyrrp9g25vb2bFGh75ctxeqwkmSrh/pd4QGN711NHwRli0PfMm2/utH2WX9bxyq9rE5A5BUuX10V21gj/au5G4epYOe5Z7mWsqhuno52/b0vP/tAdoc4VmRZ3ELz8/NBvfXB1C3U1pHwNCCQQeAPt8hxN04G8UrF6tAGfweXii+X7DM3djxiA5ODxEyDMJmM/nkk+Y812Z+rid8zRnrzl5TPnMTOgftg+ZJV/rxdMh0+i9qmyWUFvyaecyuMet8uWb4r4pcCB0K/yuUVzt8q52+3qK+/SG8siX/WR9xrpn7x4EvOvkBGcGHuYzfv8EvVoe9EkMiBEOeT8yOvkFKDX82KlStVr8Z65+1QPTfXs19czU8V1k+pbczN7dmOQt8vq0qVixk3Gct3I0evGK0e2eQZ+J0VOnHiczmmouPOJjpiutrCsm0r9K0+fbwEp3P4cb40NfcSTz3Y4bEV99TYivSNsDgY4PEo9KL+3mtf3UBvqeenXsndl5dSbFls4Zeb6ch5jTpS74tlhso7mFuRKueuLzwpl19s3cdjPeDr8IP/lsy41wMAQD0pdh8PgKq7j0c9k5d7ijM68707AADqVSi6lJqbA3O1rG/muVqWoiH1qjfQ4iFw37Vx50AndwEEAAAAa9DiIXDfrHF3QQQdAAAA3kHgAQAAAL7xLPDgwUtzqr8IfYjuM/fH6Y85GmpH/da63gmxLid61bPi5GcdXs4GAFApnrd4xCLNqTn+MXraPcnJvlS9NkcKzD5lgXE9tjko1F+r7AFND6z8yYOfy3LTZF/xWxbXarkAoL6hqwWkUP9RascBCgAAPFaRwENO5vP6XXkDlLaOZTolb2Ryn45lTQ5knvSHH6dezbx/v9V0WNsrxvvi8fpy6k55oLSGabBH/Z6HprXT0MScOIPWu3bmJoYcBSqcTq8pHT2t3lRaRguMfjlXiKJL6nK/uczltYuz+bk5cxq5+Um35oifqc+mu6SsLou1D4nlyb/n9yeoN6tbq9SynMruesnpwsyTVzvlAgDwW2VbPB5/QN/etpEOff9ROnKe76b2IOMuai8d0if9OXJEn/Tn4uMFbhVbIp22V+7Tid0N9J6aPOjknVU6XAf3u3dPjMbHF4u2evScnqZwyyx1NzdTc3M3zbaEafp0kUilgD1HRykailOkW++C47QGRq7RvOouMGY91LuPYhQRy5NdSp3Dqc9I12ZoYECl0R2heKhw4BSKRikUj8hliWKmWF1W+9AcTXddpzGRZ04jEhcH89H8dVVoWU7wcqMhka+DU+oVkef5YerkPIpHd4EFWK5DAIAKqGjgsZ020LFf6jvv337KP9OTDmk7Vulbu/RJf/jWufK2vROb6PauBzmz8xVNR0vSC7vX6FJMnzyI0/ngI56EaJVa9I+AsHB8jGKtYRo9uke9ksZn2f2hRRofOC4PXMnkPB0fGKfFUH/ZZ/Sc1vz8vHpm3fz8pHiog+jla3RdHINb2nLzLsUi1NQ3qZ7Ywy00+7taKTZ2nCbF8ji/UzPigN66k55Wn8lQxrLMeHzGdJhovPugo2mnAQCqVUUDj9t3ihy0mlZFQKHRTfNEQWoioCea1HOlaDpy1kJuBdHnAuDH+z2r4o2smRXXvSk6KM6QW8ODlNNw8PROaqU4LVxWz9nlBfFKK+3Me/Qt7DIHOIshik4v0dzcBA31tqt37DF3/SwtTVO4Vb2RR2xGbzHgoGG4s9PeLYD37CcRd2Tc4VHvwmihfHFOWcsytOyj02IZi+MDntyuGACgktbN4NJLU1up+/uPmh6bbc+iWPemRmhcBAX9R9vUC+6T3QCdevfIbLyFwtFp22MPOOg4ekHv+uEuGze6NUoxX52lPxwGFVbEZ0g2qoRHcYk0ANSd6g081PS9Ga0STyboCQrSJ7fUcytkKwnRE9u8nzmw1skulDFu9QhTxp36r12nxewz/D1t4pVFun5NPbcpOT9Jw32d+jiE1i7aX6CXJC/ZCqF3/XD3h6dky06RbhyPTB3kYKqVwgXGkgAA1KqqDTz06XvX6IAaBMpjNb7Xt0zbr2601VLB0wj//HyQtr+4TIdMV7u0dSQwuDQf2eqhfld4QONYLH0QlC0Oo2FqjY3ZPutv7x1KXRHC6fTsEyHO4iydNXfjMBXs7OvJc8BX3TxdKlrZ0zMou0McK7IsbqEZERUiWx9M3ULtvekrcbwgg8C9ETnuxskgXqlYHQIAVEhVd7V8cOoROnNnhU6c+JzeP3GPOu5soiOngupd6xZ+uZmOnNeoo+deapzHayG0gORjtHpkk2fg8S6aXlqSYyq64uPUbbrawrK2Luof1cdLcDrRlhhF1KBVMz3Y4bEV02psRfpGWBwM8HgUCuvvje6boQH1fG7I/piRYsti88Od1D0ep67U+2KZ/d51RxlS5QxFPSkXAEAleDY7LV8JcWE6TPFIM+5Y6jG+AmIp2kLj3XsxGBEAAKqa5y0e5qsBMFeLe/TbYev1ql9lAQAAUP08a/EAAAAAyLZuLqcFAACAykPgAQAAAL7xLPDImcxKPIwxHpqWoGM/ukvHOjDmwynzGA/9Uf6EZPXEmCgN9QMAUF08b/Ew3/ERV7e4JznZl6pXfTIw5+QMqHU2c6kxUZqsn+5xcnpjU3lrdtMsuPLBt3pHEAMA4Ai6WgAsWBzv1oMYvj07hXBHUQAAhyoeePCU9fKmXq8vZ0xlz9JdMuLn6/qNv6Z/dD9ndtq2V5bplHxPpZP1Piv2Gb4r6qFU+uZHbp6sLKsetfdO0JzpzH9uIreFxOjemOgVP1OfzeziKJUOTwWf70ZX/Hr2TbTah0RaKh1uhTDuiOolvsHa2dnc9hMrZWdW8lzsM3lbYOQjX535Xz8AAKVUNvD46gq98Okm+uaRR+gMrdLhQ2vqjUzP9HxBz9zZon/uM/WiwoHLid0N9N7IVvn+yTsiHXWbdUOpz/BU+afeTE8gl1rO1Q10znRHTSvLqlvXZmhgQO824wne4qEwDRa4k3coGqVQPJJ/8rYS6cjZaylE+0yv8cF2fxfRrOm+6hyITHddpzE1SVwkHqKoD60QWnsvDYb1afKz77bKipXdSp5LfUaf9daYqE61wPByYjMZ0+dXqn4AAEqpbODxUSOduqjJA//PYg1Eux7mtDBIV7dQ99u5WeWWihd2r9GlWCOdu5GU6XzwkUjnsVVqsfGZbF/ev0wHKPP27E7SqSfz85PioQ5sl6/RdXGwKzhxWixCTX2T6kmmUunw2AyemTVkjjx4Urh4el4YPRDRD/48SRwfjKfkdK47yeYs/Za1qtuzL033E0W6C49XKlB2K3l2Uq49R0cpTJm3r69E/QAAWFVlYzyyZqNVLn2kBwB6y4RpOvsn16jjMW4R+TzVPfJ+zyp/Mp2Olc+YaB3LdOJFjU7+sJEWzGe0NtOpN3wwG5rgbhB9jhVx0l9QbEY/COpn55nTx1tJRx4kQ/2pboo9+7sortKU5Oy0mXfF1e/emjWDrouMMR7dkVlqiRaeE6Zg2a3k2Wa5+Mqm6XCcInuzWl8qUD8AAFZVWeCh0c2b6lcbLk1tTXWT6A9TcKJY+Yy2Y5XeFsHEpanNGV0sZlbSqTccLBy9IIKElllxsq833ed0oVhgOZ2pGYqp2Wf1s/c4meMOg/mKKf2RGeR4YX5ymPZGRO54tloHYyas5NnKZ+RcSCKYiEUOZnSxmFWifgAASqmawOPL28QO8bMGiqvnltwM0CfixxPbisw0a+UzgjHtPp1/hI5dzLNztphOXZJn0Is0PqA33TtmMR2ju6U1PEg9/DfxzPEL+rT4mV00vpLTzdtkJc8WyyUDuNEw0XiBLp9K1w8AQBEVDTyeCa3Iq0K0HQn69otrdPvjYGb3RgnJZIB+fj5I219cpkMd6b9r60iYBo6W/gx76dA9OnBnCx36Zf6zWKvp1CV5INNbINienkHZlG+bjXSmRvjeGyHqH83qZhE4MBkZX9RbHXrTXR7tvb3eDy4VB/2ewS5RijgtpMe6lmQlz1bL1XN6msLxCHUOz6tXMlWyfgAASqlg4BGkM+Ks9rm+z+n9wS/oiauFD/rFLPxyMx05r1FHz73U2IvXQpmtEqU+w5ftPrdL/LLri9T7+iPzclory6pZrWGaXkqPCTBfCsoHsoN8kzI1wHJ03wwNqOeFxjrkYyudy2eJr1ptpVkaydPNMj/cSd3jceqK6mnJ9Prb1LvuSw0uXZqmaEucxrsLd3EUYiXPpT7Dl+3u4+EaoWjqff2ReTmt3/UDAGCVZ7PTyj7o6TDFI824Y6nHeJDhUrRFHAz3og8fAACqmuctHuaR9cZcLVA+81wt+hULAAAA1c+zFg8AAACAbAg8AACq3O3bt9VvhW3fvl39BlDdquw+HgAAAFDPPAs8eHBpaoIq9cg3xiM1Qdvrq+tjzhOXmMd46I/cCcnWM2PSNtQPAEB18bzFw3z3xHxXt+i3QX+Uut9ssHUPDzO+zXm+mWTtcisdPyQn+1L12syXpJahd0IcmOdyZ5utZXzpbp9RP918TxDn+N4dmTPC5s4Ea5UeMDr/e4Nb6QAA+A1dLQAl6POuuBPkAQCsdxULPHiK+Yybdb2a/0Zcba8s0ynjM68vyzudGvjGX8fE6/pkbat0+ISawC2r24a7c15+NXN5p8TyjM9YT0f/3LEO8ZO7h2Ra9+mQKU+sWJ5ZW4d4P/X3nJfM5ci6Ea8dknm+b1pe7rL80i7OsOdMZ/1zE7ktJEb3xkSv+Jn6bGYXR6l0eDr3fGfy/Hr2Tcbah0RaKp1bc+JvKtyVUiw/Rt3olz6HKGrcrC2rpYlbV3rVJHrGY24ifcdR6+mUXhesVB1aWl/iNX3ivznT8tC1BQD5VSzw4LuAGhOtnbyqXszCB+ATuxvovZGt9M0jj9DJOyIo6FtJHaT5NubHxN9/c6pBPGugk0fUBG5Z3TY8zf3hXRqdFOnw+5zWW+e01GespmN4pucLeubOFpnOmc/Ui0qpPEu3NtBbEyovI1vok13L9O1n1XsG8doTH20SdbMml0cxXtYaPdGk3vfbtRkaGNC7zZq7IxQPhWnQNHO9WSgapVA8kn8SuBLpXD4+RjFxQDXPiq9PFEc0ezZ9j3I+4E13XacxNdlcJC4OwqNHMw6KfiqVH6PrR28xiVGkWXVBdg5nzCzL09xHQ3E5iZ6sI5HWwMi11GespmMoti4s1aGV9S5e2zkzQJFYq1yeSFAsq5V2Yg5+AMijartauJXihd1rdCnWSOduJMUOV6MPPhKBwWOr1KI+4xSntXCjjAPU1S3U/XZu1VnN88KNgHiog8RNjT4RwUvO5HOfbaKf/0YtQyxv+Df6r5WapG5+flI8VJ4vX6Pr4iBWcBKyWISa+ibVk0yl0uEDq5wV3xx5yInixlJ3ZdUDkVaKjemTzXFXiJxKv3UnVeJY52V+OK35+fxzslhSYF1YzbOl9b44TiNTKigUyzuobnGPSeoAIJ+qDTzoyTXqeIxbF1S3h3joXSFJevJJ/SNW/fbsRrr02SodHvycTr2eOcmbE5c+Csqf+sBY07T4FvMsr+RRXT/vn7hHB8TfVDs+UOnN6fp8JeEik8TF1KRu+tiIzKnYraQjD4Ch/lRT/Z79WRPFyVlu+Ww+fVdcveuhhSpyrHMxP7LFZzFE0eklmpubyJjkzYmC68Jinu2sdwAAK6o38FAuTaluj9TDdKC3SHalvKl3a1y8k6QDPMmbh5fvFsszBx3f+wcRbDzeKLt+8nXXVBs++By9IA46LbOyCyBfs70VltOZmqGYmsWW/2Z/V5yyJqiVzFdM6Y/MIMdvbuRHdqV06t0as/EWCvMkbx5ecVQsz26tdwAAs+oNPG4G6BPxw82uheSNAJ16e7M+luOxFXrBZstJSVbyLFtFgnRmQu+OqQny7HiRxgf0ZnnHLKZjdLe0hgeph/8mPpM5E6ycXr+KmvI9yE9yfpKG+zr1sRytXSRiMHdZybNb6x0AwKRqAw9upfj5+SBtfzGza6StI301SsqtBrpNSXru2QJXxnSspq4s4RaHl766SvRZI/3rTflSWol0SrGUZxmciOCjXV/Gl599ILtnqpo8SOktEGxPz6BsprfNRjpTI3zvjRD1j2Z1swgcmIyIU+/W8GhGV0R7b/rqDzdp7e0yXW4B6OE56Rev0zX1HrOVn2vXRblaaF9P/gN+e+9Q6sqS9PJmyTSuVlcinVIs5dmt9Q4AYFLVXS185cuR8xp1cNeIGjPxWig3KEjeaKD3rvLYCuNzWTcB27ZC3+rTx13wmIrDjzfQyYnGnCtWSqZjQak8c3AyzC0uL+rvv/bVDfSWen7qlQqeVbaGadq4NFM+0pdD8kHqIJ95h6fle6P7ZmhAPc++xLUYW+lcPkuziyJbNEsjebpZ5oc7qXs8Tl3cFaHyPNrfpt51156nB2lU1A2PcYi2xCgycDznChKr+UnOD9OYKHIo9bmsS4fbukSwpa+HYssrmY4FpfLs1noHADDzbJI4vmX6hekwxSPNee9Yavbyq3fpMOW/UgRK47tYLkVbaLx7b0XHOACANzBJHNQTz4/05lHzxlwt3N3RZnR97EjQc7vSV4qANea5WvSrEQAAAKpfRabF52BjqO8LekaNbbh9dQsdQmsHAEBeaPGAelKRwAMAAADWJzQzAAAAgG8QeAAAAIBvEHgAAACAbxB4AAAAgG8QeAAAAIBvbAUeWu8QTZQ5WyYAAACsX/ZaPKbO0sy+UZqbm0MAAgAAALbZCjySyXma7OukvXsHZAByCwEIAAAA2OBojIcRgDQPzBL1T4sAZMiTWUEBAACgvjgKPHi67t6JOVoa7SIa66amzuGc2TMBAAAAstkbXKoCjgsXRmnfzIAIODqpb3JevQsAAABQnK25WviqltN0tuxgAxMeAQAArE/2BpdODqOFAwAAABxzNMYDAAAAwD6i/w8cA1DReT8l3AAAAABJRU5ErkJggg==;" parent="1" vertex="1">
          <mxGeometry x="269" y="690" width="262" height="115.53" as="geometry" />
        </mxCell>
        <mxCell id="v7_wvwtVESySVI0uE3yg-1" value="" style="shape=image;verticalLabelPosition=bottom;labelBackgroundColor=default;verticalAlign=top;aspect=fixed;imageAspect=0;image=data:image/png,iVBORw0KGgoAAAANSUhEUgAAAwEAAAETCAYAAABungqsAAAAAXNSR0IArs4c6QAAAARnQU1BAACxjwv8YQUAAAAJcEhZcwAADsMAAA7DAcdvqGQAAHHCSURBVHhe7b0NcBXXmef9t0FIoCuBkIArFBBjCGItEgnwR0zwQI3xDAFvmPEmwfl6yxWMPbOecrLesas2UyYJqSRV8b55xzNxqsYOiWf8TmInsyR4jYd5sWdN8Mp2HIzYRB5kwAO2ha6QBLJ0QQJkz3tO9+m+3X27+3TfD+lK+v9c16j79Pl6zunu55x+znOuGhkZ+XcQQgghhBBCpgxXq38JIYQQQgghUwQOAgghhBBCCJlicBBACCGEEELIFIODAEIIIYQQQqYYHAQQQgghhBAyxdB6B/qPn9yi/sqN//nMPvUXIYQQQgghpBSINAj4g/uOqaN4/Mtfr+AggBBCCCGEkBKD5kCEEEIIIYRMMSIPAsqnV9m/V/7fZcYs/9FnG13nnT9CCCGEEEJIaRJ5EHBpdMj+fewLJwwTof63ZuLUbytcYdYvGifx/Q0VqKhQvw3fF2fy5Z9xb8UGfD//hAghhBBCCJmU5GUOVHvNMM6enKWOYnLy+9hQ0Yx//W8jGBlRv93AP/2zCieEEEIIIYQUhZzMgazf8ECZ8TUAl+dkhYVzEt/f/hdo3juCR/9InZIs/XP8ufOYEEIIIYQQUnByMgeSv/Nn/x0Xz03HrLmj6D5ZlhUeysl/wj++sh2fDFT4lUnPP8uvBaap0L3/LD8ebLBNhzY47X2MrwrW+ePqpMIRVlFxr0hZYqZ/770yvXuNM4QQQgghhEwVcjYHOt5WawwAZs65kptJ0Mf+A5apP/15BX/xHWC3NBPaux27t1ZA/N80GxLHr/zF9zIKfbP5VUGG7cY/ip+FDPtHfKpDmRvtBb5jDx5eQcd/kOk9qo4JIYQQQgiZGuRsDiTNgD66OYWWP3zP1yRIyyv/ihPqT38+hv+++8+xVP75R58UA4CP4VOfMI7UcQeOS33+5HF0fOy/4371VWHpn/83EaaQYXIw0ay+BGzdLbK1cnWkRwghhBBCyBQiJ3Mg6RFIfgWYNTcNzBjwNQkKZekn8KmP7cYzY7IIeDv2yq8A1s+1CIEQQgghhJCpR07mQKcPz0bjmvfUEQyTIHnu4rmEOqNjKf78v5kmPtLW3+bk9/H9uAODpR9G8yt/ge+peCe//52MOZAME0cZEyBCCCGEEEJIbHMgafYjqV96xT4nTYIk7/XMzFyn448exUjHf0eHGAhYi30rtgOfiD1R/0d4VK0ZkGlsx6cy5kAyTOSBv2jO5OEadRBCCCGEEDL1uGpkZOTf1d++/MdPbjE2BssFuavw/3xmnzoihBBCCCGElAI5ewcihBBCCCGETEwifQnIB34JIIQQQgghpLTQDgIIIYQQQgghkwuaAxFCCCGEEDLF4CCAEEIIIYSQKQYHAYQQQgghhEwxOAgghBBCCCFkisFBACGEEEIIIVMMDgIIIYQQQgiZYnAQQAghhBBCyBTjquVNv8d9AgghhBBCCJlC8EsAIYQQQgghUwwOAgghhBBCCJlicBBACCGEEELIFIODAEIIIYQQQqYYHAQQQgghhBAyxeAggBBCCCGEkCkGBwGEEEIIIYRMMTgIIIQQQgghZIrBQQAhhBBCCCFTDA4CCCGEEEIImWJwEEAIIYQQQsgUg4MAQgghhBBCphgcBBBCCCGEEDLF4CCAEEIIIYSQKQYHAYQQQgghhEwxOAgghBBCCCFkisFBACGEEEIIIVMMDgIIIYQQQgiZYnAQQAghhBBCyBSDgwBCCCGEEEKmGBwEEEIIIYQQMsXgIIAQQgghhJApBgcBhBBCCCGETDE4CCCEEEIIIWSKwUEAIYQQQgghUwwOAgghhBBCCJlijMkgYNn9Xfj0tvfVUTZzt53F9ie7zN/9w+rs5EFXf0IIIYQQQsaS6IOAdQMZRf3Js7huiTofgRN7qoHrLmKuOvZy7un52P3FBvzi2TJ1ZnKhqz8hhBBCCCFjSaRBgDFTf89lHH2owVDWd3+xFrh9KLpSe2oW/g2DWL1OHU81pnr9CSGEEEJISXHV8qbf+3f1dwDD2PjkOeBvG/D8S+qUL+Z1jUfmYvf3ZqpzDuSXhK3T8IsHqiBS80UONv6kocon/vu47uEUWpLqMFXtSkea26zqSuIF9ONPbrtinDvtKm94fLvs6sikTAx65uM3p+TfnnBXfJl2P/BoFeZ807qmEge/OAcnjL8VAfW3yv7zp6epMxKzvHP2NuDUDfmFh7cZIYQQQgiZiui/BKy7JBTbSpzKV5l8qRynk8O4JoYZkcXcbUNCyba+QiRxFIO4xWNjX31byhxAKLOixq2ZLxW6+MvuV4MXGf5QtQiVgwhrACAV6nOoeTbpiv8nrrULV9DyzSEMGF9KRHjqAlZ51wAE1P9cVxmqGy6ro2zyDSeEEEIIIcRLARcGz8TzUkn2+wpgMBOvPwu03B5/4e+5p+cohVwyDW/9xkfxlbPzKu9zr87EYPJ9exAQHn8YS1YJpf/XqtzSdCcF1DQoJX7dEFqSlThiz7RPw28eFQOFVZewTJ2RZAYNAeULqP+5rhnqL+cC4suYkyzDwLv5hxNCCCGEEOJlTLwDWRjKuUd5jsSSIXzaXpTcZZv8OBn8zayMmc2pKvzcaY4TGn8GBoTS33iDUs6XXMTvCQX63151mNekprlMeHLFt/7vTsNg/agYsIjBCCpx3h48iHLJQUW+4YQQQgghhHjQDwKkkokLWFKIRa1COT9yxMdUJpRhbPzmIGCb48T1IqSLPw0D3eKfVefMQYJxba3jy4HA8VXB4EPvo1r9GQu/+p+ajvMy/XWXUNNVhVMQg4Qlo6ixBh75hhNCCCGEEOJBPwgwFFeg8Z4Bxwz2+7jufq93ILl4VijRGj//J35dieoc3GWe71Iz80uGcIvPlwAdgfHF8apVciGvOUCQP9ciW2nLLwZBGcVd1H3rBQw+W+Ve+BuRoPrPaYDx9eFc12UsuV0MMrqnu5T4fMMJIYQQQgixiGQOdOJ7DTh45ALW2yY1/cCeYC8/obxUZSyszbjLlAtvHWY61oy8PZiQtvRlYhCi8v7m+/i3WF8CNPHV7HymbuYvs7mXXOswF+dvS6mwFFq653q88cQgq/7SHOkCWq6bhrdOmSZDNavEIMO29c83nBBCCCGEEDcRXIQWgQjuQscMuV5ADAyOeNcQfHMY/2a7CC0wpVR/QgghhBAy5RjThcE2L83B7lJRgH3s++feOCzOFXFhbSnVnxBCCCGETDnG50tAiSFda65fpQ4MfDb7IoQQQgghZJLAQQAhhBBCCCFTjPExByKEEEIIIYSMGxwEEEIIIYQQMsWIYA5Ug5W3/hGaqoChN/8Z/9/vzqvzZKxo/PTD+NqmpHlw9DF86a8PmX9HYgk+861von7fF/FImzoVk/zyLxVuxpd3342W1HP4xl/+FKfV2bFgossvbvnX3vckbut+CF/9uXNl/fjJX4eufpOj/xNCCCFuInwJOI/fHXgK/+OFfwWW34SVs9VpMmac/vkD+NL2L+Ib+1PqzNgy3vlPdCa6/GKVv/GzuK3lCJ51DQCKjxx4fPvTS9RRPHT1Y/8nhBAyGYluDvTe2zgzVI2Fi2rUCUImEofwiFDkvlRis9CTjcYbVgP79yD7oxPlTwghhJQSMbwDKbMg/CueP3AU76mzkVl7P360PeOHM7XfaS6gTAXUEZwmAzLedd3Yv2AzNiVT2L/7dbRu34ykfY00d7kXeOwZ1O+00jiCH27/nkMRCUnfwDSZsb74Z8f3hHtMAizzh7/FvbbZwNHdccxvPOUzEHXd9QB+5tCYDLOE+md8zBHC6meZAz0GbA+Sj6d+ASYbwfmHo5dPuHyz20cU0e4/Vv0y6XnLqTPnyL980QiWX7j8Y5fPGd+47+Bu76xz0eqnb3/ZDz+Jbr9+ayXu27a6+9dTPke4K20nrnzC5Wuhq1/k9vPUMf/nAyGEEFJ4on8JWNRsrAtAVQMWxTUJMpSOeqHUftH4rC5/mQGAfIHejQVCqTPDHsJ+bMbX7rtZhQtaNhtK3g+PJrFJpPPs9sdwNLkaNzaqcIjzO6XyYab9w6OrcJcdX59+46fvxaYe8eJWZfuSSwGRL3HxgrfDRfwFd2eZHiQ3fdNUEMQ10mygZctnYRdPw9r7hPIjFQeZ/q7nhPovlQS3IhVMBPkJWrYHyUfW/3ahhJlhVvx7cjStCCJMPjr5usNl+VVARKKYc+RTvnyJIv+w8oXGb3sNR7EK1681DyWNDfWig71m9/FC1a/x058U/fiZrH6rl7/z/hX5p1bhNkf+YfenlbbsE3JgaF/jUMKL3b+L/XwghBBCikHkQcDihg9h6M1X0BnbJEgoqVtWiRf0o/5K7drbsSnptCE+hZ89JhThluth6y2p5/BL9dZP+ZoauJXmtt8cARZ8yHzJRklf4j22uRnXtxzBD22lQsTfdwTJ1pvcL3E5u6iuOf3r15FK1qPBONIh0xfl/41K//TLaBe60oKGiEpKxPplyccRfvrn33O0zSm8KgqQrF+kjgtEoHw08lU25pnwIpFr+QpAJPmH9K/w+IfwS6l0XpcZFN/YCuzfa9WnUPWT6SYz/Tgmmf4ZUP/A+1NPcft3sZ8PhBBCSHGINgiY3YIVCwdx5p1TeKd7EFX1ixH9Y8Ai1CeBni5LSfUh1Y0u9WfBcL5kNenL2URjdnz3k/iR+Llm8Ro/hAXIhBk/h1mTRar95Yx5wemf4querwnBvINuofTbSlrjTWhNptD+6xB5eYkrv65u42uDjVC0v+2on695RZ4EyieifIvNuJYvgvxD+5cmvqF0Wkq07F94Ha9aiRWqfnIwisxgvZCE3p9RKGb/LvrzgRBCCCkOkQYBsxc1oOrMG/jde8B773RhKJZJkKnkhuKdFWuoR96vaadiHCH9tr+2zAUeQ8+mb3oUjSP4oRHm+PnYFOfGKbzbI/5pudtUIHZuBoK+mgQRV34y3JbPzfiykWfGlCLMbKY4FFO+haCY5ctX/hHiG1+XTJMgY+GuUyE1yL9+a69b5VZ0C0z4/RnGWPTvUu+/hBBCSDYRBgE1WFRfjS5rJv+9ozh2Jo5JkPn5vWX7/f6f85XNcsYG2DIf8jf70SNe+tsdCkns9D2DFqVAOW3oC4pl7uJQINz+1TXErp8K9yhs9pcaUZ57ivAlIBCdfE+/ix5RP8umXS7OvMu9gtrANp9ae39hZ3qL3f6KfOUfHt+8Bxc03IwbW7vd7jsLUT/Vh8fGLaj/pEKXOBlmwlS0/j1G/YMQQggpNHrvQIvW4T9dD7y25yW8rU6Z5+QageibhxmeNRwv31DvQE7vGnJR8ZZuw5tHg/Ky8dWfL3J4IRFKrctziDdtSUj6Uin2xPf3YBKch+X9I5by7kDG9yq2Xu83WXqLq4zx6ueVj7ttjmD//npskosYjTSi5B+OXj6aMhoLy5WJhcj3h7jbnZ5Q7L69c7P59SP1HH7Yvhp3xSh/3uULRZ9/uPz15dPFN1F9xLfdwuoXsfxZ+Vno4pvhwd6dfOJHqUNk+UYrX3C4JPsaZ//I9/lACCGEFIMYLkJLFfMFnM+OuOOKocBKj0ceG++dq9HucbVITKhUlRJycJHtFpQQQgghpU10F6GkOPjY70u77SS68S6VKlLyyE3AOAAghBBCJhocBIw3bd9zeT4xvZd0w71ZEiGEEEIIIYVjEpgDEUIIIYQQQuLALwGEEEIIIYRMMTgIIIQQQgghZIpRgEHAFay49x2s8fHdXqo0bHsH6zdeUUckLv7yG8aane9gy71DqFZnyMRkot8fY1t+8/mnzy/6/THVn0+lWf+xe75N9fYnhIwd0QcBLeexRT4Ejd9ZrKhX58mEYLK/WEq9fkUvX6Huz/ohLGtK4MTzZeaxke55947UfudKBW/5JxpB5Rfn1xdDCXX1G/OXSz8tWP/Oqr85yHKVcduwCpuEBLU/37+EkCIQaRBQvfEstmy9gpOPL8K+XfJXA/w+Z3yJk5k4LPvGo1UYVGfI2FDI+7O6WShYbQl0qeOJRumWP9r9EVR+83wdTmIYCwuuACbQbvQb8Xt8DrA2NW4D6qD6p/ZafbsOqaa+cSjf2Dzf/OrP9y8hpFhE8A4kP4P2AeIhfPioOuVCztSkUPlSHbC1T/m8ly+VGseDzLxmaa067J+DQ/bDVIadB/ZUoXJHUHyzDG5/+uXioTgfx7rl3570O+uw7+mZ6kDiCRek25I4GGe2UM7EbE2rA2d8q/4Z+ciH9s21VXYZ5CzZsv4kjuA8bl57yTgnX2rW9brw8PqFy88oi0rTRZaMwgiXnysPn3Tzq58iQP7R6ufpP67+pymfkS/c/dHvXACFKF84uvvTQuUR2u7ymiFcsO8rQaT6e/uH5v73lCF2/8hK38Kn/EZc3fPFk36c/qHiLui07gerLQPuwbjyNzDzkM+Y4/POYhVqHM8uXf004bm0r0M+0fp3cHw3Qe3nfL6axxl5SyyZK7LSD8lf1nXFdJysGxDh4p2ydyYWbB1AIqiOWe0n0873/WXhV38zbvj9HVJ/bf1yKL9OvlnxPeGx739CSLGYVltX83X1tz8taaxeMQMnfjYTQ+qUmw9Qd0Mai1e9j57HF+LlfbMwbeU5LJ49C6ffmmZcUb1xEFW/WiDCZuP4QRF+Qx+W2eEy/ntYui44fsO2lHhIiAfHD2px/M2rsXDNCM7tXYjfnjCCRfgZXHtRhcv0N5xFsyu+M3w2LiYHMXc4YYdrMV6KciZGlk/WYbYjrln/GW/PRnePeab8mgtonFWO4x1KSV45KOSTRuPFGqMMPWWX0Lz6A/S8Vg75yNOFh9cvXH6X3qq065x4M4kDP64xjq2yRUEnPysPWW5nvS3yq58gRP76+skX0FnMbbfCRPqi/7VeMyNa+4g2rV4/gMRApn0bNogXYn81DkeQYSHKF4r2/rQYxcL1F8XLf1ZgutUbz6P5YhVefsURnhzB8hXipXzQkb7nXPXGfrQKxdTqH8ed1wp07au9PzTpW/iWP+v+kG0h5LvS0f6hzydd+cz7P9Ev74fLhrKUEAPUAz+utMuouz8s/MsvqL+I5nXT8bZo476qy1jpkI2+fppwv/a9WvSVNZdw5c1K9Ilxd5h8ojxfdPK1CG4/x/PVkMUI0q/XqPsxwv0dlr+s/8cHcfnAIpy46hyu/fh0vLGrGvjEBVSo+oe3n1e+Iv2Y7y8L3/pr729N/bX10/WfKPIt7v1PCCkeBfMOlNprzV6U4UxnORK1o8Z5yeDzNY6ZjexwSXD8YSSbRPgxNXPQXYGefiAxz/ocLMMTaLdnFspw7KUEEk0j5udSZWOZCY+LeAiuSyPd5qxDDsjZE1WGwY6ZSIv6VRlHisBwTf0UYfLPi7zlp8i5fnnKX7xEl9Y6bWxF+nvmIC3Sd9m0B5ZvJo63lSO5Ytg4MstbjpO/ylMeFlHLlzfKnCGwHa9gYdOlzH0Wl8DyRuu/2vtDK4/w8mfuD6DrWAKoG7Xzj/J80pYPI/YAIDNDHYfg8ksTkURnhTmzerQCqdpsk6Cw+kl04S66pyPzzS2ifEKIFj+8/ZJblT38jmGhrDpmiSPcP9r8RdseV+mlczQly/39ZZHj/Rfl+RGhfoH9I+rzKfD+LND9TwgpCmPjItRa1KZ+vp+PA5mOC+KhaSth9SNYUFuOHms2pn4UCfHKanWk7zQbyZ9RVNaKh2dvLi/2DGnxErc/n3ZX4aDrc2lIeNHrNzbkXr8CyL9/esAsWoaw9jFeStZLrmUEyc4qh1JRACKUr+jIlz0yykIcBp+fj/bOTBu67LUj9t9Q+YelbxG3/E4lI8LzSXf/JtYOIAnHcykugeX3Koczkeq8hAXNGpt4nRIVFm60mYO8nt+CKPE17SfNQ/btSuJkv0/ddfdPvuXPC837yyKP+68ozw9n/9CkX+z7nxBSPPSDgLNyViiNZM4uQIexZscA0JZUi5oW4VBbuQqLQhmG+sQ/TX3mA8RIyzsrnIC9sM36uWwW88F8iI8vxaxfKRBWvwLI36vwzPcoOTqM2TvzHmhYkY4/W6cjn/LlfX+ayHq5XsQWRvo+eBSDrqettqtDOmthaf79Nzz9kPIHYZc/3+eTiVyjcqgNWLojN69JgeU3lEbHTLj4tTYJiXpnUr3oFMOQcOPLg3zuGs/YfOUTLX609lOzyGvTbhmH3j+Fad/cifL+0t1/mvs73+ebH87+ESH9Yt//hJDioB8EiFH5iU75EnK+3K5gxbZ43gnsmdz6IayKMxMjrjfMURwPENfndqWgtQa5jTM+bWceonKRl3yJRsf8vOuufzb2592WzOKmgqCrX0SG+sv1ioMfectPg7Z+0eQfWD9pPiHKv8x+KVnmRXE++5vKR3LdWSyry222rmjli3x/CmVIKiF+clb3WOaTvwNP+9vlC1TYPIO2AvXfDD6DwrDyZyHksDW7/Dk/nxzYM6Jx3XiGlV8qXNJUwvH8kx580j4mQSb+9cugCVfPr9Re90ysTj6650to/DjtdzSBk6I/2fdLxPunEO2bE6puge8vSVj9dfd3QZ5vTjz9I3b6xb7/CSGFJIJ3IBO5gj+j/GV75gnzjuP2ICEe4m1XsNQO18d3523i9u5jppHxTuAJNxaWqvnMzjoc6hcvApeHDT3uOnjSFw/x9TsGzNkR8cJu7xxGq493oKD8dOHh9dPLz8STRqiXEg+h8ssum4Ej/fzqZxIqf4Ow+kkF2OHdwlN3ffkkZhr52HznWr4ouO+RIM8jIg+ftP37iwNn/5a40vBp/6w8wts3XP769MPLH563xN23vM+naOXLeKux8rPawKf8Ekcdwsrvn7czT2jqp6m/8942yO47OvmYePLx1i8kfpT2cz7fzDJLRwFWOcPvn9D8ZVrrphvebqpsWY+K9CwvPbr2yy6ftz7ue9PE2Qbh9TcJv79D6p9D/bz3R7h8feTjkb+uD4bfX4SQYhJ5EDBuGArIKE44bQSNc3KBmPtlRUjxkC9CP/eNE52JXi9d+bOVtNIiX/nr6jfZ61/iaN9f413/Uu8fhJBiMjYLg/PBx/7QbbNKSPFp2CZn0Qu8ILgkkF6DJrICxvJPbCZ5/bXvr6ne/oSQ8US/T8B40zPT9Fv8nwaxfL35a1w0E+7NSAgpDvJT9e+Lvpe8ag4O/biSfqsnHB4/85MOXf0me/1LnJJ/f7F/EDKV0ZoDPfzd5eovQgghhBBCyGSg9M2BCCGEEEIIIQWFgwBCCCGEEEKmGNo1AX94q9c3Gik0vS++ja//oAcHDvTjQH85/nDlDBUyMYhb/o6n3sRP+qrwsSXT1BlJGk89eAp/98ZVWPWxmahUZ0sBXf3Gpv0u48VHTuLRU4VPf6L3v4lB6fZvEoXJ3n4TtX7mc/GV6lqsnKdOEQdR5ZNr+xdK/nw+5kfu8ov+JeCNFB548E31exsv9qrzJYJULP/qxcvqaGIxb8NiY+3Fg5sr1JmJRazy957DgderceuGsVU08+kfuvpNqfYLoNj330S+v0sdOQjMPNvN31NvqMAIyLbJNa6JVCQcaTzlu0d1ScP+OdmRSlZQ31Rh9i+FDhUSCfFO/CtH/Pj3Dyk2431/FzP/SIMA4yXxxGVseWC5oSw8/N0k8MI5lNg4gEwAejvEQ3TzXDSr4wwJ3CH71pfnghM6wTQkOUs/MSnt/t2weYl6tpu/O65VARFoviMT7+EH6pB6It4kUcdTp7BvwUKVxkKsef1MCSrUk/35xOdvGB1PnQHuXIItPWc8SrocwMow1f/F787Vg3gi8kBWxP9JGq2WbnVnNQ7HvH8Kw3i3P/tffuQuvwjegRaKUa7ZyYNfDPJGEA9yy+dZQx0etAsjw1LA5+Yi9fAZHDbOVeNOMZAwFUFduESOtK0wgSN9OUD57nMj5nknq8VL5Q6vh2Y/zLKnbs3Uz0gzNdcR31O/rPJ5wiPn7SY7XwtP+i75mqPEA8kl+DxStizWuNorJL78wvOEaF5nfbLORatfcPktZDueQ/KBxdjg6KmuNsxKW+at6x+e8jnCo/WPcPla6OoXuf08ddS3n47g+schcvlj33/h9Q8rf7T0QyhA/459f3nk76qDb7mDn29m2rr+H0KE+svy/QOS+EpBvs753+OByFnQh6USlLnekNfRhO896I9H/ln3b3j76Ahrv7z7pyB2/8pK21s/IQIxqDPb0wwLe7+F1U9S+PLFkb+Mq9MfZP0WAk8Ehedx/0hkH/0J8HnZp4z+ehm32vGz+7tXvvEwnwXh+lYGq23c964lE5mGTj769jcwnhmD6sCvfwWnr0Ofv5lHcfqPJPj56yqbkyA5+aIrvyc8Zv75yk+/JqDhKvxdezn+6HMJzFfnvPSKYWvvLY24+49r8Ye3VmHGq2dwYMSy+X4fp17tw779V7D6gWvENSL8jR60RQ6XFXgHJ25egp075tvpP6FsoyuXzDbWLTT096N3lXWNKEdku2aZ/wDSSzM2bRdPvYf/nZ5pp9H7YheeELV/+L/Um2nf6pZFx1Mn8fOEEL4RLsr3wjv4pV3+6HjztQiXrwj/XT8O/WoA/7vKLOOqsgv4x7b3bduw0PiizucO9OFsQ6b+vR3nRFqz8XlVjqj1Cyq/Re+LKfxj1VzcfaM73GpDWe7s+Lr+IdMNbp8o/UMnXwtd/YLCdfLTtZ8OXf+MSi79L4p8tfXPs/1CKUD/1t9f4fIP79/hz7co/T+UCPWX7f5bJKKlp+ONc/i73pn4kz+IaJd6+j38D+f1Qtn4+s8vAEPT8eGI/Vj7fMzz/ghrv7z7p0DXv3T90x1uluWtxBwVrn+/hffP/MuXn/y9/V/WT9wfv3PeHwM4eCiqfuGNr0MoiN94D8v+VChNsrKVM7G07Bwe3WvVfwau6u/Bz//HFTTIeolBwuN/N4jlf1Rvyzsel/G7A0NAa6a9wriq7wL2p2Z46uJsc5189O1vDgCkJYgpP3mtFVcvfz3a/lfQ/uMtX7H1S335832/5iM/OYAoiHegeRuSjlmfGWhuqUBXyv05d82d1kg5Zrh4qezrctqQz8CGz9Wh4fV0PLu7fAnML43fvi5GVvboS5Tv1mp0HU0XzFwqinyN0aMqw7zmBBq6LuOscaSLn8Atmytw+P9Yny8vo+MosOUWqz6Fqp9MdwRrPuodpUZD13+C20dPJPnmTET5hbRfJIp4P+Qnn4j1L1r5C9S/de2Ta/kjPt+0/T8QXf1Nup47BdumObZNvnyRqrhPDGLNrVFn8B1YdtHGF4qFWCPS7I34gInUP4t4fxSEwP6l6Z9CbnKNVSa8SORaPos85Z/p/0DzR6uBHtE/zEOD6PqFf/xgpJlFJq7EWEPl+NJkmMPdCTwh+6/xVSvaLL4f0uzosJD1LRHjz5ufUfjkVwHTjO4yUl0VSDrKnPvzQ9zbBwbRsNl5j2WTe/oRKVj/8ZRvrPTLkPSKq38oAvKXfbkwLkKtB7j6+X6+yIeGGTFGfoVHCsqw81P1c9mr9oobDpkw60VYUCLIt6ElkXnxzpuLrzg/N2niGw91q5P0ptEuHnzNVmKFqp+82RD94RaH0PaJQjH7b0T5hbafhrzrryMf+USof7HLX4j+HdY+eZe/yM+30PoLZPkte+aHv2vaPccbCIgX55cz8ZMHYsqgqw/fNUwsZHwhV6NNZmCeo4yh6J5vxb4/CkBg/yrU8zdP8ilfUeQfd5LES77xHUjl+4EDM/Cg7L93zsC+h3Oro5yVfUIOqFymbBrmzUCDMaARgzFUI2krjzHun1BE+3YBScdgY6wp+v1b7OevrvzF1D8Euvz1gwDZycRN/tvAFetpPPVwH+BYWFZwLyneG1Y8eGzzpjEis/htIZLPnfIIUty4qu72L86NHEq+8o0Qf14CrQ1mGxsLd50PfIP869fxfwbdL5ICE94+YYxB/y1q/zDJvf46CiEfff2LV37BGPTvvMpf7Oebtv5OzJmo3Ik5k2W8Xyqw5QHHoFfWP/KLOVr/LGr/KjrFf37kxzjc3/kqboVS/IQCd+B10X8/p+p7bdJY3Nv13LnAmV8/TLtuuO+DKIj7JymfH2+kkUrOxUfE/dAhB2YFU2xF+g3qz3GkqPfvGOiXweUfC/0jXH4RBgFzcetq4PATTrdXl/HiU27vQPZIUdwU/1DIkcy1CawRg5ADdqGtz1NuDzPzk+LF4/0EGYPUWZX+G5nFT/54bgr1go3uDSA38pVveHzzxZ06Kx4gR2e43XcWon7Gg3Ks3IL6P7R0/aNo/XeM+keG4jy0dfIJlG/s+ufWfuEUuX+7iCn/iM+3/AipvxfVvllme+K8MVv1iM4rXBovxIlvyH8E+35inVf1jzlhEP3+Lc79ke/7JxBd/5RKoGOSzpxNNv92Ev39FpMC3d/REUrTE/lMKOUb348RpBwNLye8sgYZIfdPZgDgNjuKQ6/QYlubRZ7Jy/jtC0KJXTCjQPUznx1u/W88KfD9O0b6ZQb/8uf8fo1Ndv4RvAMtN/6Vn7wyDxc5c5PpsGYntgpejS2bL2OfvTpeCNVYPR7knUAXLhE3rnP1dpQV0HFWb8sbVIzGjKgNdbizJY0nPOXLrKwWZKWdfU1m9bwOn/QlQau/s+Rrtk22h4AMuvgmSsaRVpc76xex/Fn5Wejim+G6/uOKH6UOkeUbrXxh9fe7xtk/dO0XTtT6B6Evf7T+40kncv2jlj8s/Sjk2r917aMrv0+4xHVN2PPNjB/+fIxCUP295XM/222sZ6S0DXfN8mbXz9ezVWB8iTuN6M9Ok9j3r28fCMInvkQnxxh56O//7DK4ZOT03CLyvRNn3OnFfb9JHOXPr3w+6ecpf3f/MMPjvB/i9i8tTvlL/Pp4YP/33PsWvveJH6p+UNerfOTMslP+sd6fEk8bue+x7PbN/fmky98nPIf+E16+sOevhacckcugL79btnHfrz7pS8LCPflHHgQQkhvyBovhMpAQQkjO5DepUGqYSoxTiYtHvvEJmdwUZmEwIYFke1cghBBCCCHjCwcBhBBCCCGETDG05kCEEEIIIYSQyQW/BBBCCCGEEDLF4CCAEEIIIYSQKcYYmgPdjC/vvhstqefwjb/8KU6rs1OHqV7/CKy9Hz/avkodpLB/1wP42RgIqnrjWdy89pJ50FmHfU/PNP+eIMQtf8O2d7CsP4mDz5epM5JhrNnZh2T/HBx6tApjvydpMLr6TfT2I4QQQsYD/ZcAqZjtvh9r1aGB3zlS4kgl7x1s2TasjjNIJWqLDHP81rSowCjUD2F9rnFtxCBJDACO7v4ivrRd/sZmACAZfH4+9u1ahENt5erMxCJW+UVbLWtK4IRrAFB85MBj/cYr6igeuvpN9PYjhBBCxoMxNAc6hEekcjdlZ8HHt/4N2/qAvUmcrOvzVdLTbUlDkbJ+h4+qAC1XsOL2YfQ8ruLuTSC59SxW1KvgqDR+CAtwBK+1qWNSFKqbxSCwLeGzLfpMHJbtV2JfAQghhBBSHPTmQIaJBvDD7d+DrZ9lnVuCz3zrm9iUNA4ER1zXN376YXzNCjz6GL7014fMvw1k3HuBx55B/c67Yeqn7vi2KY06MoloLpJL+T1lXHvfk7it+yH8Le616yFnrB+xE8yn/hJP/VwmQ1Hko0HO1N8uYkkFT/69YxQndtXYiqD8ErAKNR7zkFwxzUqwN85AQuDXTjZh8onSPtEwzEpqq3zMScRA594UltaqQ4/JjGVecwTnbbOUlKv+IfFbzmPLVqDd0R7Z5zzxA0xegstvIdtmCBcen49j3eqUINycRuZ9HthThcodfTClm3CX11s+R7grbSeufMLla6GrX+T289RR336EEELI5KMgXwIaP30vNvUI5dYw45A/tyJ3+ucPGOe/sT+lznhJYtPOT6J7l4z7EPanVuG2Ty9RYVLJEwqgVJ5l2rueE+q/VPIimou0vYajQsW93mG71NhQLxJ4zS7j2vuEAm+XX+S/4G5825G/JLnpm/ha/TN2PVq2fBaNKiy/+ksl/24s2P+Qiivyx2Z87b6bVbgkXD7hCMVvxzB6hBJnKFXdVTjSdgWt9w6h2ggfX+QA6Ue7nxQDALkWYBXukn/Ln13/KPIJb598qd6YFkqw9ZUkiZMYwCqPaUtibcpUQMU10iwluS4j39D4RytEf04j6RjhVs8TYZ0VtpLdsE0osH1CcbXi1/XlZFpTvXEIyc4q1wBAojenuYSlO+TgQeXfn8YyR/7VG887yid/mQGClXZ7p+drk0MJjyLffIgiv7D2I4QQQiYjhTMHark+rzUCGaX+FF5tTyFZv8g4L2eBrxcK0tHfqNnz0y9DBGNBQ1Ql+BB+KZXC6zJK5Y2twP691my8TP8IfmjPzp/Cz/YdQbL1JrcSKWef1TWnf/06Usl6NBhHilzrv/Z2bEoewbM/P6VOiPwfEwMdT3rB8tEhzTzcM7+GYuaZaZVKkL0mwGfdQFSk2ZFcXHo84iyqNUD60u4j4kh+4ZCKvvhZ7RFRPtr2yYPB52sc8ivDmc5yJGpH1bFCzl4rxXawYybSIrzKONLFn4njUulcYcn8ChY2ASd/ZSnJw0g2JdBuK81lOPZSAommkZhKqkz3ElLHMsp3HFJ7rT4UUH9RnlzlHUm+ORNRfiHtRwghhExGCjIIkIrcD49mZnG9s+j58Q66hdJvK/GNN6E1mUL7ry2lUI+hFFpKo4yP1/Gq9RXBsEV3zEDLn+2hJkOq/eWMLf/pn+Krjtn+vOuf6naYVow91mytc6Y0l4GANMdolQqXjylHXkSQT1j75I1n4bOfeUu6syJT5+4qHHSay2jiG0qnpUTXj4j+OBNnLKW4fhQJpNHqiL9la1oFxqAljaWIPjiLg+w/7Z2ZMsb+ShFBvjkTUX6h7UcIIYRMQvSDgK5uw/wmC49i1vbXagZ3+2Po2fTNAg4ETuHdHvFPy92mgr5zM7D/0XieY4yvB6ZJUOMNqwGnwmjgmIG2fjEX8OZVf++sdUO9sr0eD8yZ2LiYtt/AyceLoDyNq3ykOdWAaOCMKUs8LzQR4ndXoKffNAkyFu46FVIDaWNvDdLUL+ZAq2FF2q3oFpiup62y1SG9NhVjIJCvfKOQv/wIIYSQyYZ+EHD6XfS4bOqX4DNbVrlnXl2YM/cFo/GzuE2a6zgU9K/apiFRMU1oFjTcjBtbux2mJQI1QLjLY2OeOzHrr9YsZGz8lXz37yncTHYc6oewaq2P2Yg1W+uzliAzAHCbHRWEEpFPulctmlbyiUt4fGUCM28YC5vK3O471QChNQ8TLZnn2LkFnY4L/epPB0P9on4hJkz5yjeQQsiPEEIImYRE2yxMKOLf3rk5M/vq8nAjF246PeMIdOES+xozvH5fxpuL4U1HLvJUaUjvL3c5Fk5KUvsfijkYUB5mfL3zZJfRmb7lfcY/v3zrL/F4v/GJHyaf/PB6din3V+blIGDHABJZnlukxxnLa4yDAA8vgcTxDuRpw/D20eGtv8LhQcYc5FiKaQIn266I6zNeaPw338qgi2+i5Ojr+Se7jHKRrZlfxPL7es2R6OKb4ZUvZbzluNPziR+lDpHlG618YfX3uyYjP337EUIIIZORMdwxOEeMAUg9nnUqh8a51Wgfox1lCZm4yMFFtltQQgghhExtCucdqFj42H9Lu/4kuvEuBwCEaMj2DkUIIYQQUvpfAgTZ5kAxN8sihBBCCCGE2EyIQQAhhBBCCCGkcJS+ORAhhBBCCCGkoHAQQAghhBBCyBSjKIMA6XIv9q6hRCBdGfr74h8/zDKt8bhoHTvGO/+pB+9fQgghZPJT+EHAmG5MRAiRUHEnhBBCSBwKPgiobh4G2hLoUsckDmU49ugi7IuzyRYhhBBCCCExKbB3oJCNiVrOY8vWtDpw79iZteusc7dZGW/FdJysG8DS2nKc3DsTC7Y6d66V5iLngT1VqNxhpZFA+64ax0AkJH0D746i3viecM+OqNaOo0dw3t75NLU3s8NqON68BbHLF1a/KPIJw8y78qU6YGtQfE/5Ypc/jBzyz9qxNixchuUjH0VI/9b3j5jld8jXvduug7Adc3XpC9z3JyGEEEImG9Nq62q+rv7Om+qN59F8sQovv+JRHgwF6QpOPr4QL++bjeMHZ+P0W9NUoFRAzmJuexIHflwjwmZh2g19aL1mBo53iHSSI1j+8UFcPrAIJ646h2s/Ph1v7KoGPnEBFW9Woi/9AepueA9L172PHpX+xaSIv1LF16UvqN7Yj1bUYN8Pao2yHT84E0NGiEnDtjO49qJQnIxwEX/DWTTPnmXXoXrlIBavSqPxoplGT9klNK/+AD2vlcNHPfMwDX2vmTKRPxm3sa4MbzvihpdPVz+vfET4ynNY7Ch/ODJ+WtQvOH71xkFU/WqBalsz/2Wu8HD5huPN39u++vYJD89XPoLQ/q3vH9r+FSLfS29VGvldTA4i8abVB8R1SjaSePIx05o7nIhef0IIIYRMOApoDnQFC5suIXXMOcMoEUrqujTSbTX+u5a2pLG01rmGoAzH9sxBumkEDeqMnPk8rmZN0wGmRqm9ma8PXccSQN2oubg2SvoS77HNMJJNCbTbM6ci/ksJJMT1rsW7cnZWXTPYMRPp2lFUGUcFIqh8EeuXkU8ZznSWIyHKF4ew+IPPO9s2IP1A+UYjq33t9HTtE639cpePpn9bBPYPffkiyTcQTfpqDU8mnBBCCCFTgcINAqQyioyynmEUlbVCee/NzExm0T89xsxwRGwlS6BJf/D5+WjvTKN15zvYIn6uBZb1o0ggE2b8HGYfFunOioz5S3cVDsY1JwkhtHySYsgvDkKRXO+Qj9c8RVv+uJydLlpEoWufiO2XOxH6tyCwf0Qpn0a+oRS9/oQQQgiZiBRsENCwIu1WdGym40K/+jMIp8IumS8VlzxxKsYR0u96ehH27ZK/OqTXpjyKagLtRpjj57J5Lz6h5SuG/CIzjDU7BoC2pC2bQ23lKixDuHxjIuvnGvjo2qeY7Rehf2sJK180+YYz/v2XEEIIIaVF9EGANRvp58M+1C2oab6Q3Hre3xzkaAVSSGOZrRRa5hW5ehgSStNWx4Akdvoepa67Aj39abRuG1YnciRMfrHwlK/g8ssNeyZc1HNV6Ex1vkqzqp/Vvrr2KVT7BaLp3zoilk8n36H+8mwTNYlWPvKrShpJtQ+DXGjc2mT+TQghhJDJS3TvQFKJ3eH0ypPB8FBSW+XxOOLG68Uk1DuQ03uJXHS5brqRZ5XysnLw+VGHFyKhFGo9m4SkL5VKT/y43lMs7y+h3lRC5OfEkFPTTMc1Ucqnr1/lSxlvNFHaK4M+vrttEzjZdkWU1wqPUv4wwmVvorsmLFxfvyi4ZRC3f4SXP1y+Fp40NH3cJR+nZyMR71C/GGigJqS8hBBCCJnoFMBFqFRAA9yCjgnZStxEJhcFlBBCCCGEkDgUYE3ATBzeNV4DgMnGMD689hLS/dPVMSGEEEIIIYWngC5CSU5YawWMXx+SnXU0wyCEEEIIIUWlwDsGE0IIIYQQQkodfgkghBBCCCFkisFBACGEEEIIIVOMCWQOpNxgalxskolPJJerY4jLRWcs96alQdzy+8u/dO8/Xf0mevsRQgghxSDClwDpgtNauKp+Rdt4iZDckIprXrsQhzD4/Pwcd+otDWKVvz5s47/ikU/76eo30duPEEIIKQaRzYFSexcZL9J9u+qQauormsIVjHRFKvLnVwBCikZ1sxjg++42zfuPEEIImUxEMAfybsZlHi/otMwFsjfrcm94JcPPA3uqULnD2tU2gfZdNUrR0IXrPufr42ftqGtQjpNxNjhz7qoqcO9I60nfaTIh462YjpN1A1haK/LcOxMLtjp3Ds6h/FkmGWYbZHaE9cb3hHtkaJl/HMF5W85y0Bdt8zUz7dzbX+Itv1e+nnBH/V19w4mrjuH1j4q7Xk6CyyfRyzckvtHv4JZX1rlo9Qsuv4XsZ9kb/+V//3nK5wjPqf2y+r+Jrn6R289Tx/zuD0IIIaQ0mVZbV/N19XcAH6DuhjRmvD0b3T3isP4imteNIP16jXnsDReUX3MBjbPKcbxDKnEy/D0sXfc+eh5fiJf3zcK0leewePYsnH5rWoRw4NJblTh+cDZ6yi450rXQx2/YlhIvcfFi/0Etjr95NRauGcG5vQvx2xNGsB5D6boiBg0y/dlGWay0TQXiLOa2J3HgxzUiTOR/Qx9ar5lhljM5guUfH8TlA4tw4qpzuPbj0/HGrmrgExdQ8WYl+tLe8s/GxaSIv1LF16UvqN7Yj1bUmPUTZTt+cCaGjBCThm1ncO1FVX8Zf8NZNDvkU71yEItXpdF40UxDyrl59Qfoea0cPuqZh7jt762ft3wyfBBzhxOZ8m0cRNWvFijZm/Vfpspv9Q0ZJ/GmJSNxnUpboqt/VNz1yhBWPiNcI9/Q+EKm1evFoHEgI9/qjwyJtCpx2Fd+wfULKr9F9cbzaL5YhZdfcYfne/+F9c8o7aeTr4WufkHhxb0/CCGEkNIksjlQcqtaD7BjWLzs48+CpfZas4tlONNZjkTtqHHeQheuIzj+MJJNIvyYmtnrrkBPP5CYF9WcSSjh69JIt9X4fzVoSWNprdOGugzH9sxBumkEDeqMnLk8ruSV9jW1cJYf6DqWAOpGIYYK0dKXeI9tZP0TaLdnNkX8lxJIiOuN9C3k7Kq6ZrBjJtJCflXGUWEIrJ+yQc+UL5vB552yj9s/ItY/DyKVL0S+4fFn4nhbOZIrrHU4V7BQ9OeTv7LqU6j6yXQvZe6TmGjv38D+qSe/9tdRGvcHIYQQMtbEXBOQxMn+S1jQPNbrAfJhOi4Ipd9WoupHsKC2HD0Bs4XZjKKyVijvvSHX9093zbwXBKeSoUlfLnxs70yjVS3cdq3XqB9FApkw4+cwa7JId1ZkzCu6q3DQZc5RBOIoUa5dld/xNx8JImL98yJC+ULlq4lvKJ2WEi37rxgYnLGU4kLVTw42kRmsFpLQ/hmFfNpfR6neH4QQQkiRiblPgJolW5vOeVZv7CnDUJ/4p6nPfMHvGACCZvV9MQcRoXgV2vlSscgTp+IfIf2upzMLt9NrUx5FK4F2I8zx87GpHlMiD5yGscZos6Rd9vheXopZ/3zLFyG+8fUqjWQLzIW7ToXUIP/6NaxIuxXdAhPeP8MoRPvrKMH7gxBCCCkyMQcBgqMJnBQKyTLPS9w2r2nJLJ4rCSxzE8cLPp7/edP8ILn1vP/A52gFUnDKwzIf8jf70SOUnq0OhSx2+p5Bi1IgW4vs1jV6+3vq1z1d1M5UcCVy8WZrk/m3E/tLjGjPVT7pD/WX+5vAjFH9deXTER5fmcDMG8bCpjK3+85C1E/dI2PjFtR/UB3Yfop85RvIGPUPQgghpNTIwTuQwF4oq+yAxYt5/Y4Bc3a6fw7aO4fR6vIOo/Meow/PeBZR2B48dPHlwr93shRLt/cZPUaaDuUj1DuQ07uIlNW66YY3kyrlZeTg86MOLyzZ9csuW0j6fvLxeDfxu8aZh+X9JN7gyEGE9g+tn9GflAmGKPuhfqHooca+xi17MQhtuyLSy7SviScfjYyit7+PfCWO9HXl08k3Wv1UH8hqW0lY/SKWPys/C118MzzW/RulDpHlG618YfX3u6ag9wchhBBSgkygHYNzxFBQR3HCa4NtLHC2FjOOJ6YC4hpkTSome/0mOnJwke0WlBBCCCGTm/jmQBMNH/t5aVedkGsFqPSQKY/cBIwDAEIIIWSqMfkHAUdrXJ5JTO8iZXBvZkQIIYQQQsjUYfKbAxFCCCGEEEJcTP4vAYQQQgghhBAXHAQQQgghhBAyxZhWW1fzdfV3ySBd8q2un4XTb01TZyTSi0kKq1dejZ7XypFx1klIFMa7/5R6/821fNL70xk0Xp6N7h51qqQwy9c82/s8KTUK0D+kq917+rB8/aD4XcK0NyvRV+DNsYsHn++EEDLWRPsSIF8u9w4FbuRDyERHDjyj72I79aB8Sh2hRG9NI7XX2hSxtDw+sf8QQkjpMYHMgaQrQ27nT3JlvPtPqfdf3l/jS57yr5eukBNITdi9ONj/CCFkrInmHcix663/A1p+ynXsaNs/x3OtZ0dOXbjAuWOna8fQrN1GZdzzwJ4qVO6wypDwuAD1lM+gPLPjcRScu9oK3DvOhtRfxlsxHSfrBkT9RJ57Z2LB1gEk7GtyKL9Wft74nnCPDK0dUY/gvC1nOaMYdXMvffyw/Itf/7D+496N1oHruvD8dfUP77+S8PbR1S8Mq2zu3W7N9KwN3PKTj5VWHbA1qP3CkPF17e+pf1b7CwLvTzPugk7r2GpLZx669D3tb+B8fnji+7ZxMOH9I4p8BEb9ESD3PPqv9vklCZZflPtLf3+ElT+ifAghhGQRbU1AcgTLF1+Nt31tNeVD+Czmtidx4Mc1OH5wFqbd0IfWa2bgeIelxA+i6lcL8PK+2Xb4MoeNbsO2M7j2onj4/6BWhM/GxeQg5g4n7PBLb1Ua53vKLqFxVrmdrskHqLvhPSxd9z56Hl8o8hDprzyHxa70U+Ilp9J/82osXDOCc3sX4rcnjGA9xgv2injpy/RlHWY77Is19Zey+/ggLh9YhBNXncO1H5+ON3ZVA5+4gArDZtdbfll/EX+lJb8o8u1HK2ps+R0/OBNDRoiJW74i/oazLhvp6pWDWLwqjcaLZhpSzs2rP4hsm6uLH55/8esf1n+sMNnnEm9aeYg07Gsi5K+pf3j/jdA+mvqFcVX9JXy4tsyTp5R5GjPeNu3485OPmdbiVcH3Xzi69pf1D39+hN+fZvkS/fJ5ctlQJhNigHDgx5W2DPXPp/Dnh679dIT3D6983PKVCvTGL5zD8hWXxbWXkTTWA4hfMsb9E9Z/tc+vcPnp+4+u/rryh8uHEEJIMPmbA7WksbQ2gRP2TGMZju2Zg3TTCBrUmcHnaxwz7mU401mORO2oeVg/hGVNCbTHmDnzI7XXmpXzpI9hJJtE+DGVfncFevqBxLyo9qniJbQujXSbsw4OItRfzlwdV7PC6baE7wxVpvxA17EEUDdqrsGIkr7Ee2wj6++Ur4j/UgIJcb1rjYecXVPXDHbMRFrIr8o4ikhg/Gj5F6/+eRI1/5zlF7F9cqzfYK9VbqmsWnbZo6isLceFs+b5QhB8/0UjsP0Foc8P3f1pM2IPANxfRXTp654fEdsvT4LkO/j8fHMNwF65L7ooh/xb/qzyFKL/ap5f4fLLk4jlz7f/EULIVKQwawL6p4fPTApFf71rx94o88uFYjouiJd2csWweVg/ggVCAepxzTaFIRUm8fJzKFNZ6OqfC66XcHj6UhFw7orsWoBn2Aq7d0x2mk1YpDsrMuYP3VU4GPNzemD8iPlnUaj6F4II7Zuz/CLIJ6/6nZ2OtKFQC2VV5mQrR2UYClWaxxln+4c+PyLcn4LE2gFR/4D7PjR9zfMj1/49lhSz/0qK/XwvxvOVEEJIgQYBzhe2ZL58MVoMY82OAaAtqbxWLMKhtnIVNhYIZadP/NPUZ76kjLLoZg2dmEpAKKH1zxHniy9C+l1PqxnAXXVIr015FEXHDKH1c9k8F5sc8i9o/fOkGO3rQi+fnOvXLQYBsvwtI4ZJTAojaJCKa6krVnb5dM+PCPenQK4RONQGLN1x3vNFRZd+lOfHeN9fGoraf8fg+V70+48QQqYm+Q8CjlYIxSKNZbZSYn2ed382tmfq6oewyjlTJJUU8V+yxTyUNq6tTebfBUHkZ5gbOV7QXnOAcMzPy8mtXuVBEbH+0REv1a0ivjUzFzt9j1JkmC+k0bpNzWSONbHzL3D9IzLUX+5vwlHw9vUQWz651a9qHozZ66H+K0j+vlCi+qbHUlID5VNwPO2vCHx+6O5PB/YXFR93x4Hp654f431/6Sh2/1UEt49Jzv1njMpPCCFTkejegbyfuKUNqT3bJV7cTu8NHg8Pbg8RCZxsu4KltVUOu1VH+iLuoX7xIkGNy7tHxjOKws7DDLc8nUiM/BzpS1to78DC7d1Hj7sO3vgh9Zd1U56VqmxPLaPi+iFcMLyLZNcvu2xh8vWRj0f+ftc48/D3IBMdffyw/Itdf59wiU5GrvDw/h1e/yj5h8lAVz8dKj7U/SqUtPVq5jYwfUlk+Zjnw+6/cLLz97a/9vkhCL4/zfQz3oGs/DLefXTp658f+joEkx3XIK58jWdoRO9AnrYN7b/a51e09smqp6d+wfWX6O//3PsfIYRMXaINAiYyhtIzihPOl6Nxbhg9cVyEFo3sl9jUYqrXf6pT4u1f8s8PQgghJDcm0GZhOeJjP1rdPCzOlfjCSELI+MPnByGEkEnK5P8SIMj+nC9tfGN4vygq/BLALwFTmdJv/9J+fhBCCCG5MSUGAYQQQgghhJAMk98ciBBCCCGEEOKCgwBCCCGEEEKmGOMyCJA2tgXf1dVwI/cOtvj4AB9rilO/wjE+5Sud9iGEEEIImeroBwHST/ROz0Y8fueKTKkr1oQQQgghhEwUJpE50Ewcljt6ltJ2/cQB24cQQgghpFTQewfy24nSdU66+DsP7KlC5Q5rV0evCz3TDWDwjpqecMduxN6dQG0cu0a6rvHshmmmrSufZ0dKg8yOonpi1i9rx8uY8ss3vqCw5RMYfSKzq7Qz/fD2kYTlL/GW3yd/QgghhBASmWm1dTVfV3/7kxzB8hVA6uBMDKlT7nMfoO6G97B03fvoeXwhXt43GxeTfWhdOQPHO0wlsGHbGVx7USh2P6jF8YMyfBBzhxM4/dY0I7x64yCqfrXAiHv84CxMu6EPy2bPMsIvvVVpx0m8mcSBH9cYx1baEuuanrJLaJxV7gpDVvlE+ivPYbFKX9KwLYVl/ap8b16NhWtGcG7vQvz2hBGsRVc/d7jIf8NZNNv5x5WfLr5f/QpZvuz0zQHAFTFoMssv87DDBOHto8tf9o9+tKLGLv9xZ18khBBCCCGxKZg5UGpvZta861gCqBs1F4DWD2FZUwLtWbO/GQafr3HMuJfhTGc5ErWj6rgwZMrnTX8YySYRfkyVr7sCPf1AYl7E9Qfa+sn0neFlOPZSAommEdcC2UD5xY7vqV/By+eV3xWsWJdGus3ZhnGIlj/E8ViuQSGEEEIImcwUb02AUBKr1J9ahKK6XnqOUT9f85+iMR0XhNKfXDFsHtaPYEFtOXo8s9U5Uz+KBNJoddTPaTYTiCW/XONHJe/0R1FZC6R7c5RXhPwHn5+P9s7MNVwgTgghhBCSH/pBwNnpQkXzoX96uEmGLtxmGGt2DABtSeyTC0fF71BbuQobC8ow1Cf+aeozFVCjLLnOageRQLuqm/3TLZB1yS+H+LHIJ31zEJUf+vy7nrbC6pBem+JAgBBCCCEkD/SDgG45CEgj2aKOLfOPzooAJVEo9Vsd4Z74cpFoa5P5txN7Jrl+CKt8vgQM9Zdnm4gUAstcxqGAZhbMRkBXP8O8KI3WbepLgxav/OLG91Dw8nkxzYOSW3N0GRs7/0IMOgghhBBCpjZ670ASaa6zYwAJdZjtPSbM84zA6TlGxD3ULxR91Ph7jxG5nGy7ItKrCvcQY5chO38DT3jlS4tw+KgZZOTnSF/uQeAdmGTVIQxN/cJlFEF+EeKH1a8Q5QtNX+Buw/D6GdjtI9Hn74rviksIIYQQQuISbRAQSraSOKEwBjijOOF0OWmcG0ZPZBeh+TDB5UcIIYQQQiYck2izsByZLxemuqluHhbnyjBU9AEAIYQQQgghYw8HAUdrXJ5n5O/mtWXgZlSEEEIIIWSyUgBzIEIIIYQQQshEgl8CCCGEEEIImWJwEEAIIYQQQsgUowTMgUzvOAs6vW4xc8DpChPlOOny7jOMNTv7kOyfg0Oejahc7i3pfjKAYPkRSenKR9e/2f/dSJfBy/oL8DwiJQH7NyGE+DOttq7m6+rvYKRy/alR9LxWjown+ELxAepuSCPRn8Dpt6apc7kglLB7BpDeuwgHfzYbxw9Wos+11fEoFq6/iMRwBd721OPSW5Xi+tnoKbuExlnlON4x9V7+UvFZXT8rpA2C5VfySJev95/FyvWDWC5+1QOz0d2jwgykAp/CahW+fP0HuHhwZsQdry2KKx99+wSj69/j3//lRMAZ3PgJJf/kjHG9B6tXDmLucLznUT7tU3xKS75jDZ/vhBDiz+QxB6qXrj4TSAX62p+Jw3JHYM5i58hElZ9QgG6Xez6oHaH3JpDcehYr6lWwoSD1AWLwaO0YbXiLir2DMvtXrjRsS2FpX52Sfx1STX1Yv/GKCiX5QvkSQgjxI5o5kPwSsG56iJmDMoVQR/AziXCZ6mTvCJsxB7LSSsRz02mkD984UT8HG9dl7VQsMcto71ob+5NymHxk2ueBPVWo3GFd4617eP6W+cIRnLfrmRJKbWbzMU98R/4u2Thx5KGXX4Hr59v2Ko/YsvdipiOVflM+8ngIFxymY8H9wJ9w+eRX/yjtE9a+TnT1Cg6P0j454rMxn1GOppm+dcjGLFvwjta5yN/5fJIEyzen9vHtI6Uq3xyeL876yefyiuk4WTcgwstxcu9MLNg6gISrj4Y8P/ye61nngtvHybj0b0IIKWGimQMlR7B88dUBZg7yAXoWc9uTOPDjGhw/OAvTbuhD6zWOT87GQ/sKTj6+EC/vk6Y6sx2fzZ3mQJeNl0FCvIAP/LgykjmGfLBv/MI5LF9xWRxdRtIy6XB88o76Obj8mgu+4Q3bzuDai+LF9oNas34bzqJ5dtRP/zr5yPq/h6Xr3hcvalM+F5MifGWm/Lr8pfnC4lVpNF6sMa6R9Wxe/YFtvlW9cRBVv1qgZG/mv0zFt2RzMTmIxJtWGcV1DhmEyy9u/UT4ynNY7Cz/xn60wiy7kbevKY4yt+mf5ck/LmY66LRMgspwdfIcrv1DZQIklKaP/fEFnPvftR6ToWDC5ZNf/aO0T1j7Ognq3xZB4dHaJ0eWXsTKeeXo+Bf1bBHPio23DgOzpuN8pHzM58eMtzMmXu56xL2/TFk7zYHyvX+0929Jy1eUT/N8Ca2ffHd8fBCXDyzCiavEffbx6XhjVzXwiQuoeFOabGqeH6JNq9cPIOEw4av+yJAoSyUOKxnn2/+LKn9CCClh8jcHakljaW0CJ+xZszIc2zMH6aYRNBjH4iG/Lo10W41jka4fI/YAIM6CvMHn55ufuffKfX/lDI5p0pE925Mrw0g2iXTt9ET9XkogIeonXmV6tPIxSe3NzNR1HRN1qRtV6UfMX85+qWsGO2YiXTuKKuNIysgp+zKc6SxHQoQXhNj1C8jfc302ytwmz3Zt2NZnLN497jAb63pa9h+YG8YZs6bOWc7CkH/9gylq+1rkUb5IyBlrKX9jhrcOKfHcqLJNtvIn8P4S+S5z3V/Z5CffiPdvqcs38PkSoX6O+y3dlnDPsGufHzNxvK0cyRWWed4VLGwCTv4q014F6f/Flj8hhJQghVkT0D89ZOZkFJW14uHfG67YJ9YOIIly9HhmacYdY62Be0dhp1lTJELlE4D1ko2Yf7qzIvP5u7sKB52fsy0FQP18zRfyIZf6OZADOeeuzcWyV5ZfjVqlwuIxFZDmDoa5mzGYLMPSHcUrgx9517/I7Vv09qkdwM07RnHCGMCLfmv0+TIM2YpdEbCV2AjkI98I9+9EkG/g82UMno/GoMNS0utHsEAMDM44y55n/x+r5w8hhJQahRkEeF+o8+WLwWI6LvSrP0OQNriH2iAUsPMlOCMjFEfjBer4RbSnNQiVTwCuF2M++Q9jzY4BQMjXinuorVyFFYhc6ufBmI03yleH9NpUwV/Epu02cPJxj62vUCCWNZXj5B4lz6M1xlelxNr0mPbD3Os/Bu0rKFr7nJ0uVEjpztfRLrL/5Dmw1BI5/ULIV3//Tmz5Fvn52F2Bnv40ki3iPm4eBpwDkgL1/2I/fwghpBTJfxBwtAIp8ZpZZj80LfMf67Ov+Xk2uVWv3NszMvcOuT+VjyfqBRTfW4xCKx8v4qW2VYRbL7p881fYX2KE0rvKZ6ZsqL88uomTk9j10xE0aBRykTN1OcghMwDImIS4uYTK+epPQcOKdN5fN3LHv/669tG1b+EIaB9rNjbuvWv070tYersVT/Ufl6KnJzFP9b+WzOJVf7z3l1SSTQVTYn4tMv92kvP9E/v+LU35BjImz0dl4jNvGAubyhymQxkK1/+jTVoRQshkILp3IO8nXpcHBqmgObw7ZHm/sBSxzMM52DuQeWx4kghU2nwwyujnHchKTx1a2GXUhUuyr3F7D9ERJp8oaYdfY3nvCCqPW/YJnGy7ItLyesnw5BFLPvr6hXtv8aTvim+h8vANC8NTNgtn//X2b1ff1qGTT6Hq77nOcU14+0YrX6zw0PLJWWHvPajDnUe8e0sgFeQdA+bssWi79s5htIbUPyt9Z/uLuh3qF4okauxr8rt/JGFlyA4rNfnqni+h9ZOyVZ7lqux0RsU96fTIpX9/hN3/Be//vvkTQsjkowR2DJ7qmC8hp5JIyEREKoutdXEGUGPB5Lm/SlO+hBBCJiqTZ7MwQsj4IGd7d1JBLRqULyGEkCLALwHjDr8EEFI8eH8RQgghfnAQQAghhBBCyBSD5kCEEEIIIYRMMTgIIIQQQgghZIrBQQCW4DPfehLf/vQSdRzEzfjy7ifxo299Fo3qzORA2ky/gzXKT/rYU/j8pReVsdvsZ7zll83Y1j8q0sVjDn7uiZu190/AZ5B8dt6PteqIEEJIaTAxBgET8sVHxoV6uQNwwndDIZI7pTmwiM5EL79B42fx7e312P/YT3FanZKsuXM5Hv5u5nfnahUQi2rcKeM/UJfDTtkV2PKAowx3eod5h/DL/fW4i89wQggpKfglIDKH8Mj2L+JLf+l+AZPSorp5GMh5t2JSPGbi8K5F2EcXlzmyBJ+5ezOw/1H8zPMAOvzEm3jgQfV75Bzm37EEW+Jo8qsXCuU9gd4XL6sT8Vhz52Js6E2pMqTQcW0SD26uUKEmp3/+AH7Ysxn3aL+4EkIIGSsmhncg+SVgSze+EaiAy8/Nd8O2yEg9l32tTGP7KnUgLtn/EL7681PiL2kO9E20tlvHVlpH8MPt30ObONP46YfxtU1qP8ujj+FLf33I/NtAxr8XeOwZ1O+0ypCJa+Ipn0EK+3c9kPVCD8Szq61710/TDaK966Vnx1s5Cyp36jyC8/bOmqm9lstEy4ViHbDV2rXTuyupZ0dPV/oy/nlgTxUqd/jFjxIelr8uvhNZTudOpA4mrPyi4Cm/wF2/sPwVAfJx78bqwLGrarh8PDu6Zu3GGqX+nvrF2NFVW36j3p6dxl3nClE+b/vEbV+B9hloIWf056L3kVPYFykDcf0DM3Dg4T5g8xJ8pTmNvxJ/Ry5bQx0e/HICHY78GoLSkV8ydtbjWdezkRBCyHgxrbau5uvq79Jl0U3YujyNg//yO7ynTmWQSvgDWPbSQ7jvOz/G3meOoPyWe3DXyj7sffVt8xJjAFAvlO4/w7f//hfiml/ghTcGzDDMQfMtf4Bk6n+Jcx8xlPUFYoBw33f+Ce+oK95744ARp718LTZUdWbSNZDxP4lNWxrEi12mL/K/8XP4/dojdh5r7/sWNveIwcNf/hX2Hq3Ajes/jJO7/ww/+p0RrMdQSq7g5OML8fK+2Th+cDZOvzVNBUpFZxBVv1qgwmZh2g19WDZ7ln1N9cpBLF6VRuPFGuz7QS16yi6hefUH6HmtHJfwAepuSIvw99Gj0r+Y7EPryhk43iGVSKnAnMXc9iQO/LjGTr/1Gitcxn8PS9dZ8UX4ynNYbOfvDfem780/bvwM1RvPo/liFV5+xX1+YstPT8O2M7j2olA8Rdlk3S4mBzF3OKHi6/IXhMjn0luVdpqJN600xDUO2YfLJ5OGPN84q9zTbvr6u+snwjecRXNE+WjL3yPKv34AiYHZ6BZ/Sxo2CGW/vxqHfdsnu//pyle9sR+tMGVj5H1wJoaMkOis/ZP/jIUn/h577OdWAKtr8fkFw/jl/osR87iE9jbz2uoPz8HH5l/GK+o4EiLOHzvzW70QO28TA6DK93HqwBBcY/H30qgVz8amkV/gVevhSgghZNyY+OZAa2/HpuQRPGvM4ktO4WePPYdUy/VqIZoYJGxZhZTPZ3Q3N9kDAPOLQDyO7rZm9U/h1fYUkvWLjPPyK8D1LSL8N+rrwemXIYKxoCHqZ3GhxK1LI91Wkz27rRh83hlWhjOd5UjUjqpjhZz9VbOTgx0zkRbhVcaRSWpvZva861gC4k1t2ga3pLG01mljX4Zje+YgbYUrMvH9889Kv27UtUA03/hSTgubLiF1zDtDPDnkF4haA9EeNDOuzV8vn0ho5KMjuP7DSLrqJ8r/UgIJUf7CLDCeieNt5UiuGFbHMr9ynPyVW57B/S9i+TztHY8l+NACMV7pCnouOWzy70ig44UYM/mFQn4RMPIHnpImQZiBZFaFT+FdMdCK/uwjhBBSTMZmECA/A0vPOvavwJ4iUt0hL71FqE+GvUBNkps2owUptP86/gAgnHfQLZT+lutuNg8bb0JrMk4+o6isBdK9lhLng1AE10vPK+rnZ/6Q7qzImH90V+FgmDnC2enIGIYI+qfHnrnUElNJzMIbXyq7mIPjWbvCTgL5ecq3Zef5eAplaP4R5BOBWPKJQ/0oEkKarc76O8yWDPKUjzFosZT0lhEkO6v0AyKr/0Uo3+Dz89Hembkm/gJl8xkWzAj2PWytC3gbvbcsz7LJLyrz5uIrX56BF4z8z+BwwwzMx2WkfDpAl3gYZiZICCGEjCdjMwg4/VN8VS6qtX8FtglN1rtf+g31GftnpYTrkGsEvrEf2LSz0K7szNkvtNxtDoB2+i/uC2Y6LvSrP30ZxpodA0BbEvvkwkvxO9RWrsJyZL5QbJyKo1fhluHqz5zJVzH2xG9YkXYrojaTQH6GUm2WzfzFVLBD89fJpxSQNvTO+oufc01DvvLprkBPfxrJFrMfZX9N8sHV/zTlE3Q9bYXVIb02FXMgEO0ZZjKC9o7LmDd/hjouMj2X0SsU/hcfEcq/OoUFMzCvVwwC1KGTBjGaSXXTFogQQkqBiW8O1PYajmIVbrO9TljmP3vUQMM0z2nZrlfuDQ8WR1cV1pVd42dxW4tcKJwZBMUzNzLNI5Jbw2c37Znc+iGs8lsIGRllHmIp1EcrxMs8jWW20mKZj+TqgUco3VuDFPYo+MQXdZYmMf5uQSeb/Dx0y68OpgIrkQthW5vMvw20+UeTz1B/eQFNcGKgFPTWbZa5Tm6El9804UmuO4tldX5fk5x4+l/s8uUy6IpjRlONWzfMQMf/8dxdlrlOTi5ABUHxu9Lo6J2BDZ+zzldgyy0J9Hakffq3zqyJEELIWDJxvAM5PPsYuDwAebzvZHnw8Xj4EQR7BzKPNyUt7z3WsREtg52HGV6/74t4RH3eMPKqf8Yuw9r7nsRdbtdAjvyj4fVy4vT+4g5L4GTbFSytrcry3pLxFuNEKIWhnmUkQvFxepdxeT8x41e+5PEGY+evSz/f+N7r/Zm48ouAsbBXmaCItA/1i4EMahxlCMvfJEw+Jp56OtKIKx8DO36U+keRsY7g8puYMkro6i3QykaQuSY7zE/+WoxnIDxexyRyPcBibJinDgUdT72JJ15XBxaGF5+5mNd7zuO1Jzu+gfe6wPgSdxq9L76N7z43Yh44oXcgQggpKSbGIGAi4/fiM86tRnscF6ETFlMJcip58dDFl8pbgFtQQiIT1I/y7b+FwjtZMfGQkyG3dU/c8hNCyGSDm4UVG9f6BJPGG1aLc914d9IPAMYCuQkVBwAkPxq29UVbEDxumF7PsOlefGYCbrsrv47eteA5/C0HAIQQUjJwEFBs2r5nrjNweEf62qZun8/6hJCxRpoySY89rXUZF6cli3SwsLsbm+4u4JqlMeFm/LF85nG3dUIIKSloDkQIIYQQQsgUg18CCCGEEEIImWJwEEAIIYQQQsgUY1ptXc3X1d9TFOl142/w+dojeOGNAXXOD+mG9Fu458YKtP/L7/CeOjseSDvm1fWzcPqtaepMKSC9q6SweuXV6HmtHBlnk4XHv/4FyF+62rynD8vXD4rfJUx7sxJ9adNl5cYvnDPPJ2fgeEcc15QTDOmK8k+XjHsfj4e8Nz+Fac+8DG5DRQghhERjYnwJkIpJITfwIllIxTreLqbjROjGYPkgBhFb00jttXZ2zXgcGnx+vnEu752EQygJ+UvXtdvrsf8xzwJOa6Mo9btztTofGelHPhP/4TvjbjlWjTsd+T+4uUKdtziEX+6vL+wmf4QQQsgkh+ZAkTmER+SOv/RwEYB01SmU50erctwJOBrVzcOA7267eeZfP4qE+C81rr7gx5Ml+Mzdm4H9j3r2rhAK/OcS6HjkTTzwoPg9lUbzHUuwJca2s2vuXIwNvSkz/oMpdFyb9FHkg5ADiCTmv/i2Hf/shsVZAxFjt++ezbjH3jmcEEIIIWFMnB2Dt3Q7dgj24tkx2LWbsMKz63DwjsFWWkdsN56u3YazdiOW8e8FHnsG9TutMmTimnjKZ2DtSKwOQwnbkVQiTWEcO8L2z8EhrzLs3FVWYMX37hRr47Mj7BGct6+VM+auHV6tNLJ2Q5VlPw/sqULlDquMCbTvqnEo8p76Be6o6r+hU/75Cwz5IPu8g+ydbC0ilD8P+evaV9c+kdDeYxZyVl6UxG9XWj+MnWblIOIU9inBNmxegq80p312nvVh9UI8fIfI7sEzOKxOGfHnn8MDT3iGe9yRlhBCCInMxFgTsOgmbF2exkFfO2WphD+AZS89hPu+82PsfeYIym+5B3et7MPeV982LzEGAPVC6f4zfPvvfyGu+YXD/n8Omm/5AyRT/0uc+4ihrC8QA4T7vvNPtn3xe28cMOK0l6/FhqrOTLoGMv4nsWlLg1AgZfoi/xs/h993rDFYe9+3sLlHDB7+8q+w92gFblz/YZzc/Wf40e+MYC0N287g2otCKfxBLY4fnI2LyUHMHU4om3ipgJ7F3PYkDvy4RoTPwrQb+tB6jcN23VBAr+Dk4wvx8r7ZRhqWPf2ltyrtNBNvWmmIaxx279UrB7F4VRqNF2uMMvSUXULz6g9s23srDXm+cVa5x2b+A9Td8B6WrnsfPUb+onwrz2Hx7IxNv7t+InzDWTQ7wi2qN55H88UqvPyK2xQon/ylEm7Y+6+4LK69jKSxHsDf9r/8mgs+6Ucof17y17evrn2isPZP/jMWnvh77AldFyMpR+utCeB3/WiPsrHWh+fgjxcM45f7L2JIHgulfudtYnBT+T5OHRiCNon6Kvzhgst4vk3FFwxVzcIfrgTecJwzeC+NWnHvNY38Aq9ycQAhhBASysQ3B1p7OzYlj+BZeydKc2fNVMv1WGsci0HCllVIZZk5eLnJHgDksq390d3WrP4pvNqeQrJ+kXFefgW4vkWE/0Z9PTj9MkQwFjRENFtQNvDtvjPjgpY0ltY6beTLcGzPHKSbRmBabAglcl0a6baa/HZDlbPPqgyDHTORrh1FlXEUjdRea/a+DGc6y5EQ8U2GkXTVT5T/pQQSovxuy/ErWNh0CaljAXLQEJS/Ze+/b69QbI0vBGpNQJC8s9CVP0/5a9tXkVf7LMGHFgA9Xfp+v+bOJJp7z+FAlK8ATqx1BcasfgodmIFkFJOi19PomDcXt9rmP9W48w7ZVn6cwrs9Me4tQgghZAozNoMA+ZnesWPuj3bfrxT0ApHqDjErWIT6pF7BSW7ajBak0P7r+AOAcN5Bt1D6W6672TxsvAmtyQLn0z/dPSPqYhSVtUC61z17HZd0Z0XGvKi7CgdDzGZiYdjip9G609y51fg5zGZspDKMOTheajb72vIXQP6h7WuSX/uY94gOaYZzx7VpPBXFjMeJUOK/8uUZeMGw6T+Dww0zMB+XkYqUyCCeMNYhWAuDE/itOEbvZd8ydImbLTMAJ4QQQkgQYzMIkNvdy0W19q/ANrvJevesaEN9xn5aKeE65BqBb+wHNu0s8ABFzU6i5W5zALTTb/FlnnhnfedLxdRiOi70qz9LFscMvPXzrGloWJF2K7olRVj5CyD/0PYtBPp7xLDD3wC8+EjGNj8SPZfRKxR+V7wFMzBPKPERbkuT18+oRcHmICKVnIHes9J8K5sGMZpJddMWiBBCCNEx8c2B2l7DUazCbbZXEMv8Z48aaJjmOS3b9cq94WHk6KrCuhps/Cxua5ELhTODoFjmRt3TIdRfJNWqYmnD3tpk/m1wtEIoU2kss91LWuYnlgcd0/wlufW8e6DkYai/3McEZwzorkBPfxqt24bVCR+K5ha0AGjLn6f8te1bCMLNaDIDgMzi3iwsc58H6tz17Eqjo3cGNnzOOl+BLbck0NuRdpc/KL4Ha1HxPzw3os44iW7WRAghhEx1Jo53IIdnHwOXByCP950sDz4eDz+CYO9A5vGmpOW9xzo2omWw8zDD6/d9EY+ozxtGXvXP2GVYe9+TuMvtGsiRfwScnmU663Cof0gMe2qCvQP5eKfxeqFxexeSyAWo/h5uLO8z7ustPPEs7PhmeOVLHm9CLi872Wk4y5d9vZNC5C8I9A6kS18SXn5JPvLXtW94+0TEuMfg8WolMb0BNasjm95zbu8+hheguZjnPW8g3XwuxoZ55lHvi2/ju14lPjC+Oy7eSGV7BbKgdyBCCCEkMhNjEDCR8VNMjHOrhcIZ1UXoVMbfLSgpNN7B8MRDDrZv65645SeEEELGEm4WVmxc6xNMGm9YLc51410OACIgNwHjAKD4mF61sOlefGYCbrsrv77dteA5/C0HAIQQQkgk+CVgDMg2B/JuJkZIiRB507BSQpoDXo/XeE8RQgghkeEggBBCCCGEkCkGzYEIIYQQQgiZYnAQQAghhBBCyBRjWm1dzdfV31MU6RXlb/D52iN44Y0Bdc4PaXf8LdxzYwXa/+V3eE+dHTukl5wUVq+8Gj2vlSPjbNJ0P7nxC+ewfP0glidn4HiH21WkLrwwBJev1JAuNVfXz8Lpt6apM/lRGvLXMUHaR65J+NMl43SPlSry2fMpTHvmZXAbNEIIIYViYnwJkIpBITfwmmQMPj/f2KX2UFu5OuNGFz4RkIr7envDrDwowsZjpSD/gslnPJGuc7fXY/9juSxKlvsZBG02JvcaEGEyXP7uzHFLvNANzcLy16Er3yH8cn99YTcxJIQQMuWhOVBkDuERuePvuHlNka4yF2Hfo1UI2CppnCn18plUNw8DBd1td6JQ6u2zBJ+5ezOw/9H4e2esXiiU5wR6X7ysTrhZc+dibOhN4YEH3xS/FDquTeLBzRUqNCpCUf/cXJx9Q23a50STv44o5TN2M+/ZjHvsndEJIYSQ/JgY5kCLbsLW5WkcDDQRUKY6W2/HVvnzM9mRXxO+/p/NcPG7sdwy/5mD5lv+AMnU/1LHVlq/h171+V36IP9//uv/ZcZd0oe9r74tU1RIc6K/RPPJEWz8nlWGTFwTT/mM31qUHz2Ajgg2D1HNScqvuYDGWeUxw+VOtWfQeHk2unvMM0Z+119tXid30t0wimkbzuLGT1zCtIEP0HzPWax0mJWEl0+m34+6d69G4/0prJbXrP8AFw/OxJC6wirDjZ+QYeLnk3ayDpixKG2GZ+XjiR8oo2Gs/MJlnN9fjT6vLifreU+fnf7CMqe5kDKlsfIOMKnJTf6SCOUPKF8U+ej7T1j9cmi/rPAIrP0S/uvyI/i//+Yl930rFez/UoVzB4ZgbxXhOleNO78A/OQbPUh9eA4+Nv8yXmm7mMm7oQ5f/I/T8NpPenDcOHkJvWVVuKUZeMN5nYaGzR/CHfPfw09emYaPXfO+Iw9N/jpilO+dVAVu2X4DhmkWRAghpABMgi8BUgm/Gwv2P4QvyZn67Q9hPzbja/fdrMIFcgAgzQx2yXDz57+rqFTWrbQyPsflLJyM8439KXXGSxKbdn4S3Ub6Iv/UKtzmmLFbe9/daDn6mJn3rucgUzm6O/puweNuztM0gMqXFqG98xKWbh3FiV11SNUOY2G9Gawvn4i3Q+76u0hcl8TJ/jSWOUxXqjcKjXyPDFPhGMAqFW6l3d4JpNuS6hrxe3qmES5p2JbC0r66TPy6Pl/TmOqNQ0h2VmVvPCYV7K1XcNIon/k7aJsLSQW3Dwk7b7N8N28bVuH5oy1/SPmiyCe8faLUT9d+5x3ll7+a2F9a1l63Cqn2l7O/sr2eRgcS+MhqdSxoEAMZvJHGYeNoEE883Bec34IZmNebRrt1gRhAfGWDiD9vRtYmfoEIRf3zG4AXf+KXjyZ/HXHKd/pltItny/Vr1TEhhBCSBxN/ELD2dmxKHsGztlJv7nyaarke5rtSDBK2CAVDa2Zwkz0A8B8ghJNR6k/h1fYUkvWLjPNyYHF9iwj/zSHz0HiRi3d/wwT6rN8/B8ePmn+mczSlSe21dv0tw5nOciRqR43zksHnaxyKeXZ4OMNINiXQbiu9ZTj2UgKJphG4LauvYGHTJaSOZZRjE6EEr0uLejnL4KAljaW1zjUEIv09c5AW6ce3/fZDV35N+fIlYv3C2s8gL3kswYcWAD1dfvfdIA68eBnNH7VaswKtzUIhPxDTqMmy578DeEqa3EAo2RELvObWuSLDFPblrOlHIFL5TuHdngn27CCEEFKyjM0gQC742/0kfmT/7lcKeoFIdYcopotQnwxSMDIkN21GC1Jo/3X8AUA476BbKP0t16kvE403oTVZjHwmMPVDWL/zHWxRv5vXxvBdUz+KBNJodcTfstXHblsqu8gMZjKMorJWDG56vSYyDvqnRzfviIu2/BHKly951k9+aWjvzNQh/gJl8x4NoutoGr3XJrBGHjQk0CzkZc+cR2HeXHzlyzPwgmFzfwaHG2ZgPi4jFSWN1Qtxx7xz+IfnRtSJIhCjfF3iYZKZYCCEEEJyZ2wGAad/iq8qMxzzV+Dt/ZP17lnIhnrHp3RTCdeR2v8QvrEf2LSzwAMUNXuHlrvNAdDOHBc/TlqGsWbHAOAwZYlv9pRAu22Kon6eBbANK9JId1b4LIqdjgv96s8gakdRpf40mC8V90ISVv4I5cuXAtSv62mr7HVIr03FHAho7tGuNDp6TZOghhZRso509K9RPZfRKxTqFx8RyrU6ZZrgCCVbHYax5qMiP6mkW5577sgc3+kwUcqZmOVrEKOlVDdXBBBCCMmfiW8O1PYajsJpg2+Z/+xRAw3TPKdlu165NzxwHF1VWFd8jZ/FbS1H8EPHICgXc6Nik5inlLaW8/Fm4guEPdNdP4RVPvkP9Zf7mPgIuivQ059Ga5iNfqhbUNO8Jbn1vL85y9EKoYw5beAt85wCeRjSll9TPkWgfHQUvH65DFp0Zi4jaO+4jPnJarQ2X8YLcWbljQHEDGz4nOW6swJbbkmg1zuQsMxxPC4+Dz8hZ+cdv6fSQO85/JX4+4nX1UVRCEg/cvkMwsymCCGEkHhctbzp9/5d/V26GAt7V6kDReo5fMN212ku6G0x/hbIRbh/fUgdmEgPP1/blPk+IGf+TWVcLiz+Jlrb3cebkins3yXt/K1jI1oGOw8zvH7fF/GI+rxh5FX/jF2Gtfc9ibvswplk8tchF26msLRWHVp01qnFn/mGC6Q5zo4Bc/a3fw7aO4fRWltlhstFqeum49CjVaja9g6W9Sdx8PlRrNkpF4rOx7HuaPnLhcWHlSmO9FZzs5W+dWwr/gmcbLsi0suEm3jycZbfp45ykay1eNabnx/uMrjjm95z+jJflzR5G8SRv6b8kvDySYLkEyV/ff2C288nfVf8iBj3OMRgOegrofTDn0TzGyk88ITze470sb8YG+apQwupqNsLdt3X9L74Nr7rHUhIJf3LczHPFc8H6ZnolsuBadt40wlNP0L5JNKscmc9ni30l1RCCCFTkokxCJjI+L24jXOr0W4MMtQ5UiSkgmsNWNQpUoJ4B+PEi5xMuK2b8iGEEFIYJoGL0BLHtT7BpPGG1eJcN97lAGAMkJtkcQBQ+phevbDpXnyG2+JmIb8u3rXgOfwtBwCEEEIKBL8EjAHZ5kByjQA/6ROShTQL2tLtMPUjprnj9XiNzwxCCCEFhIMAQgghhBBCphg0ByKEEEIIIWSKwUEAIYQQQgghU4xptXU1X1d/T1GkV5K/wedrj+CFNwbUOT+kXe63cM+NFWj/l9/hPXV27JBeblJYvfJq9LxWDqcnfemyceMXzmH5+kEsT87A8Q63P3xdeGEILl+p0bDtHayun4XTb01TZ8YW//zzld94yV+6CD2Dxsuz0S03xfNhbPqfQq4p+NMl43SPliry2fUpTHvmZXCbMUIIIRYT40uAfLEXcgOvScbg8/ON3VqDdtrVhU8EpOIcbxfaAEI3DitdClb/cWDM+p90vbu9Hvsfy2VRsdyHwGczLwPpx1/tGCx/d8beks0kaMMwg7D8dejKdwi/3F9f2E0QCSGETHhoDhSZQ3hE7vg7bl5LpKvLRdj3aBWcWyWVDqVePpPq5mGgULv9FpR85Tcx5F88luAzd28G9j8af+8NuQHYdxPoffGyOuFmzZ2LsaE3pXYNTqHj2iQe3FyhQqMiFPXPzcXZN9Lq2IEmfx1Rymfsht6zGffYO6sTQgiZ6kycHYND3QZ6dgx27SasMHYkzew6HLxjsJVWxo2na7fhrN2IZfx7gceeQf1OqwxeF6Ce8hlYOxKrwxBcu8WG7Mbq3sk1G/9wzY6wcsfgFdNxsm4AS2vLcXLvTCzYOoBE/xxjF2GpcIaXT6Z/HthThcod1q60CbTvqnEo4p5dZ4PSduKzq232brleQjYOk/XcmlHQQncMdpQvp/oJsnY0DpBflPqHy19S4PJnxZf9pw7YGhTfxCinb//0pB/YfiEEPSOkgn0H8NSDZ3BYnXKfq8adD8zAgYf7gM1L8JXmtM9Ovwl0PHIK+9TJBr/rNNhxXpiBr7h2HNbkryNO+bjjMCGEEAeT4EuAVMLvxgKh1H9JztRvfwj7sRlfu+9mFS4wBgD1QumW4ebPf9dNU1k308q8KOUsmozzjf0pdcZLEpt2fhLdRvoi/9Qq3OaYcVt7nxgAyMGDzHvXc0L9F2OJ3dF3Cx53c56mAWOQ0N55CUu3juLErjqkaoexsN4M1pdPxNshle9F4rokTvanscxh2lK9USjfe2SYCscAVqlwK+32TlNxNq8RP4eS2LBNKJB9QnG04tf1+ZrOVG8cQrKzKmAAcAUnjfKZv8wAQCqofUjYeZvlu3nbsAqXhNfPXT6zLk7C5Bel/uHyz7/8Ye1jkdxqxZdlTaPVlX44UdsvjLXXrUKq/eXsSYLX0+gQg5KPrFbHgobkDOCNtBoUDOKJMKV7wQzM602j3bpADCC+skHEnzcjM6jSIRT1z28AXvyJXz6a/HXEKd/pl9Eunk3Xr1XHhBBCpjQTfxCw9nZsSh7Bs7ZSb+48mmq5Hua7TgwStggFQWsmcJM9AMhlW/6MUn8Kr7ankKxfZJyXA4vrW0T4b9TXA+NFLN7dDRPos3z/HBxXXwnSOZrSpPZas+9lONNZjkTtqHFeMvh8jUMxzw4PZxjJpgTabaW4DMdeSiDRNAK3ZfQVLGy6hNQxn1nodWlRL2cZHLSksbTWuYZApL9nDtIifaftdmD91BqETPnGmHzLL4jSPpn4QNexhBg4utMPJmr7hbEEH1oA9HT53beDOPDiZTR/1EqtAq3NQiE/YH7HiIxlz298QUiJgYVQsiMa76+5da7IMGXP1BeFSOU7hXd7JtizhxBCSNEYm0GA/Ay9+0n8yP7drxT0ApHqDlFMF6E+GaQgZEhu2owWpND+6/gDgHDeQbdQ+luuU18mGm9Ca7IY+UxghKK8fuc72KJ+vuYvQdSPIoE0Wh3xnWY9NlIZRmYwk2EUlbVicNNrKck+9E/HkPpzQpJv+eO2z9npokUiErX9QjHv8SC6jqbRe20Ca+RBQwLNIj975jwK8+biK1+egRcMm/szONwwA/NxGakoaaxeiDvmncM/PDeiThSBGOXrEg+jzAQFIYSQqczYDAJO/xRfVWY45q/ANqnJevesY0O941O4qYTrkGsEvrEf2LSzwAMUNfuGlrvNAdDOHBcvTlqGsWbHAOAwdYlv9iRt0C1zFfWzbdZNGlakke6scJ0zmY4L/erPIGpHUaX+NJgvFdcJRF7lz6F9ZPqxBh769gtHc493pdHRa5oENbSImneko3/N6rmMXqFQv/iIY02BYYIjlGx1GMaaj4r8pJJuee65I3N8p8NEKWdilq9BjJZS3XQUSgghZDKYA7W9hqNw2uBb5j971EDDNM9p2a5X7g0PGkdXFdaVXuNncVuLXCicGQTlYm5UbBLzlA12y/l4M/EFwp6Jrx/CKp/8h/rL/U1EuivQ06+xQQ91C2qatyS3nvc3XzlaIZQpp428ZT4U0SyqW86Kp5FUq8Ll4tjWJvPvOATWX0e+5Vfo2ieDSt93wOVDlPbTojNzGUF7x2XMT1ajtfkyXogzK28MIGZgw+cs150V2HJLAr3egYRljuNx8Xn4CTk77/g9lQZ6z+GvxN9PvK4uikJA+pHLZxBmNkUIIWSqMXG8Azk8+xi4PAB5vO9kefDxePgRBHsHMo83JS3vPdaxES2DnYcZXr/vi3hEfd4w8qp/xi7D2vuexF1u10CO/HXIhZ0OzykWtgeVfMMF0txjx4A5O9w/B+2dw2h1egdaN93wBlO17R0s65debUYdXnai5R/ofcg6thXLBE62XRHp+Xsx8vcgk12GLO87vl5pMrjL4I6f5V3HJ++w+rk8D4m4h/qFIo0alb5OfhZB9Y8SP7/yh7dPdv5u2UUpny6NCBjPCHi8cjmRfviTaH4jhQeecA5PpI/9xdgwTx1aSEXdXrDrvqb3xbfxXe9AQirpX56Lea54PkjPRC7vQFHyF4SmH6F8EnoHIoQQYgP8/2/u4RyDybrwAAAAAElFTkSuQmCC;" parent="1" vertex="1">
          <mxGeometry x="-330" y="250" width="447.42" height="160" as="geometry" />
        </mxCell>
        <mxCell id="UprdQU7urSdBl7EIp6AR-1" value="Es un popular framework de desarrollo web en PHP" style="rounded=0;whiteSpace=wrap;html=1;" vertex="1" parent="1">
          <mxGeometry x="334" y="80" width="160" height="60" as="geometry" />
        </mxCell>
      </root>
    </mxGraphModel>
  </diagram>
</mxfile>
